<?xml version="1.0" encoding="UTF-8"?>
<!-- Generator: visioncortex VTracer 0.6.12 -->
<svg version="1.1" xmlns="http://www.w3.org/2000/svg" width="433" height="577" viewBox="-155 -16 350 222">
<path d="M0 0 C6.837 4.807 12.76 11.525 18 18 C18 18.66 18 19.32 18 20 C18.66 20 19.32 20 20 20 C21.281 21.589 21.281 21.589 22.715 23.797 C23.236 24.591 23.758 25.385 24.295 26.203 C24.837 27.044 25.379 27.884 25.938 28.75 C27.008 30.391 28.08 32.032 29.152 33.672 C29.627 34.405 30.101 35.138 30.59 35.894 C32 38 32 38 33.678 40.146 C35 42 35 42 35 44 C35.846 44.041 36.691 44.083 37.562 44.125 C41.652 45.166 43.391 46.868 46.289 49.82 C46.854 50.21 47.418 50.599 48 51 C49.337 50.683 50.67 50.345 52 50 C69.974 48.709 88.909 48.403 104.691 58.266 C108 60 108 60 110.664 59.957 C113.331 58.864 115.172 57.544 117.375 55.688 C122.363 51.654 127.246 48.714 133.188 46.25 C144.282 41.409 153.437 33.301 162.647 25.627 C164.357 24.215 166.083 22.825 167.812 21.438 C168.34 20.996 168.867 20.554 169.41 20.098 C172.108 17.958 173.804 17.02 177.262 16.66 C180 17 180 17 182 18 C183.691 35.071 181.887 46.866 173.66 62.254 C171.641 66.423 170.805 70.724 169.938 75.25 C168.53 82.5 166.504 88.021 162 94 C161.491 94.679 160.982 95.359 160.457 96.059 C159.459 97.374 158.454 98.684 157.441 99.988 C155.884 102.162 154.633 104.392 153.375 106.75 C151.609 110.017 150.038 112.746 147 115 C145.68 115 144.36 115 143 115 C142.83 115.617 142.66 116.235 142.484 116.871 C138.984 129.104 133.602 139.589 125.375 149.375 C121.816 153.806 120.146 158.475 118.23 163.781 C115.159 171.817 111.518 177.346 104.246 182.039 C101.671 183.141 99.773 183.185 97 183 C96.752 183.598 96.505 184.196 96.25 184.812 C94.778 187.389 93.515 188.436 91 190 C82.878 191.557 76.89 189.04 70 185 C68.797 184.385 67.59 183.779 66.375 183.188 C65.591 182.796 64.808 182.404 64 182 C64 181.34 64 180.68 64 180 C63.01 179.67 62.02 179.34 61 179 C60.148 177.258 60.148 177.258 59.375 175.125 C58.157 172.488 57.518 171.271 54.918 169.91 C52.625 169.207 50.321 168.601 48 168 C44.572 166.395 43.353 165.723 41.688 162.312 C41.461 161.549 41.234 160.786 41 160 C40.34 160 39.68 160 39 160 C37.182 157.934 35.487 155.866 33.812 153.688 C33.319 153.05 32.825 152.413 32.316 151.757 C26.862 144.637 22.159 137.259 18 129.312 C15.686 124.973 13.074 121.549 9.715 117.977 C7.874 115.855 6.508 113.655 5.062 111.25 C3.017 108.046 1.579 106.503 -1.938 105.062 C-10.196 101.58 -14.734 90.889 -18 83 C-19.03 79.221 -19.67 75.433 -20.25 71.562 C-20.41 70.603 -20.57 69.643 -20.734 68.654 C-22.557 57.379 -23.181 46.291 -23.188 34.875 C-23.2 33.665 -23.212 32.454 -23.225 31.207 C-23.24 21.476 -22.998 11.485 -16 4 C-11.093 0.551 -5.873 -2.554 0 0 Z " fill="#B3BEC4" transform="translate(202,104)"/>
<path d="M0 0 C6.837 4.807 12.76 11.525 18 18 C18 18.66 18 19.32 18 20 C18.66 20 19.32 20 20 20 C21.281 21.589 21.281 21.589 22.715 23.797 C23.236 24.591 23.758 25.385 24.295 26.203 C24.837 27.044 25.379 27.884 25.938 28.75 C27.008 30.391 28.08 32.032 29.152 33.672 C29.627 34.405 30.101 35.138 30.59 35.894 C32 38 32 38 33.678 40.146 C35 42 35 42 35 44 C35.99 44 36.98 44 38 44 C38 44.66 38 45.32 38 46 C36.02 46 34.04 46 32 46 C31.67 47.65 31.34 49.3 31 51 C30.67 51 30.34 51 30 51 C29.943 49.683 29.887 48.365 29.828 47.008 C29.21 41.551 27.017 38.181 23.75 33.875 C23.22 33.153 22.69 32.431 22.144 31.687 C18.312 26.545 14.284 21.567 10.125 16.688 C9.603 16.072 9.08 15.456 8.542 14.822 C4.519 10.239 0.6 6.604 -5.5 5.188 C-9.609 6.141 -10.027 6.875 -12.312 10.25 C-13.244 11.812 -14.142 13.396 -15 15 C-15.174 15.292 -15.174 15.292 -16.056 16.771 C-18.082 21.553 -17.413 27.135 -17.438 32.25 C-17.47 33.453 -17.503 34.655 -17.537 35.895 C-17.582 43.399 -16.8 48.162 -12 54 C-11.464 54.804 -10.928 55.609 -10.375 56.438 C-9 58 -9 58 -6 59 C-6.598 57.948 -7.196 56.896 -7.812 55.812 C-8.175 55.169 -8.537 54.526 -8.91 53.863 C-10 52 -10 52 -11.75 49.5 C-13.386 46.229 -13.212 43.605 -13 40 C-10.084 42.625 -8.134 45.729 -6 49 C-4.124 50.876 -1.418 50.137 1.084 50.189 C9.111 50.386 14.618 50.682 21 56 C21.33 56.165 21.33 56.165 23 57 C23 58.98 23 60.96 23 63 C19.082 65.278 15.689 65.316 11.242 65.461 C9 66 9 66 7.715 67.879 C6.846 70.456 6.654 72.298 7 75 C8.5 76.625 8.5 76.625 10 78 C10 78.99 10 79.98 10 81 C9.34 81.165 9.34 81.165 6 82 C7.812 82.194 9.624 82.38 11.438 82.562 C11.942 82.615 11.942 82.615 14.496 82.879 C14.909 82.899 14.909 82.899 17 83 C17.33 82.67 17.66 82.34 18 82 C21.489 81.806 24.602 82.223 28 83 C29.148 80.704 29.308 78.923 29.562 76.375 C29.646 75.558 29.73 74.74 29.816 73.898 C29.847 73.585 29.847 73.585 30 72 C31.875 71.375 31.875 71.375 34 71 C34.33 71.33 34.33 71.33 36 73 C41.455 72.545 41.455 72.545 44 70 C46.125 70.375 46.125 70.375 48 71 C47.031 71.619 46.061 72.238 45.062 72.875 C42 75 42 75 41 77 C41.315 76.789 41.315 76.789 42.906 75.723 C48.476 72.158 52.405 70.341 59 70 C60.341 69.698 61.681 69.385 63 69 C63.33 69.99 63.66 70.98 64 72 C64.66 72 65.32 72 66 72 C67.611 75.651 68.449 79.051 69 83 C68.34 83 67.68 83 67 83 C67 84.32 67 85.64 67 87 C67.99 87 68.98 87 70 87 C70.165 86.505 70.165 86.505 71 84 C74.96 84 78.92 84 83 84 C82.67 82.35 82.34 80.7 82 79 C81.936 77.397 81.914 75.792 81.938 74.188 C81.947 73.397 81.956 72.607 81.965 71.793 C81.976 71.201 81.988 70.61 82 70 C84 72 84 72 85 75 C85.33 72.36 85.66 69.72 86 67 C88.637 69.637 89.243 72.495 90.188 76 C90.369 76.67 90.55 77.339 90.737 78.03 C92.116 83.55 92.211 88.404 91 94 C91.66 94 92.32 94 93 94 C93.99 95.98 94.98 97.96 96 100 C96.342 99.913 96.342 99.913 98.074 99.473 C101.455 98.927 104.406 99.128 107.812 99.438 C108.974 99.539 110.135 99.641 111.332 99.746 C111.772 99.788 111.772 99.788 114 100 C114.33 100.99 114.66 101.98 115 103 C117.468 101.848 119.048 100.952 121 99 C123.625 98.875 123.625 98.875 126 99 C125.423 99.227 124.845 99.454 124.25 99.688 C121.404 101.348 120.002 103.392 118 106 C115.621 108.438 113.192 110.813 110.75 113.188 C107.606 116.444 107.72 119.375 107.379 123.711 C106.978 126.136 106.201 127.87 105 130 C104.134 129.691 103.267 129.381 102.375 129.062 C99.179 128.056 96.345 127.223 93 127 C90.639 128.686 89.635 130.548 88 133 C83.082 134.32 78.054 134.101 73 134 C72.746 133.408 72.492 132.817 72.23 132.207 C71.886 131.417 71.542 130.627 71.188 129.812 C70.851 129.035 70.515 128.258 70.168 127.457 C69 125 69 125 67.477 122.547 C65.93 119.88 65.084 117.38 64.188 114.438 C62.951 110.903 62.096 108.493 58.938 106.375 C54.297 104.203 50.112 103.156 45 104 C41.938 105.938 41.938 105.938 40 109 C39.621 112.225 39.975 114.924 41 118 C43.565 121.24 45.087 122.696 49 124 C52.619 123.96 56.225 123.875 59.84 123.697 C65.53 123.564 65.53 123.564 67.969 125.824 C69.935 129.973 70.028 133.145 70.062 137.688 C70.38 143.173 71.061 145.925 75.062 149.75 C75.796 150.343 76.529 150.936 77.285 151.547 C77.851 152.026 78.417 152.506 79 153 C79 153.66 79 154.32 79 155 C79.66 155 80.32 155 81 155 C81.082 155.619 81.165 156.238 81.25 156.875 C81.498 157.576 81.745 158.278 82 159 C82.318 159.142 82.318 159.142 83.93 159.863 C86.591 161.325 86.946 162.464 87.875 165.312 C88.702 168.179 89.023 169.827 88.625 172.812 C84.557 178.289 78.344 179.664 72 181 C72.66 181.66 73.32 182.32 74 183 C68.68 182.126 64.347 180.197 60 177 C59.505 175.969 59.01 174.938 58.5 173.875 C57 171 57 171 55.008 170.059 C53.42 169.561 51.824 169.087 50.223 168.637 C47.413 167.832 45.298 166.81 43 165 C41.688 162.312 41.688 162.312 41 160 C40.34 160 39.68 160 39 160 C37.182 157.934 35.487 155.866 33.812 153.688 C33.319 153.05 32.825 152.413 32.316 151.757 C26.862 144.637 22.159 137.259 18 129.312 C15.686 124.973 13.074 121.549 9.715 117.977 C7.874 115.855 6.508 113.655 5.062 111.25 C3.017 108.046 1.579 106.503 -1.938 105.062 C-10.196 101.58 -14.734 90.889 -18 83 C-19.03 79.221 -19.67 75.433 -20.25 71.562 C-20.41 70.603 -20.57 69.643 -20.734 68.654 C-22.557 57.379 -23.181 46.291 -23.188 34.875 C-23.2 33.665 -23.212 32.454 -23.225 31.207 C-23.24 21.476 -22.998 11.485 -16 4 C-11.093 0.551 -5.873 -2.554 0 0 Z " fill="#C9AFBB" transform="translate(202,104)"/>
<path d="M0 0 C0.33 0.165 0.33 0.165 2 1 C3.691 18.071 1.887 29.866 -6.34 45.254 C-8.359 49.423 -9.195 53.724 -10.062 58.25 C-11.47 65.5 -13.496 71.021 -18 77 C-18.509 77.679 -19.018 78.359 -19.543 79.059 C-20.541 80.374 -21.546 81.684 -22.559 82.988 C-24.116 85.162 -25.367 87.392 -26.625 89.75 C-28.391 93.017 -29.962 95.746 -33 98 C-34.32 98 -35.64 98 -37 98 C-37.17 98.617 -37.34 99.235 -37.516 99.871 C-41.016 112.104 -46.398 122.589 -54.625 132.375 C-58.184 136.806 -59.854 141.475 -61.77 146.781 C-64.841 154.817 -68.482 160.346 -75.754 165.039 C-78.329 166.141 -80.227 166.185 -83 166 C-83.248 166.598 -83.495 167.196 -83.75 167.812 C-85.222 170.389 -86.485 171.436 -89 173 C-97.122 174.557 -103.11 172.04 -110 168 C-111.203 167.385 -112.41 166.779 -113.625 166.188 C-114.409 165.796 -115.192 165.404 -116 165 C-116 164.34 -116 163.68 -116 163 C-116.99 162.67 -117.98 162.34 -119 162 C-116 161 -116 161 -113.957 161.777 C-113.249 162.16 -112.542 162.543 -111.812 162.938 C-111.455 163.128 -111.455 163.128 -109.645 164.09 C-109.102 164.39 -108.559 164.691 -108 165 C-108.33 164.34 -108.66 163.68 -109 163 C-108.632 162.909 -108.632 162.909 -106.77 162.449 C-95.961 159.665 -95.961 159.665 -93 157 C-91.605 153.163 -91.93 151.23 -93.125 147.312 C-95.095 143.833 -96.421 142.644 -100 141 C-99.67 140.01 -99.34 139.02 -99 138 C-99.66 138 -100.32 138 -101 138 C-102.656 136.32 -102.656 136.32 -104.5 134.125 C-106.289 132.01 -108.04 129.96 -110 128 C-110.352 124.525 -110.443 121.069 -110.559 117.578 C-111.026 113.788 -112.109 111.289 -114 108 C-114.585 108.017 -114.585 108.017 -117.543 108.105 C-119.091 108.134 -120.639 108.161 -122.188 108.188 C-122.956 108.213 -123.725 108.238 -124.518 108.264 C-129.236 108.324 -132.112 107.958 -136 105 C-136.743 104.464 -137.485 103.928 -138.25 103.375 C-140.853 99.843 -141.349 96.346 -141 92 C-139.235 89.079 -138.042 87.521 -135 86 C-128.702 85.457 -124.202 86.27 -119 90 C-115.893 93.695 -114.348 97.495 -112.789 101.984 C-111.987 104.034 -111.012 105.806 -109.875 107.688 C-108.207 110.635 -107.402 112.682 -107 116 C-95.945 116.221 -95.945 116.221 -92 115 C-91.505 114.175 -91.01 113.35 -90.5 112.5 C-89 110 -89 110 -86.312 108.938 C-81.825 109.022 -78.806 110.749 -75 113 C-74.902 112.131 -74.804 111.262 -74.703 110.367 C-73.165 98.512 -73.165 98.512 -69 94 C-67.012 92.648 -65.013 91.313 -63 90 C-61.812 87.938 -61.812 87.938 -61 86 C-58.892 83.413 -57.282 82.566 -54 82 C-53.67 80.02 -53.34 78.04 -53 76 C-48 79.834 -44.742 83.296 -42 89 C-42 89.66 -42 90.32 -42 91 C-41.34 91 -40.68 91 -40 91 C-39.67 91.99 -39.34 92.98 -39 94 C-36.071 93.668 -34.438 93.431 -32.302 91.329 C-31.81 90.619 -31.317 89.908 -30.809 89.176 C-30.256 88.394 -29.704 87.612 -29.135 86.807 C-28.575 85.984 -28.015 85.161 -27.438 84.312 C-26.874 83.509 -26.31 82.705 -25.729 81.877 C-24.134 79.597 -22.566 77.3 -21 75 C-20.588 74.417 -20.176 73.834 -19.751 73.233 C-17.789 70.421 -16.446 67.991 -15.75 64.625 C-15.626 64.027 -15.626 64.027 -15 61 C-15.99 61.66 -16.98 62.32 -18 63 C-20.688 63.125 -20.688 63.125 -23 63 C-23 62.01 -23 61.02 -23 60 C-22.693 59.885 -22.693 59.885 -21.137 59.301 C-14.639 56.679 -14.639 56.679 -12 53.875 C-10.533 49.658 -10.25 45.439 -10 41 C-13.265 42.804 -14.889 43.834 -17 47 C-18.805 47.879 -18.805 47.879 -20.875 48.562 C-21.588 48.813 -22.301 49.063 -23.035 49.32 C-23.684 49.545 -24.332 49.769 -25 50 C-28.48 51.411 -29.797 52.997 -32 56 C-32.66 56 -33.32 56 -34 56 C-34.094 56.593 -34.188 57.186 -34.285 57.797 C-35.159 60.491 -36.267 61.463 -38.438 63.25 C-39.055 63.771 -39.672 64.292 -40.309 64.828 C-42 66 -42 66 -44 66 C-44.031 66.392 -44.031 66.392 -44.188 68.375 C-44.322 68.808 -44.322 68.808 -45 71 C-47.562 72.312 -47.562 72.312 -50 73 C-50.577 72.34 -51.155 71.68 -51.75 71 C-54 69 -54 69 -58 69 C-58.433 67.969 -58.866 66.938 -59.312 65.875 C-60.353 63.428 -61.459 61.117 -62.688 58.75 C-64 56 -64 56 -64 53 C-62.21 52.329 -60.418 51.664 -58.625 51 C-57.627 50.629 -56.63 50.257 -55.602 49.875 C-53 49 -53 49 -51 49 C-50.732 48.267 -50.464 47.533 -50.188 46.777 C-46.843 38.955 -41.689 34.535 -34.379 30.539 C-30.661 28.134 -28.052 24.912 -26 21 C-26 20.01 -26 19.02 -26 18 C-26.66 17.67 -27.32 17.34 -28 17 C-27.166 16.359 -26.332 15.719 -25.473 15.059 C-25.202 14.851 -25.202 14.851 -23.834 13.798 C-22.647 12.887 -21.459 11.977 -20.269 11.069 C-17.585 9.015 -14.937 6.947 -12.344 4.777 C-5.361 -1.046 -5.361 -1.046 0 0 Z " fill="#AA94A3" transform="translate(382,121)"/>
<path d="M0 0 C6.837 4.807 12.76 11.525 18 18 C18 18.66 18 19.32 18 20 C18.66 20 19.32 20 20 20 C21.281 21.589 21.281 21.589 22.715 23.797 C23.236 24.591 23.758 25.385 24.295 26.203 C24.837 27.044 25.379 27.884 25.938 28.75 C27.008 30.391 28.08 32.032 29.152 33.672 C29.627 34.405 30.101 35.138 30.59 35.894 C32 38 32 38 33.678 40.146 C35 42 35 42 35 44 C35.99 44 36.98 44 38 44 C38 44.66 38 45.32 38 46 C36.02 46 34.04 46 32 46 C31.67 47.65 31.34 49.3 31 51 C30.67 51 30.34 51 30 51 C29.943 49.683 29.887 48.365 29.828 47.008 C29.21 41.551 27.017 38.181 23.75 33.875 C23.22 33.153 22.69 32.431 22.144 31.687 C18.312 26.545 14.284 21.567 10.125 16.688 C9.603 16.072 9.08 15.456 8.542 14.822 C4.519 10.239 0.6 6.604 -5.5 5.188 C-9.609 6.141 -10.027 6.875 -12.312 10.25 C-13.244 11.812 -14.142 13.396 -15 15 C-15.174 15.292 -15.174 15.292 -16.056 16.771 C-18.082 21.553 -17.413 27.135 -17.438 32.25 C-17.47 33.453 -17.503 34.655 -17.537 35.895 C-17.582 43.399 -16.8 48.162 -12 54 C-11.464 54.804 -10.928 55.609 -10.375 56.438 C-9 58 -9 58 -6 59 C-6.598 57.948 -7.196 56.896 -7.812 55.812 C-8.175 55.169 -8.537 54.526 -8.91 53.863 C-10 52 -10 52 -11.75 49.5 C-13.386 46.229 -13.212 43.605 -13 40 C-10.084 42.625 -8.134 45.729 -6 49 C-4.124 50.876 -1.418 50.137 1.084 50.189 C9.111 50.386 14.618 50.682 21 56 C21.33 56.165 21.33 56.165 23 57 C23 58.98 23 60.96 23 63 C19.082 65.278 15.689 65.316 11.242 65.461 C9 66 9 66 7.715 67.879 C6.846 70.456 6.654 72.298 7 75 C8.5 76.625 8.5 76.625 10 78 C10 78.99 10 79.98 10 81 C9.34 81.165 9.34 81.165 6 82 C7.812 82.194 9.624 82.38 11.438 82.562 C11.942 82.615 11.942 82.615 14.496 82.879 C14.909 82.899 14.909 82.899 17 83 C17.33 82.67 17.66 82.34 18 82 C21.489 81.806 24.602 82.223 28 83 C29.148 80.704 29.308 78.923 29.562 76.375 C29.646 75.558 29.73 74.74 29.816 73.898 C29.847 73.585 29.847 73.585 30 72 C31.875 71.375 31.875 71.375 34 71 C34.33 71.33 34.33 71.33 36 73 C41.455 72.545 41.455 72.545 44 70 C46.125 70.375 46.125 70.375 48 71 C47.031 71.619 46.061 72.238 45.062 72.875 C42 75 42 75 41 77 C41.315 76.789 41.315 76.789 42.906 75.723 C48.476 72.158 52.405 70.341 59 70 C60.341 69.698 61.681 69.385 63 69 C63.33 69.99 63.66 70.98 64 72 C64.66 72 65.32 72 66 72 C67.611 75.651 68.449 79.051 69 83 C68.34 83 67.68 83 67 83 C67.165 84.155 67.165 84.155 68 90 C67.261 90.063 66.523 90.126 65.762 90.191 C56.396 91.322 50.139 94.953 42.812 100.723 C41 102 41 102 39 102 C40.527 98.564 42.599 95.881 45 93 C38.184 94.132 30.119 97.214 25.828 102.91 C23.836 107.937 24.08 113.658 24 119 C21.333 118.333 18.667 117.667 16 117 C16 118.32 16 119.64 16 121 C12.292 120.446 10.819 119.084 8.438 116.25 C7.826 115.528 7.215 114.806 6.586 114.062 C5 112 5 112 3.562 109.25 C1.815 106.734 0.994 106.451 -1.75 105.312 C-10.081 101.506 -14.643 91.108 -18 83 C-19.03 79.221 -19.67 75.433 -20.25 71.562 C-20.41 70.603 -20.57 69.643 -20.734 68.654 C-22.557 57.379 -23.181 46.291 -23.188 34.875 C-23.2 33.665 -23.212 32.454 -23.225 31.207 C-23.24 21.476 -22.998 11.485 -16 4 C-11.093 0.551 -5.873 -2.554 0 0 Z " fill="#D5C7D0" transform="translate(202,104)"/>
<path d="M0 0 C9.893 1.174 16.484 11.39 22.344 18.73 C24.851 21.924 27.28 25.168 29.688 28.438 C30.323 29.3 30.959 30.162 31.613 31.051 C34.495 35.144 36.423 38.283 36.688 43.438 C36.852 43.108 36.852 43.108 37.688 41.438 C39.754 41.023 39.754 41.023 42.25 40.812 C43.076 40.738 43.903 40.663 44.754 40.586 C45.392 40.537 46.03 40.488 46.688 40.438 C47.017 41.097 47.347 41.757 47.688 42.438 C46.368 42.438 45.048 42.438 43.688 42.438 C44.735 43.762 45.801 45.072 46.875 46.375 C47.467 47.106 48.058 47.837 48.668 48.59 C51.036 50.756 52.572 50.961 55.688 51.438 C56.286 52.056 56.884 52.675 57.5 53.312 C60.145 55.882 62.484 56.545 65.98 57.531 C67.688 58.438 67.688 58.438 68.508 60.398 C68.688 62.438 68.688 62.438 67.375 64.562 C64.018 66.905 61.151 67.22 57.164 67.867 C53.657 68.675 51.543 70.296 48.688 72.438 C48.028 72.438 47.368 72.438 46.688 72.438 C47.933 68.701 49.322 68.25 52.688 66.438 C49.726 67.05 48.307 67.691 45.688 69.438 C43.25 69.125 43.25 69.125 40.688 68.438 C39.355 68.102 38.021 67.769 36.688 67.438 C36.639 68.052 36.59 68.667 36.539 69.301 C36.464 70.109 36.39 70.917 36.312 71.75 C36.243 72.551 36.173 73.351 36.102 74.176 C35.688 76.438 35.688 76.438 33.688 79.438 C33.332 79.396 33.332 79.396 31.535 79.184 C30.616 79.082 29.697 78.98 28.75 78.875 C27.833 78.771 26.917 78.666 25.973 78.559 C25.219 78.519 24.464 78.479 23.688 78.438 C23.358 78.767 23.028 79.097 22.688 79.438 C20.852 79.4 19.017 79.283 17.188 79.125 C16.187 79.046 15.187 78.968 14.156 78.887 C13.749 78.813 13.749 78.813 11.688 78.438 C11.523 78.108 11.523 78.108 10.688 76.438 C12.338 76.438 13.988 76.438 15.688 76.438 C12.812 71.562 12.812 71.562 11.688 70.438 C12.291 62.834 12.291 62.834 14.688 60.438 C16.93 60.059 16.93 60.059 19.562 59.875 C22.723 59.644 25.633 59.297 28.688 58.438 C28.688 56.458 28.688 54.477 28.688 52.438 C27.78 52.169 26.873 51.901 25.938 51.625 C22.688 50.438 22.688 50.438 21.043 48.883 C16.92 46.353 12.057 47.078 7.33 47.174 C1.5 47.082 1.5 47.082 -0.947 45.141 C-3.177 42.501 -4.966 39.619 -6.312 36.438 C-7.027 41.08 -5.899 43.41 -3.312 47.125 C-2.756 47.871 -2.199 48.618 -1.625 49.387 C-0.312 51.438 -0.312 51.438 -0.312 54.438 C-2.928 54.058 -4.092 53.668 -5.945 51.73 C-6.438 51.036 -6.93 50.341 -7.438 49.625 C-7.935 48.938 -8.433 48.251 -8.945 47.543 C-13.024 41.262 -12.749 35.754 -12.812 28.375 C-12.854 27.197 -12.895 26.02 -12.938 24.807 C-13.019 15.551 -10.817 8.799 -4.822 1.664 C-3.312 0.438 -3.312 0.438 0 0 Z " fill="#B096A6" transform="translate(196.3125,108.5625)"/>
<path d="M0 0 C2.637 2.637 3.243 5.495 4.188 9 C4.369 9.67 4.55 10.339 4.737 11.03 C6.116 16.55 6.211 21.404 5 27 C5.66 27 6.32 27 7 27 C7.99 28.98 8.98 30.96 10 33 C10.684 32.826 11.369 32.652 12.074 32.473 C15.455 31.927 18.406 32.128 21.812 32.438 C22.974 32.539 24.135 32.641 25.332 32.746 C26.212 32.83 27.093 32.914 28 33 C28.33 33.99 28.66 34.98 29 36 C31.468 34.848 33.048 33.952 35 32 C37.625 31.875 37.625 31.875 40 32 C39.711 32.113 39.711 32.113 38.25 32.688 C35.404 34.348 34.002 36.392 32 39 C29.621 41.438 27.192 43.813 24.75 46.188 C21.606 49.444 21.72 52.375 21.379 56.711 C20.978 59.136 20.201 60.87 19 63 C18.134 62.691 17.267 62.381 16.375 62.062 C13.179 61.056 10.345 60.223 7 60 C4.639 61.686 3.635 63.548 2 66 C-2.918 67.32 -7.946 67.101 -13 67 C-13.254 66.408 -13.508 65.817 -13.77 65.207 C-14.114 64.417 -14.458 63.627 -14.812 62.812 C-15.149 62.035 -15.485 61.258 -15.832 60.457 C-17 58 -17 58 -18.523 55.547 C-20.07 52.88 -20.916 50.38 -21.812 47.438 C-23.049 43.903 -23.904 41.493 -27.062 39.375 C-31.681 37.213 -35.912 36.099 -41 37 C-43.392 38.44 -45.003 40.003 -47 42 C-46.582 37.121 -44.551 35.22 -41 32 C-40.443 31.34 -39.886 30.68 -39.312 30 C-34.281 25.648 -28.61 22.677 -21.875 22.688 C-20.596 22.791 -19.317 22.894 -18 23 C-18 22.01 -18 21.02 -18 20 C-17.34 20 -16.68 20 -16 20 C-15.67 19.01 -15.34 18.02 -15 17 C-11.04 17 -7.08 17 -3 17 C-3.165 16.175 -3.165 16.175 -4 12 C-4.064 10.397 -4.086 8.792 -4.062 7.188 C-4.053 6.397 -4.044 5.607 -4.035 4.793 C-4.024 4.201 -4.012 3.61 -4 3 C-2 5 -2 5 -1 8 C-0.67 5.36 -0.34 2.72 0 0 Z " fill="#C7BBAF" transform="translate(288,171)"/>
<path d="M0 0 C0.33 0.165 0.33 0.165 2 1 C2.165 4.135 2.165 4.135 3 20 C2.34 20 1.68 20 1 20 C0.835 19.34 0.835 19.34 0 16 C-0.098 16.629 -0.196 17.258 -0.297 17.906 C-1.351 23.942 -3.025 28.644 -6 34 C-6.33 34 -6.66 34 -7 34 C-7 30.7 -7 27.4 -7 24 C-8.32 24 -9.64 24 -11 24 C-12.834 26.371 -14.39 28.64 -15.938 31.188 C-20.303 38.238 -23.852 43.796 -32.188 46.312 C-32.71 46.476 -32.71 46.476 -35.355 47.301 C-38 48 -38 48 -40 48 C-40.134 48.299 -40.134 48.299 -40.812 49.812 C-42 52 -42 52 -43.539 53.352 C-45.413 55.466 -45.42 56.775 -45.562 59.562 C-45.792 63.792 -45.792 63.792 -48 66 C-48 66.99 -48 67.98 -48 69 C-47.34 68.835 -47.34 68.835 -44 68 C-44.33 68.99 -44.66 69.98 -45 71 C-47.562 72.188 -47.562 72.188 -50 73 C-50.577 72.34 -51.155 71.68 -51.75 71 C-54 69 -54 69 -58 69 C-58.433 67.969 -58.866 66.938 -59.312 65.875 C-60.353 63.428 -61.459 61.117 -62.688 58.75 C-64 56 -64 56 -64 53 C-62.21 52.329 -60.418 51.664 -58.625 51 C-57.627 50.629 -56.63 50.257 -55.602 49.875 C-53 49 -53 49 -51 49 C-50.732 48.267 -50.464 47.533 -50.188 46.777 C-46.843 38.955 -41.689 34.535 -34.379 30.539 C-30.661 28.134 -28.052 24.912 -26 21 C-26 20.01 -26 19.02 -26 18 C-26.66 17.67 -27.32 17.34 -28 17 C-27.166 16.359 -26.332 15.719 -25.473 15.059 C-25.202 14.851 -25.202 14.851 -23.834 13.798 C-22.647 12.887 -21.459 11.977 -20.269 11.069 C-17.585 9.015 -14.937 6.947 -12.344 4.777 C-5.361 -1.046 -5.361 -1.046 0 0 Z " fill="#7B6D70" transform="translate(382,121)"/>
<path d="M0 0 C5.466 2.467 8.345 5.561 10.598 11.234 C11.092 12.586 11.575 13.941 12.047 15.301 C12.849 17.35 13.824 19.122 14.961 21.004 C16.629 23.951 17.434 25.999 17.836 29.316 C28.891 29.538 28.891 29.538 32.836 28.316 C33.331 27.491 33.826 26.666 34.336 25.816 C35.836 23.316 35.836 23.316 38.523 22.254 C41.894 22.317 43.146 22.796 46.043 24.32 C46.756 24.691 47.468 25.062 48.202 25.444 C48.741 25.732 49.281 26.02 49.836 26.316 C49.698 30.442 49.549 34.567 49.398 38.691 C49.359 39.867 49.32 41.043 49.279 42.254 C49.237 43.375 49.196 44.497 49.152 45.652 C49.116 46.689 49.079 47.726 49.041 48.794 C48.836 51.316 48.836 51.316 47.836 53.316 C45.69 53.343 43.544 53.363 41.398 53.379 C40.203 53.391 39.009 53.402 37.777 53.414 C34.836 53.316 34.836 53.316 33.836 52.316 C32.598 52.399 31.361 52.481 30.086 52.566 C26.625 52.603 26.052 52.491 23.211 50.191 C22.427 49.243 21.643 48.294 20.836 47.316 C20.307 46.928 19.779 46.54 19.234 46.141 C16.031 43.689 14.955 42.104 14.34 38.031 C14.215 35.608 14.145 33.181 14.137 30.754 C13.805 26.968 12.723 24.583 10.836 21.316 C10.251 21.334 10.251 21.334 7.293 21.422 C5.745 21.45 4.197 21.477 2.648 21.504 C1.88 21.529 1.111 21.554 0.318 21.58 C-4.4 21.641 -7.276 21.275 -11.164 18.316 C-11.907 17.78 -12.649 17.244 -13.414 16.691 C-16.017 13.159 -16.513 9.663 -16.164 5.316 C-12.302 -1.076 -6.969 -2.202 0 0 Z " fill="#BEA79A" transform="translate(257.1640625,207.68359375)"/>
<path d="M0 0 C-4.793 5.829 -4.793 5.829 -6.672 7.379 C-8.561 9.685 -8.167 11.198 -7.938 14.125 C-7.782 20.038 -9.144 23.896 -12 29 C-12.362 29.713 -12.724 30.426 -13.098 31.16 C-15.983 36.392 -19.478 39.629 -25 42 C-28 42.312 -28 42.312 -30 42 C-30.248 42.598 -30.495 43.196 -30.75 43.812 C-32.222 46.389 -33.485 47.436 -36 49 C-44.122 50.557 -50.11 48.04 -57 44 C-58.203 43.385 -59.41 42.779 -60.625 42.188 C-61.409 41.796 -62.192 41.404 -63 41 C-63 40.34 -63 39.68 -63 39 C-63.99 38.67 -64.98 38.34 -66 38 C-63 37 -63 37 -60.957 37.777 C-60.603 37.969 -60.603 37.969 -58.812 38.938 C-58.455 39.128 -58.455 39.128 -56.645 40.09 C-56.102 40.39 -55.559 40.691 -55 41 C-55.33 40.34 -55.66 39.68 -56 39 C-55.264 38.818 -54.528 38.636 -53.77 38.449 C-42.961 35.665 -42.961 35.665 -40 33 C-38.605 29.163 -38.93 27.23 -40.125 23.312 C-42.095 19.833 -43.421 18.644 -47 17 C-45.875 15.5 -45.875 15.5 -44 14 C-40.875 13.75 -40.875 13.75 -38 14 C-37.67 14.33 -37.34 14.66 -37 15 C-34.282 15.073 -31.577 14.996 -28.859 14.938 C-26.11 14.998 -23.672 15.376 -21 16 C-20.59 15.495 -20.18 14.989 -19.758 14.469 C-19.219 13.819 -18.68 13.169 -18.125 12.5 C-17.591 11.85 -17.058 11.201 -16.508 10.531 C-16.01 10.026 -15.513 9.521 -15 9 C-14.34 9 -13.68 9 -13 9 C-12.773 8.257 -12.546 7.515 -12.312 6.75 C-9.798 1.481 -5.663 -1.699 0 0 Z " fill="#AE95A3" transform="translate(329,245)"/>
<path d="M0 0 C-1.32 0.33 -2.64 0.66 -4 1 C-2.953 2.325 -1.887 3.634 -0.812 4.938 C-0.221 5.668 0.371 6.399 0.98 7.152 C3.348 9.319 4.885 9.524 8 10 C8.598 10.619 9.196 11.238 9.812 11.875 C12.458 14.445 14.796 15.108 18.293 16.094 C20 17 20 17 20.82 18.961 C21 21 21 21 19.688 23.125 C16.33 25.467 13.464 25.783 9.477 26.43 C5.969 27.237 3.856 28.858 1 31 C0.34 31 -0.32 31 -1 31 C0.245 27.264 1.634 26.812 5 25 C2.038 25.613 0.619 26.254 -2 28 C-4.438 27.688 -4.438 27.688 -7 27 C-8.333 26.665 -9.666 26.331 -11 26 C-11.049 26.615 -11.098 27.23 -11.148 27.863 C-11.223 28.672 -11.298 29.48 -11.375 30.312 C-11.445 31.113 -11.514 31.914 -11.586 32.738 C-12 35 -12 35 -14 38 C-14.71 37.916 -15.421 37.832 -16.152 37.746 C-17.071 37.644 -17.991 37.542 -18.938 37.438 C-19.854 37.333 -20.771 37.229 -21.715 37.121 C-22.469 37.081 -23.223 37.041 -24 37 C-24.165 37.165 -24.165 37.165 -25 38 C-26.836 37.962 -28.671 37.845 -30.5 37.688 C-31.5 37.609 -32.501 37.53 -33.531 37.449 C-34.346 37.301 -35.161 37.153 -36 37 C-36.33 36.34 -36.66 35.68 -37 35 C-35.35 35 -33.7 35 -32 35 C-34.875 30.125 -34.875 30.125 -36 29 C-35.397 21.397 -35.397 21.397 -33 19 C-30.723 18.621 -30.723 18.621 -28.062 18.438 C-25.089 18.223 -22.849 17.95 -20 17 C-18.68 17.33 -17.36 17.66 -16 18 C-16.33 13.05 -16.66 8.1 -17 3 C-15.35 3.66 -13.7 4.32 -12 5 C-11.897 4.598 -11.897 4.598 -11.375 2.562 C-10 0 -10 0 -7.125 -0.875 C-4.414 -0.983 -2.537 -0.878 0 0 Z " fill="#C6AEBA" transform="translate(244,150)"/>
<path d="M0 0 C0.66 0.33 1.32 0.66 2 1 C2 1.66 2 2.32 2 3 C2.66 3 3.32 3 4 3 C5.611 6.651 6.449 10.051 7 14 C6.34 14 5.68 14 5 14 C5.165 15.155 5.165 15.155 6 21 C5.631 21.032 5.631 21.032 3.762 21.191 C-5.604 22.322 -11.861 25.953 -19.188 31.723 C-21 33 -21 33 -23 33 C-21.473 29.564 -19.401 26.881 -17 24 C-20.802 24.601 -23.779 25.726 -27.188 27.5 C-28.047 27.943 -28.907 28.387 -29.793 28.844 C-30.521 29.225 -31.25 29.607 -32 30 C-34 31 -34 31 -36.75 30.812 C-40.838 31.048 -42.738 32.628 -46 35 C-46.66 35 -47.32 35 -48 35 C-48 34.34 -48 33.68 -48 33 C-49.98 33 -51.96 33 -54 33 C-53.387 30.038 -52.746 28.619 -51 26 C-48.977 24.938 -48.977 24.938 -46.625 24 C-43.356 22.635 -40.801 21.179 -38 19 C-37.368 18.885 -36.737 18.771 -36.086 18.652 C-33.346 17.795 -32.577 16.575 -30.938 14.25 C-30.421 13.529 -29.904 12.809 -29.371 12.066 C-28 10 -28 10 -26.5 7.188 C-23.947 3.465 -20.396 2.334 -16.125 1.312 C-15.424 1.209 -14.722 1.106 -14 1 C-16.333 3.333 -18.667 5.667 -21 8 C-20.371 7.578 -19.742 7.157 -19.094 6.723 C-13.53 3.162 -9.589 1.347 -3 1 C-2.01 0.67 -1.02 0.34 0 0 Z " fill="#D5C6D0" transform="translate(264,173)"/>
<path d="M0 0 C1.28 2.559 0.72 3.284 0 6 C-1.102 16.173 0.697 26.374 7.02 34.641 C11.316 39.065 16.14 42.814 21.152 46.395 C25.933 50.548 26.176 57.05 27 63 C27.125 66.688 27.125 66.688 27 69 C21.344 69.552 18.514 68.212 14 65 C12.562 62.25 12.562 62.25 12 60 C11.34 60 10.68 60 10 60 C8.182 57.934 6.487 55.866 4.812 53.688 C4.319 53.05 3.825 52.413 3.316 51.757 C-3.751 42.532 -11.299 32.103 -15 21 C-14.34 21 -13.68 21 -13 21 C-13 19.68 -13 18.36 -13 17 C-10.237 17.523 -7.674 18.109 -5 19 C-5.029 18.524 -5.029 18.524 -5.176 16.113 C-5.54 5.991 -5.54 5.991 -3.887 2.957 C-2.5 1.625 -2.5 1.625 0 0 Z " fill="#AD94A2" transform="translate(231,204)"/>
<path d="M0 0 C2.916 2.625 4.866 5.729 7 9 C8.876 10.876 11.582 10.137 14.084 10.189 C22.111 10.386 27.618 10.682 34 16 C34.66 16.33 35.32 16.66 36 17 C36 18.98 36 20.96 36 23 C32.082 25.278 28.689 25.316 24.242 25.461 C22 26 22 26 20.715 27.879 C19.846 30.456 19.654 32.298 20 35 C21.5 36.625 21.5 36.625 23 38 C23 38.99 23 39.98 23 41 C22.34 41.165 22.34 41.165 19 42 C22.63 42.66 26.26 43.32 30 44 C29.67 44.99 29.34 45.98 29 47 C28.257 46.979 27.515 46.959 26.75 46.938 C24 48 24 48 22.777 50.07 C21.777 52.359 20.849 54.651 20 57 C17.69 57 15.38 57 13 57 C9.149 49.89 6.338 43.2 8 35 C9.406 33.188 9.406 33.188 11 32 C11.66 32 12.32 32 13 32 C10.043 23.824 6.079 16.704 1.328 9.445 C-0.432 6.204 -0.213 3.628 0 0 Z " fill="#C8B0BC" transform="translate(189,144)"/>
<path d="M0 0 C0.33 0 0.66 0 1 0 C3.032 12.259 0.194 24.689 -7 35 C-9.156 36.27 -9.156 36.27 -11 37 C-10.67 34.36 -10.34 31.72 -10 29 C-13.265 30.804 -14.889 31.834 -17 35 C-18.805 35.879 -18.805 35.879 -20.875 36.562 C-21.588 36.813 -22.301 37.063 -23.035 37.32 C-23.684 37.545 -24.332 37.769 -25 38 C-28.48 39.411 -29.797 40.997 -32 44 C-32.66 44 -33.32 44 -34 44 C-34.094 44.593 -34.188 45.186 -34.285 45.797 C-35.159 48.491 -36.267 49.463 -38.438 51.25 C-39.055 51.771 -39.672 52.292 -40.309 52.828 C-42 54 -42 54 -44 54 C-44 54.66 -44 55.32 -44 56 C-45.65 56.66 -47.3 57.32 -49 58 C-48.125 53.125 -48.125 53.125 -47 52 C-46.92 50.626 -46.861 49.251 -46.812 47.875 C-46.309 43.469 -45.251 40.776 -42.203 37.543 C-39.314 35.52 -36.417 34.637 -33.062 33.562 C-26.198 31.329 -22.952 28.943 -19 23 C-18.277 21.949 -17.554 20.899 -16.809 19.816 C-14.826 16.907 -12.901 13.963 -11 11 C-10.175 11.165 -10.175 11.165 -6 12 C-6 14.64 -6 17.28 -6 20 C-2.676 13.465 -1.029 7.246 0 0 Z " fill="#AD96A3" transform="translate(382,133)"/>
<path d="M0 0 C1.32 0.66 2.64 1.32 4 2 C3.781 8.891 2.371 12.702 -1.723 18.25 C-3 20 -3 20 -3 21 C2.185 16.088 4.038 13.055 5 6 C7.279 7.709 7.946 8.752 8.562 11.562 C7.349 18.976 1.75 27.14 -4 32 C-6.035 32.927 -8.061 33.605 -10.191 34.277 C-13.088 35.435 -14.257 37.47 -16 40 C-17.148 41.411 -18.316 42.806 -19.5 44.188 C-20.067 44.862 -20.634 45.536 -21.219 46.23 C-23.042 48.042 -24.651 48.995 -27 50 C-26.839 49.444 -26.677 48.889 -26.511 48.316 C-25.955 45.798 -25.857 43.515 -25.824 40.938 C-25.8 39.976 -25.777 39.014 -25.752 38.023 C-25.709 36.008 -25.678 33.992 -25.658 31.977 C-25.449 24.703 -25.449 24.703 -23.332 21.387 C-20.506 19.706 -18.258 19.224 -15 18.812 C-7.371 17.792 -7.371 17.792 -5 17 C-3.875 15.125 -3.875 15.125 -3 13 C-2.34 12.01 -1.68 11.02 -1 10 C-0.586 7.52 -0.586 7.52 -0.375 4.812 C-0.3 3.911 -0.225 3.01 -0.148 2.082 C-0.099 1.395 -0.05 0.708 0 0 Z " fill="#C7AFBB" transform="translate(333,212)"/>
<path d="M0 0 C0.99 0 1.98 0 3 0 C3.711 1.723 3.711 1.723 4 4 C0.937 9.006 -3.218 12.863 -8.5 15.375 C-13.63 17.896 -16.159 21.798 -19.273 26.477 C-22.002 30.465 -23.921 32.242 -28.562 33.688 C-28.955 33.813 -28.955 33.813 -30.941 34.449 C-33 35 -33 35 -35 35 C-35.33 35.66 -35.66 36.32 -36 37 C-36.66 36.67 -37.32 36.34 -38 36 C-38 34.35 -38 32.7 -38 31 C-38.66 31 -39.32 31 -40 31 C-40 30.01 -40 29.02 -40 28 C-41.258 28.103 -42.516 28.206 -43.812 28.312 C-46.02 28.332 -46.02 28.332 -48 28 C-50 25.5 -50 25.5 -51 23 C-47 23 -47 23 -45.062 24.062 C-42.27 25.332 -40.924 24.846 -38 24 C-35.789 22.512 -35.789 22.512 -33.625 20.688 C-28.637 16.654 -23.754 13.714 -17.812 11.25 C-11.651 8.6 -4.768 4.768 0 0 Z " fill="#C7B0BB" transform="translate(353,139)"/>
<path d="M0 0 C5.466 2.467 8.345 5.561 10.598 11.234 C11.093 12.59 11.575 13.951 12.043 15.316 C12.842 17.332 13.832 18.948 15.023 20.754 C17.269 25.168 17.231 28.473 16.836 33.316 C14.611 31.092 14.182 29.719 13.273 26.754 C11.933 22.414 11.933 22.414 10.836 21.316 C7.309 21.324 3.794 21.395 0.27 21.531 C-4.445 21.621 -7.275 21.276 -11.164 18.316 C-11.907 17.78 -12.649 17.244 -13.414 16.691 C-16.017 13.159 -16.513 9.663 -16.164 5.316 C-12.302 -1.076 -6.969 -2.202 0 0 Z " fill="#7598B6" transform="translate(257.1640625,207.68359375)"/>
<path d="M0 0 C0.33 0.33 0.66 0.66 1 1 C3.816 1.072 6.618 0.996 9.434 0.938 C12 1 12 1 14 2 C12.869 5.393 11.791 6.33 9.125 8.625 C8.426 9.236 7.728 9.847 7.008 10.477 C5 12 5 12 2 13 C2.07 16.51 2.149 19.094 4.625 21.73 C5.892 22.765 7.185 23.77 8.504 24.738 C8.998 25.155 9.491 25.571 10 26 C10 26.66 10 27.32 10 28 C9.34 28 8.68 28 8 28 C7.752 28.598 7.505 29.196 7.25 29.812 C5.778 32.389 4.515 33.436 2 35 C-6.122 36.557 -12.11 34.04 -19 30 C-20.203 29.385 -21.41 28.779 -22.625 28.188 C-23.409 27.796 -24.192 27.404 -25 27 C-25 26.34 -25 25.68 -25 25 C-25.99 24.67 -26.98 24.34 -28 24 C-25 23 -25 23 -22.957 23.777 C-22.603 23.969 -22.603 23.969 -20.812 24.938 C-20.097 25.318 -19.382 25.698 -18.645 26.09 C-18.102 26.39 -17.559 26.691 -17 27 C-17.33 26.34 -17.66 25.68 -18 25 C-17.264 24.818 -16.528 24.636 -15.77 24.449 C-4.961 21.665 -4.961 21.665 -2 19 C-0.605 15.163 -0.93 13.23 -2.125 9.312 C-4.095 5.833 -5.421 4.644 -9 3 C-6.398 -0.47 -4.168 -0.362 0 0 Z " fill="#955C5B" transform="translate(291,259)"/>
<path d="M0 0 C-1.32 0.33 -2.64 0.66 -4 1 C-2.953 2.325 -1.887 3.634 -0.812 4.938 C-0.221 5.668 0.371 6.399 0.98 7.152 C3.348 9.319 4.885 9.524 8 10 C8.299 10.309 8.299 10.309 9.812 11.875 C12.458 14.445 14.796 15.108 18.293 16.094 C20 17 20 17 20.82 18.961 C21 21 21 21 19.688 23.125 C16.33 25.467 13.464 25.783 9.477 26.43 C5.969 27.237 3.856 28.858 1 31 C0.34 31 -0.32 31 -1 31 C0.245 27.264 1.634 26.812 5 25 C2.038 25.613 0.619 26.254 -2 28 C-4.698 27.798 -6.524 27.27 -8.875 25.938 C-10.373 23.358 -9.822 21.59 -9.328 18.738 C-8.879 14.986 -8.913 11.275 -8.938 7.5 C-8.94 7.134 -8.94 7.134 -8.95 5.284 C-8.963 3.523 -8.981 1.761 -9 0 C-5.593 -0.763 -3.35 -1.117 0 0 Z " fill="#AF97A5" transform="translate(244,150)"/>
<path d="M0 0 C0.66 0.33 1.32 0.66 2 1 C1.443 1.454 0.886 1.907 0.312 2.375 C-6.016 9.558 -7.635 16.996 -8.368 26.286 C-8.818 31.818 -8.818 31.818 -11 34 C-11 34.99 -11 35.98 -11 37 C-10.34 36.835 -10.34 36.835 -7 36 C-7.33 36.99 -7.66 37.98 -8 39 C-10.562 40.188 -10.562 40.188 -13 41 C-13.577 40.34 -14.155 39.68 -14.75 39 C-17 37 -17 37 -21 37 C-21.433 35.969 -21.866 34.938 -22.312 33.875 C-23.353 31.428 -24.459 29.117 -25.688 26.75 C-27 24 -27 24 -27 21 C-25.21 20.329 -23.418 19.664 -21.625 19 C-20.627 18.629 -19.63 18.257 -18.602 17.875 C-16 17 -16 17 -14 17 C-13.738 16.27 -13.477 15.541 -13.207 14.789 C-10.655 8.892 -6.12 2.448 0 0 Z " fill="#897570" transform="translate(345,153)"/>
<path d="M0 0 C2.062 0.438 2.062 0.438 4 1 C3.031 1.619 2.061 2.238 1.062 2.875 C-2 5 -2 5 -3 7 C-2.325 6.555 -1.649 6.111 -0.953 5.652 C-0.061 5.086 0.831 4.521 1.75 3.938 C2.632 3.369 3.513 2.801 4.422 2.215 C7 1 7 1 9.328 1.316 C9.604 1.429 9.604 1.429 11 2 C10.281 2.574 9.561 3.147 8.82 3.738 C7.016 5.185 5.219 6.64 3.43 8.105 C3.008 8.449 3.008 8.449 0.875 10.188 C0.027 10.882 -0.821 11.577 -1.695 12.293 C-4 14 -4 14 -7 15 C-7 15.66 -7 16.32 -7 17 C-8.469 18.48 -8.469 18.48 -10.5 20.188 C-11.228 20.805 -11.957 21.422 -12.707 22.059 C-13.464 22.699 -14.22 23.34 -15 24 C-16.397 25.249 -17.793 26.499 -19.188 27.75 C-26.336 34 -26.336 34 -30 34 C-30 33.34 -30 32.68 -30 32 C-31.98 32 -33.96 32 -36 32 C-35.387 29.038 -34.746 27.619 -33 25 C-30.977 23.938 -30.977 23.938 -28.625 23 C-25.356 21.635 -22.801 20.179 -20 18 C-19.368 17.885 -18.737 17.771 -18.086 17.652 C-15.346 16.795 -14.577 15.575 -12.938 13.25 C-12.421 12.529 -11.904 11.809 -11.371 11.066 C-10 9 -10 9 -8.5 6.188 C-6.497 3.266 -4.201 2.392 -1 1 C-0.67 0.67 -0.34 0.34 0 0 Z " fill="#A3C7D1" transform="translate(246,174)"/>
<path d="M0 0 C0.66 0 1.32 0 2 0 C2.343 4.815 2.497 8.803 0.625 13.312 C-3.109 17.136 -7.118 18.926 -12 21 C-12.305 21.132 -12.305 21.132 -13.848 21.799 C-15.83 22.652 -17.819 23.486 -19.812 24.312 C-20.446 24.579 -21.08 24.846 -21.734 25.121 C-25.287 26.548 -28.167 27.314 -32 27 C-32 26.34 -32 25.68 -32 25 C-29.769 23.13 -27.423 21.461 -25.066 19.754 C-23 18 -23 18 -22 15 C-18.012 10.287 -13.01 6.865 -6.918 5.551 C-3.85 4.67 -2.185 2.242 0 0 Z " fill="#9DB0B8" transform="translate(370,162)"/>
<path d="M0 0 C8.432 3.666 15.184 12.218 20.875 19.25 C20.875 19.91 20.875 20.57 20.875 21.25 C21.535 21.25 22.195 21.25 22.875 21.25 C24.156 22.839 24.156 22.839 25.59 25.047 C26.111 25.841 26.633 26.635 27.17 27.453 C27.712 28.294 28.254 29.134 28.812 30 C29.883 31.641 30.955 33.282 32.027 34.922 C32.502 35.655 32.976 36.388 33.465 37.144 C34.875 39.25 34.875 39.25 36.553 41.396 C37.875 43.25 37.875 43.25 37.875 45.25 C38.865 45.25 39.855 45.25 40.875 45.25 C40.875 45.91 40.875 46.57 40.875 47.25 C38.895 47.25 36.915 47.25 34.875 47.25 C34.545 48.9 34.215 50.55 33.875 52.25 C33.545 52.25 33.215 52.25 32.875 52.25 C32.818 50.933 32.762 49.615 32.703 48.258 C32.085 42.801 29.892 39.431 26.625 35.125 C26.096 34.402 25.567 33.679 25.021 32.935 C18.637 24.353 11.761 15.89 3.996 8.516 C1.875 6.25 1.875 6.25 1.875 3.25 C-2.504 3.77 -6.813 4.307 -11.125 5.25 C-11.455 6.24 -11.785 7.23 -12.125 8.25 C-12.455 7.26 -12.785 6.27 -13.125 5.25 C-4.574 0.366 -4.574 0.366 0 0 Z " fill="#D5C6CE" transform="translate(199.125,102.75)"/>
<path d="M0 0 C0 0.99 0 1.98 0 3 C-0.24 3.204 -0.24 3.204 -1.457 4.238 C-3.85 6.971 -3.524 9.631 -3.688 13.188 C-3.753 14.46 -3.819 15.732 -3.887 17.043 C-3.924 18.019 -3.961 18.995 -4 20 C-6.667 19.333 -9.333 18.667 -12 18 C-12 19.32 -12 20.64 -12 22 C-17.363 21.197 -19.912 17.138 -23 13 C-24.438 10 -24.438 10 -25 8 C-21.125 9.875 -21.125 9.875 -20 11 C-19.773 10.649 -19.773 10.649 -18.625 8.875 C-13.837 3.632 -7.416 -1.171 0 0 Z " fill="#C9B0BD" transform="translate(230,203)"/>
<path d="M0 0 C0.598 0.495 1.196 0.99 1.812 1.5 C2.194 1.799 2.194 1.799 4.125 3.312 C5.812 5.5 5.812 5.5 5.812 8.062 C4.596 11.027 3.528 11.842 0.812 13.5 C-7.309 15.057 -13.298 12.54 -20.188 8.5 C-21.391 7.885 -22.598 7.279 -23.812 6.688 C-24.596 6.296 -25.38 5.904 -26.188 5.5 C-26.188 4.84 -26.188 4.18 -26.188 3.5 C-27.178 3.17 -28.168 2.84 -29.188 2.5 C-28.197 2.17 -27.207 1.84 -26.188 1.5 C-25.177 2.181 -24.166 2.861 -23.125 3.562 C-19.885 5.542 -17.914 5.675 -14.188 5 C-10.863 4.171 -8.21 3.065 -5.312 1.25 C-2.188 -0.5 -2.188 -0.5 0 0 Z " fill="#796E70" transform="translate(292.1875,280.5)"/>
<path d="M0 0 C0.48 0.487 0.959 0.975 1.453 1.477 C5.154 3.69 8.517 3.358 12.75 3.375 C19.932 3.564 24.324 4.27 30 9 C30.66 9.33 31.32 9.66 32 10 C32 11.98 32 13.96 32 16 C28.548 18.114 25.82 18.241 21.812 18.188 C20.746 18.181 19.68 18.175 18.582 18.168 C16 18 16 18 15 17 C14.737 12.968 14.706 11.441 17 8 C15.824 8.062 14.649 8.124 13.438 8.188 C8.876 8.171 5.958 7.296 2 5 C0.562 2.312 0.562 2.312 0 0 Z " fill="#B7D2D8" transform="translate(193,151)"/>
<path d="M0 0 C0.711 1.723 0.711 1.723 1 4 C-2.063 9.006 -6.218 12.863 -11.5 15.375 C-16.63 17.896 -19.159 21.798 -22.273 26.477 C-24.993 30.452 -26.951 32.261 -31.562 33.75 C-31.955 33.881 -31.955 33.881 -33.941 34.547 C-36 35 -36 35 -38 34 C-33.265 28.134 -28.225 23.589 -22.125 19.188 C-20.602 18.083 -19.083 16.973 -17.57 15.855 C-16.908 15.377 -16.245 14.899 -15.563 14.407 C-14 13 -14 13 -13 10 C-14.32 10.33 -15.64 10.66 -17 11 C-12.688 6.271 -6.675 0 0 0 Z " fill="#B097A2" transform="translate(356,139)"/>
<path d="M0 0 C-0.99 0.33 -1.98 0.66 -3 1 C-2.938 2.072 -2.876 3.145 -2.812 4.25 C-3.005 8.109 -3.397 9.288 -6 12 C-6.99 11.67 -7.98 11.34 -9 11 C-10.044 7.867 -9.934 7.01 -9 4 C-14.67 8.102 -14.67 8.102 -16.125 12.062 C-16 15 -16 15 -14.5 17.375 C-10.582 19.921 -7.015 19.413 -2.562 18.5 C-2.305 18.417 -2.305 18.417 -1 18 C-3.052 20.248 -4.007 21.002 -7 22 C-8.561 22.067 -10.125 22.085 -11.688 22.062 C-12.092 22.058 -12.092 22.058 -14.137 22.035 C-14.752 22.024 -15.366 22.012 -16 22 C-16.66 23.32 -17.32 24.64 -18 26 C-18.66 26 -19.32 26 -20 26 C-19.984 26.651 -19.969 27.301 -19.952 27.972 C-19.89 30.919 -19.851 33.865 -19.812 36.812 C-19.8 37.325 -19.8 37.325 -19.736 39.916 C-19.727 40.899 -19.717 41.882 -19.707 42.895 C-19.691 43.801 -19.676 44.706 -19.659 45.64 C-20.061 48.424 -20.837 49.276 -23 51 C-22.89 46.77 -22.759 42.541 -22.625 38.312 C-22.594 37.114 -22.563 35.916 -22.531 34.682 C-22.493 33.525 -22.454 32.368 -22.414 31.176 C-22.383 30.113 -22.351 29.05 -22.319 27.954 C-21.995 24.955 -21.207 22.746 -20 20 C-19.727 17.754 -19.727 17.754 -19.625 15.562 C-19.09 10.276 -17.386 6.96 -13.203 3.523 C-8.64 0.357 -5.514 -0.574 0 0 Z " fill="#89756C" transform="translate(328,210)"/>
<path d="M0 0 C0.66 0 1.32 0 2 0 C1.67 1.32 1.34 2.64 1 4 C1.928 4.268 2.856 4.536 3.812 4.812 C7 6 7 6 8.5 7.625 C10 9 10 9 13.188 9.188 C14.116 9.126 15.044 9.064 16 9 C16.312 11.312 16.312 11.312 16 14 C13.688 15.688 13.688 15.688 11 17 C10.01 17.66 9.02 18.32 8 19 C5.336 19.047 5.336 19.047 2.375 18.75 C1.393 18.662 0.41 18.575 -0.602 18.484 C-0.997 18.404 -0.997 18.404 -3 18 C-3.33 17.34 -3.66 16.68 -4 16 C-2.35 16 -0.7 16 1 16 C-1.875 11.125 -1.875 11.125 -3 10 C-2.397 2.397 -2.397 2.397 0 0 Z " fill="#796D71" transform="translate(211,169)"/>
<path d="M0 0 C0.33 0.99 0.66 1.98 1 3 C-1 4 -1 4 -4.25 3.5 C-8 4 -8 4 -9.723 5.859 C-11.274 8.192 -12.679 10.53 -14 13 C-14.174 13.294 -14.174 13.294 -15.053 14.781 C-16.24 17.562 -16.322 19.84 -16.414 22.859 C-16.453 23.974 -16.491 25.089 -16.531 26.238 C-16.562 27.397 -16.593 28.556 -16.625 29.75 C-16.644 30.337 -16.644 30.337 -16.742 33.309 C-16.836 36.206 -16.922 39.103 -17 42 C-17.33 42 -17.66 42 -18 42 C-18.33 38.37 -18.66 34.74 -19 31 C-19.99 30.67 -20.98 30.34 -22 30 C-22.346 19.726 -21.591 11.759 -16 3 C-15.34 3.33 -14.68 3.66 -14 4 C-13.67 3.34 -13.34 2.68 -13 2 C-8.641 -0.378 -4.835 -0.164 0 0 Z " fill="#D1C1CA" transform="translate(201,106)"/>
<path d="M0 0 C1.98 0.66 3.96 1.32 6 2 C6.362 5.076 6.477 7.932 6 11 C3.336 14.347 1.869 15.609 -2.262 16.473 C-6.475 16.744 -8.35 16.557 -11.625 13.75 C-13 11 -13 11 -13.125 9 C-11.371 5.882 -8.83 4.168 -6 2 C-4.875 5.75 -4.875 5.75 -6 8 C-5.67 8.66 -5.34 9.32 -5 10 C-4.01 9.67 -3.02 9.34 -2 9 C-1.27 6.934 -1.27 6.934 -0.812 4.438 C-0.733 4.024 -0.733 4.024 -0.332 1.934 C-0.222 1.296 -0.113 0.657 0 0 Z " fill="#8FB5D1" transform="translate(325,211)"/>
<path d="M0 0 C2.25 -0.25 2.25 -0.25 5 0 C6.333 1.333 7.667 2.667 9 4 C11.075 4.826 13.144 5.488 15.293 6.094 C17 7 17 7 17.82 8.961 C18 11 18 11 16.688 13.125 C13.33 15.467 10.464 15.783 6.477 16.43 C2.969 17.237 0.856 18.858 -2 21 C-2.66 21 -3.32 21 -4 21 C-2.755 17.264 -1.366 16.812 2 15 C1.34 14.34 0.68 13.68 0 13 C0.66 13 1.32 13 2 13 C2.66 10.36 3.32 7.72 4 5 C3.34 5 2.68 5 2 5 C1.34 3.35 0.68 1.7 0 0 Z " fill="#BCA79F" transform="translate(247,160)"/>
<path d="M0 0 C2.47 2.461 4.93 4.928 7.359 7.43 C12.04 12.218 16.725 16.547 22.188 20.43 C26.947 24.553 27.181 31.09 28 37 C28.125 40.688 28.125 40.688 28 43 C22.344 43.552 19.514 42.212 15 39 C13.562 36.25 13.562 36.25 13 34 C12.34 34 11.68 34 11 34 C11.33 33.34 11.66 32.68 12 32 C14.712 33.613 17.374 35.249 20 37 C21.655 37.385 23.322 37.728 25 38 C23.98 25.679 23.98 25.679 20.406 22.648 C19.044 21.638 17.671 20.643 16.289 19.66 C9.609 14.815 3.548 9.596 0 2 C0 1.34 0 0.68 0 0 Z " fill="#A48D99" transform="translate(230,230)"/>
<path d="M0 0 C0.144 1.114 0.289 2.227 0.438 3.375 C1 7 1 7 2 9 C2.99 9 3.98 9 5 9 C5.99 6.03 6.98 3.06 8 0 C10.438 1.125 10.438 1.125 13 3 C14.062 5.938 14.062 5.938 14 9 C11.841 11.878 9.444 13.918 6 15 C2.194 14.864 -0.212 14.539 -3.375 12.375 C-5.481 9.297 -5.717 6.677 -6 3 C-6.66 3.66 -7.32 4.32 -8 5 C-8 3.68 -8 2.36 -8 1 C-4.933 -0.862 -3.403 -1.215 0 0 Z " fill="#8FB6D3" transform="translate(251,211)"/>
<path d="M0 0 C2.497 4.994 -1.391 14.754 -3 20 C-4.634 23.671 -6.591 26.794 -9 30 C-9.532 30.726 -10.065 31.451 -10.613 32.199 C-11.623 33.554 -12.643 34.901 -13.676 36.238 C-15.296 38.394 -16.678 40.65 -18 43 C-18.99 42.01 -19.98 41.02 -21 40 C-20.808 39.766 -20.808 39.766 -19.838 38.582 C-18.084 36.422 -16.355 34.243 -14.625 32.062 C-14.022 31.327 -13.418 30.592 -12.797 29.834 C-8.699 24.621 -6.979 20.569 -6 14 C-6.99 14.66 -7.98 15.32 -9 16 C-11.688 16.125 -11.688 16.125 -14 16 C-14 15.01 -14 14.02 -14 13 C-13.408 12.816 -12.817 12.631 -12.207 12.441 C-6.057 10.184 -3.601 7.722 -0.777 1.828 C-0.521 1.225 -0.264 0.622 0 0 Z " fill="#A3969C" transform="translate(373,168)"/>
<path d="M0 0 C7.341 4.012 7.341 4.012 9.5 7.25 C10.215 11.18 10.156 15.019 10 19 C4.646 19.489 4.646 19.489 1.77 17.312 C-2.411 12.373 -5.187 8.234 -7 2 C-4.543 2.377 -3.332 2.592 -1.734 4.559 C1 9.778 1 9.778 1 12 C2.32 12.33 3.64 12.66 5 13 C4.639 12.313 4.278 11.626 3.906 10.918 C3.442 10.017 2.978 9.116 2.5 8.188 C2.036 7.294 1.572 6.401 1.094 5.48 C0 3 0 3 0 0 Z " fill="#C7ADBA" transform="translate(245,249)"/>
<path d="M0 0 C0.784 0.041 1.567 0.083 2.375 0.125 C1.798 0.352 1.22 0.579 0.625 0.812 C-2.221 2.473 -3.623 4.517 -5.625 7.125 C-7.947 9.505 -10.215 11.797 -12.812 13.875 C-15.517 17.232 -15.945 20.938 -16.625 25.125 C-19.56 22.19 -20.457 19.41 -20.992 15.32 C-20.51 11.125 -18.5 9.109 -15.625 6.25 C-15.148 5.752 -14.671 5.255 -14.18 4.742 C-13.008 3.524 -11.818 2.322 -10.625 1.125 C-9.965 2.115 -9.305 3.105 -8.625 4.125 C-5.445 2.641 -3.435 0.164 0 0 Z " fill="#AD98A4" transform="translate(325.625,202.875)"/>
<path d="M0 0 C1.359 4.078 0.141 5.644 -1.637 9.406 C-5.528 16.809 -10.274 23.469 -15.488 29.984 C-17.406 32.541 -18.726 35.078 -20 38 C-20.33 38 -20.66 38 -21 38 C-21.136 36.44 -21.233 34.876 -21.312 33.312 C-21.342 32.877 -21.342 32.877 -21.488 30.676 C-20.795 26.878 -18.808 25.613 -16 23 C-13.886 20.445 -11.915 17.787 -9.938 15.125 C-9.421 14.443 -8.905 13.761 -8.373 13.059 C-5.232 8.857 -2.509 4.608 0 0 Z " fill="#575156" transform="translate(341,226)"/>
<path d="M0 0 C4.903 2.213 7.272 4.616 9.836 9.316 C9.506 9.976 9.176 10.636 8.836 11.316 C8.403 10.533 7.97 9.749 7.523 8.941 C5.836 6.316 5.836 6.316 2.836 4.316 C2.666 4.882 2.496 5.448 2.32 6.031 C2.078 6.765 1.836 7.498 1.586 8.254 C1.354 8.985 1.122 9.716 0.883 10.469 C-0.164 12.316 -0.164 12.316 -2.273 13.07 C-2.585 13.111 -2.585 13.111 -4.164 13.316 C-6.198 9.587 -7.164 7.647 -7.164 3.316 C-9.474 3.646 -11.784 3.976 -14.164 4.316 C-11.378 -1.853 -6.087 -1.923 0 0 Z " fill="#24293E" transform="translate(257.1640625,207.68359375)"/>
<path d="M0 0 C1.281 1.589 1.281 1.589 2.715 3.797 C3.236 4.591 3.758 5.385 4.295 6.203 C4.837 7.044 5.379 7.884 5.938 8.75 C7.008 10.391 8.08 12.032 9.152 13.672 C9.627 14.405 10.101 15.138 10.59 15.894 C12 18 12 18 13.678 20.146 C15 22 15 22 15 24 C15.99 24 16.98 24 18 24 C18 24.66 18 25.32 18 26 C16.02 26 14.04 26 12 26 C11.67 27.65 11.34 29.3 11 31 C10.67 31 10.34 31 10 31 C9.956 29.697 9.912 28.394 9.867 27.051 C9.225 21.296 6.582 17.693 3.125 13.188 C2.582 12.451 2.04 11.714 1.48 10.955 C0.004 8.957 -1.494 6.976 -3 5 C-4.001 3.667 -5.001 2.334 -6 1 C-3.924 0.447 -2.156 0 0 0 Z " fill="#C7B9C1" transform="translate(222,124)"/>
<path d="M0 0 C1.553 3.107 0.645 6.168 0.188 9.5 C0.104 10.19 0.021 10.879 -0.064 11.59 C-0.754 16.754 -0.754 16.754 -3 19 C-3 19.99 -3 20.98 -3 22 C-1.68 21.67 -0.36 21.34 1 21 C0.67 21.99 0.34 22.98 0 24 C-2.562 25.188 -2.562 25.188 -5 26 C-5.577 25.34 -6.155 24.68 -6.75 24 C-9 22 -9 22 -13 22 C-12.432 18.723 -11.581 17.324 -9.062 15.188 C-5.8 12.119 -5.106 9.345 -4 5 C-1.875 2.062 -1.875 2.062 0 0 Z " fill="#383535" transform="translate(337,168)"/>
<path d="M0 0 C2.716 2.716 3.201 5.76 4.125 9.375 C4.307 10.048 4.489 10.721 4.676 11.414 C5.551 14.758 6 17.516 6 21 C5.34 21 4.68 21 4 21 C3.67 21.66 3.34 22.32 3 23 C-3.875 19.25 -3.875 19.25 -5 17 C-4.34 17 -3.68 17 -3 17 C-3.165 16.361 -3.33 15.721 -3.5 15.062 C-4.159 11.024 -4.08 7.082 -4 3 C-2 5 -2 5 -1 8 C-0.67 5.36 -0.34 2.72 0 0 Z " fill="#B8BCC0" transform="translate(288,171)"/>
<path d="M0 0 C16.191 -0.739 29.888 -0.118 45 6 C45 6.66 45 7.32 45 8 C43.27 7.715 41.541 7.422 39.812 7.125 C38.85 6.963 37.887 6.8 36.895 6.633 C34 6 34 6 31.773 4.973 C28.299 3.754 25.41 3.774 21.73 3.805 C21.049 3.808 20.368 3.81 19.667 3.813 C17.507 3.824 15.347 3.849 13.188 3.875 C11.717 3.885 10.246 3.894 8.775 3.902 C5.183 3.924 1.592 3.959 -2 4 C-1.34 2.68 -0.68 1.36 0 0 Z " fill="#C7C4CA" transform="translate(258,154)"/>
<path d="M0 0 C0.66 0.33 1.32 0.66 2 1 C2.227 2.031 2.454 3.062 2.688 4.125 C3.755 8.377 6.235 10.568 9.441 13.422 C11 15 11 15 12 18 C6.001 16.167 0.551 13.927 -5 11 C-5.392 8.336 -5.406 6.608 -3.887 4.332 C-2.636 2.849 -1.321 1.42 0 0 Z " fill="#CFC1B2" transform="translate(270,242)"/>
<path d="M0 0 C0.66 0.33 1.32 0.66 2 1 C1.348 1.846 0.695 2.691 0.023 3.562 C-4.691 9.679 -9.386 15.807 -14 22 C-15.65 21.67 -17.3 21.34 -19 21 C-19.33 19.35 -19.66 17.7 -20 16 C-14.225 14.031 -14.225 14.031 -11.75 13.688 C-10 13 -10 13 -9 10.75 C-8.67 9.843 -8.34 8.935 -8 8 C-5.658 4.721 -3.334 2.263 0 0 Z " fill="#D2C5CF" transform="translate(361,194)"/>
<path d="M0 0 C-0.99 0.33 -1.98 0.66 -3 1 C-2.938 2.072 -2.876 3.145 -2.812 4.25 C-3.005 8.109 -3.397 9.288 -6 12 C-6.99 11.67 -7.98 11.34 -9 11 C-10.044 7.867 -9.934 7.01 -9 4 C-14.718 8.136 -14.718 8.136 -16 12.062 C-16 15.062 -15.623 16.519 -14 19 C-17.875 17.125 -17.875 17.125 -19 16 C-18.84 11.83 -18.476 9.585 -15.812 6.312 C-10.353 1.824 -7.298 -0.584 0 0 Z " fill="#242232" transform="translate(328,210)"/>
<path d="M0 0 C1.65 0 3.3 0 5 0 C4.67 0.165 4.67 0.165 3 1 C3.07 4.51 3.149 7.094 5.625 9.73 C6.892 10.765 8.185 11.77 9.504 12.738 C9.998 13.155 10.491 13.571 11 14 C11 14.66 11 15.32 11 16 C10.34 16 9.68 16 9 16 C8.67 16.66 8.34 17.32 8 18 C7.567 17.237 7.134 16.474 6.688 15.688 C5.263 13.419 3.967 11.78 2 10 C-1.196 10.989 -4.051 12.028 -7 13.625 C-10.273 15.125 -12.444 15.254 -16 15 C-16.33 14.34 -16.66 13.68 -17 13 C-16.264 12.818 -15.528 12.636 -14.77 12.449 C-3.815 9.627 -3.815 9.627 -1 7 C-0.188 3.312 -0.188 3.312 0 0 Z " fill="#605459" transform="translate(290,271)"/>
<path d="M0 0 C1.65 0.66 3.3 1.32 5 2 C5.469 7.184 5.79 11.596 2.812 16.062 C1.071 18.14 0.184 18.927 -2.375 19.938 C-2.808 19.948 -2.808 19.948 -5 20 C-6.155 20.124 -7.31 20.248 -8.5 20.375 C-12 20 -12 20 -15 17.75 C-17 15 -17 15 -16.812 12.688 C-16.544 12.131 -16.276 11.574 -16 11 C-15.526 11.825 -15.051 12.65 -14.562 13.5 C-11.774 16.221 -11.254 16.421 -7.562 16.562 C-4.473 16.359 -2.801 15.906 0.062 14.562 C2.554 11.267 2.522 9.058 2.469 5.023 C2 3 2 3 -1 1 C-0.67 0.67 -0.34 0.34 0 0 Z " fill="#7A89A1" transform="translate(328,210)"/>
<path d="M0 0 C2.846 1.542 3.643 2.891 5.078 5.762 C5.485 6.556 5.893 7.35 6.312 8.168 C6.648 8.859 6.983 9.55 7.328 10.262 C7.658 10.922 7.988 11.582 8.328 12.262 C8.368 14.261 8.372 16.262 8.328 18.262 C7.313 16.284 6.355 14.33 5.539 12.262 C3.499 7.381 1.402 4.932 -3.523 2.891 C-7.277 1.792 -9.741 1.691 -13.672 2.262 C-16.044 3.721 -17.68 5.27 -19.672 7.262 C-19.419 4.137 -19.081 2.657 -16.797 0.449 C-11.392 -1.605 -5.561 -1.537 0 0 Z " fill="#AC97A7" transform="translate(260.671875,205.73828125)"/>
<path d="M0 0 C2.47 2.461 4.93 4.928 7.359 7.43 C12.066 12.244 16.762 16.567 22.285 20.43 C24.26 22.238 24.632 23.386 25 26 C14.951 19.896 5.483 12.587 0 2 C0 1.34 0 0.68 0 0 Z " fill="#86737C" transform="translate(230,230)"/>
<path d="M0 0 C1.98 0.66 3.96 1.32 6 2 C6 4.97 6 7.94 6 11 C5.01 11 4.02 11 3 11 C2.67 11.258 2.67 11.258 1 12.562 C0.34 13.037 -0.32 13.511 -1 14 C-1.99 13.67 -2.98 13.34 -4 13 C-3.763 12.577 -3.763 12.577 -2.562 10.438 C-0.943 6.874 -0.387 3.874 0 0 Z " fill="#92B8D3" transform="translate(325,211)"/>
<path d="M0 0 C0 0.66 0 1.32 0 2 C-0.877 2.241 -1.753 2.482 -2.656 2.73 C-6.301 4.114 -8.547 5.788 -11.5 8.312 C-11.974 8.712 -11.974 8.712 -14.371 10.734 C-15.905 12.057 -17.439 13.379 -18.973 14.703 C-22.828 18 -22.828 18 -25 18 C-24.651 15.143 -24.104 14.1 -21.996 12.07 C-21.152 11.428 -20.307 10.786 -19.438 10.125 C-18.986 9.781 -18.986 9.781 -16.699 8.039 C-15.808 7.366 -14.918 6.693 -14 6 C-13.264 5.389 -12.528 4.778 -11.77 4.148 C-7.793 0.902 -5.373 -0.806 0 0 Z " fill="#DECBD5" transform="translate(382,121)"/>
<path d="M0 0 C0.99 0.66 1.98 1.32 3 2 C3 3.32 3 4.64 3 6 C3.66 6 4.32 6 5 6 C4.666 12.466 3.665 15.449 -1 20 C-1.66 20 -2.32 20 -3 20 C-2.691 18.928 -2.381 17.855 -2.062 16.75 C-0.666 11.242 -0.358 5.654 0 0 Z " fill="#CEC0B2" transform="translate(309,242)"/>
<path d="M0 0 C4.903 2.213 7.272 4.616 9.836 9.316 C9.506 9.976 9.176 10.636 8.836 11.316 C8.444 10.553 8.052 9.79 7.648 9.004 C5.669 6.069 3.949 4.915 0.836 3.316 C0.506 4.636 0.176 5.956 -0.164 7.316 C-0.494 5.666 -0.824 4.016 -1.164 2.316 C-5.988 2.123 -9.661 2.559 -14.164 4.316 C-11.378 -1.853 -6.087 -1.923 0 0 Z " fill="#151028" transform="translate(257.1640625,207.68359375)"/>
<path d="M0 0 C1.493 2.987 0.406 4.952 -0.438 8.125 C-0.725 9.221 -1.012 10.316 -1.309 11.445 C-1.537 12.288 -1.765 13.131 -2 14 C-2.66 14 -3.32 14 -4 14 C-4.33 14.66 -4.66 15.32 -5 16 C-5.33 15.34 -5.66 14.68 -6 14 C-6.99 14.66 -7.98 15.32 -9 16 C-11.688 16.125 -11.688 16.125 -14 16 C-14 15.01 -14 14.02 -14 13 C-13.408 12.816 -12.817 12.631 -12.207 12.441 C-6.057 10.184 -3.601 7.722 -0.777 1.828 C-0.521 1.225 -0.264 0.622 0 0 Z " fill="#7D7A7F" transform="translate(373,168)"/>
<path d="M0 0 C0.66 0 1.32 0 2 0 C3.237 1.744 4.391 3.547 5.5 5.375 C8.821 10.821 8.821 10.821 11 13 C10.625 15.125 10.625 15.125 10 17 C8.203 16.863 8.203 16.863 6 16 C4.297 13.418 4.297 13.418 2.75 10.188 C2.229 9.129 1.708 8.071 1.172 6.98 C0 4 0 4 0 0 Z " fill="#A48471" transform="translate(275,243)"/>
<path d="M0 0 C2.438 1.125 2.438 1.125 5 3 C5.812 6.188 5.812 6.188 6 9 C5.34 8.67 4.68 8.34 4 8 C3.629 8.66 3.257 9.32 2.875 10 C1 12 1 12 -2.062 12.312 C-5 12 -5 12 -7 11 C-6.67 10.34 -6.34 9.68 -6 9 C-5.01 9 -4.02 9 -3 9 C-2.01 6.03 -1.02 3.06 0 0 Z " fill="#97BAD5" transform="translate(259,211)"/>
<path d="M0 0 C0.727 1.711 0.727 1.711 1 4 C-0.477 6.289 -0.477 6.289 -2.625 8.625 C-3.319 9.401 -4.012 10.177 -4.727 10.977 C-7.079 13.071 -9.027 14.03 -12 15 C-10.943 12.723 -9.91 10.89 -8.312 8.938 C-7.879 8.298 -7.446 7.659 -7 7 C-7.33 6.01 -7.66 5.02 -8 4 C-3.375 0 -3.375 0 0 0 Z " fill="#AA959D" transform="translate(356,139)"/>
<path d="M0 0 C0.589 0.206 1.178 0.413 1.785 0.625 C0.428 1.976 -0.952 3.305 -2.34 4.625 C-2.723 4.996 -2.723 4.996 -4.66 6.875 C-7.786 9.016 -9.499 9.119 -13.215 8.625 C-13.875 7.965 -14.535 7.305 -15.215 6.625 C-14.84 4.5 -14.84 4.5 -14.215 2.625 C-13.534 2.873 -12.854 3.12 -12.152 3.375 C-8.892 3.652 -8.307 3.295 -5.652 1.625 C-2.215 -0.375 -2.215 -0.375 0 0 Z " fill="#7B4644" transform="translate(303.21484375,262.375)"/>
<path d="M0 0 C0.276 0.584 0.552 1.168 0.836 1.77 C1.951 3.906 3.223 5.732 4.625 7.688 C7.47 12.118 7.535 15.865 7 21 C4.732 18.732 4.522 17.547 3.75 14.5 C2.996 12.066 2.996 12.066 2 10 C-1.188 8.438 -1.188 8.438 -4 8 C-2.667 5.333 -1.333 2.667 0 0 Z " fill="#8F7978" transform="translate(267,220)"/>
<path d="M0 0 C7.211 0.68 7.211 0.68 10 4 C12.188 5.188 12.188 5.188 14 6 C12.812 7.562 12.812 7.562 11 9 C8.136 9.077 6.563 8.457 4.344 6.656 C2.787 5.158 1.321 3.711 0 2 C0 1.34 0 0.68 0 0 Z " fill="#D7C9CF" transform="translate(240,151)"/>
<path d="M0 0 C-1.188 3.207 -2.082 4.052 -5.062 5.938 C-7.652 7.916 -7.986 8.927 -8.613 12.211 C-8.851 15.482 -8.99 18.721 -9 22 C-9.33 22 -9.66 22 -10 22 C-10.108 19.082 -10.187 16.169 -10.25 13.25 C-10.284 12.425 -10.317 11.6 -10.352 10.75 C-10.45 4.636 -10.45 4.636 -8.188 1.438 C-5.332 -0.439 -3.347 -0.304 0 0 Z " fill="#AF989E" transform="translate(318,232)"/>
<path d="M0 0 C-0.398 0.508 -0.797 1.016 -1.207 1.539 C-4.286 5.539 -6.916 9.369 -9 14 C-9.33 14 -9.66 14 -10 14 C-10.626 4.885 -10.626 4.885 -8.188 1.438 C-4.982 -0.669 -3.71 -1.237 0 0 Z " fill="#363235" transform="translate(330,250)"/>
<path d="M0 0 C1.938 0.25 1.938 0.25 4 1 C6.429 4.644 6.162 6.712 6 11 C5.01 11 4.02 11 3 11 C0.25 8.25 0.25 8.25 -2 5 C-1.873 2.644 -1.656 1.656 0 0 Z " fill="#D0C8D1" transform="translate(340,195)"/>
<path d="M0 0 C4.169 1.612 6.85 4.662 9.812 7.875 C10.07 8.14 10.07 8.14 11.373 9.48 C12.832 11.055 12.832 11.055 15 14 C14.824 16.383 14.824 16.383 14 18 C9.125 15.125 9.125 15.125 8 14 C7.959 12 7.957 10 8 8 C7.01 7.67 6.02 7.34 5 7 C3.613 5.371 3.613 5.371 2.312 3.438 C1.876 2.797 1.439 2.156 0.988 1.496 C0.662 1.002 0.336 0.509 0 0 Z " fill="#D8CBD3" transform="translate(205,108)"/>
<path d="M0 0 C0.66 0 1.32 0 2 0 C2.103 1.217 2.206 2.434 2.312 3.688 C2.788 7.416 3.569 10.029 6 13 C8.188 13.812 8.188 13.812 10 14 C10 14.66 10 15.32 10 16 C8.187 15.886 6.374 15.759 4.562 15.625 C3.553 15.555 2.544 15.486 1.504 15.414 C0.678 15.277 -0.149 15.141 -1 15 C-1.33 14.34 -1.66 13.68 -2 13 C-0.35 13 1.3 13 3 13 C0.125 8.125 0.125 8.125 -1 7 C-0.713 4.661 -0.381 2.326 0 0 Z " fill="#493F43" transform="translate(209,172)"/>
<path d="M0 0 C0 0.66 0 1.32 0 2 C-1.73 1.715 -3.459 1.422 -5.188 1.125 C-6.15 0.963 -7.113 0.8 -8.105 0.633 C-11 0 -11 0 -13.562 -1.031 C-16.059 -2.023 -18.147 -2.386 -20.812 -2.625 C-21.208 -2.662 -21.208 -2.662 -23.207 -2.852 C-23.503 -2.876 -23.503 -2.876 -25 -3 C-25 -3.33 -25 -3.66 -25 -4 C-16.298 -6.448 -8.144 -2.918 0 0 Z " fill="#E1D9DE" transform="translate(303,160)"/>
<path d="M0 0 C2 0 2 0 4.312 2.25 C4.756 2.704 4.756 2.704 7 5 C7.464 5.361 7.464 5.361 9.812 7.188 C10.534 7.786 11.256 8.384 12 9 C12 9.66 12 10.32 12 11 C7.168 10.551 4.369 9.561 1 6 C0.188 2.75 0.188 2.75 0 0 Z " fill="#D7C2CD" transform="translate(275,259)"/>
<path d="M0 0 C0.66 0 1.32 0 2 0 C1.67 6.6 1.34 13.2 1 20 C0.01 19.67 -0.98 19.34 -2 19 C-2.223 12.272 -1.95 6.46 0 0 Z " fill="#B1A7AE" transform="translate(181,117)"/>
<path d="M0 0 C5.61 0.33 11.22 0.66 17 1 C17.33 1.66 17.66 2.32 18 3 C15.441 4.28 13.545 4.168 10.688 4.188 C10.215 4.195 10.215 4.195 7.824 4.23 C4.856 3.988 2.691 3.24 0 2 C0 1.34 0 0.68 0 0 Z " fill="#656061" transform="translate(277,290)"/>
<path d="M0 0 C-0.195 1.824 -0.195 1.824 -1 4 C-3.18 5.52 -3.18 5.52 -5.875 6.812 C-6.317 7.032 -6.317 7.032 -8.555 8.145 C-11 9 -11 9 -14 8 C-12.68 7.34 -11.36 6.68 -10 6 C-10 5.01 -10 4.02 -10 3 C-8.71 2.496 -7.418 1.997 -6.125 1.5 C-5.406 1.222 -4.686 0.943 -3.945 0.656 C-2 0 -2 0 0 0 Z " fill="#B19AA4" transform="translate(338,150)"/>
<path d="M0 0 C1.062 2.375 1.062 2.375 2 5 C1.67 5.66 1.34 6.32 1 7 C1.66 7 2.32 7 3 7 C3.66 8.98 4.32 10.96 5 13 C1.403 11.801 0.621 10.549 -1.625 7.562 C-2.236 6.759 -2.847 5.956 -3.477 5.129 C-5 3 -5 3 -6 1 C-3.924 0.447 -2.156 0 0 0 Z " fill="#C2B6BC" transform="translate(222,124)"/>
<path d="M0 0 C0.66 0.33 1.32 0.66 2 1 C1.654 4.113 1.126 5.829 -0.75 8.375 C-3 10 -3 10 -5.688 9.875 C-8 9 -8 9 -9 7 C-8.629 6.887 -8.629 6.887 -6.75 6.312 C-3.489 4.756 -2.071 2.915 0 0 Z " fill="#AF9EA6" transform="translate(352,209)"/>
<path d="M0 0 C3.254 -0.079 6.217 0.036 9.438 0.562 C13.199 1.024 16.287 0.682 20 0 C19.67 1.32 19.34 2.64 19 4 C16.959 4.055 14.917 4.093 12.875 4.125 C12.307 4.137 12.307 4.137 9.43 4.195 C5.942 3.997 3.245 3.252 0 2 C0 1.34 0 0.68 0 0 Z " fill="#B48E91" transform="translate(286,257)"/>
<path d="M0 0 C0.66 0.804 1.32 1.609 2 2.438 C5.88 5.751 8 5.746 13 6 C12.67 6.99 12.34 7.98 12 9 C7.584 9.433 5.653 9.5 2.062 6.75 C0 4 0 4 0 0 Z " fill="#7494B3" transform="translate(311,221)"/>
<path d="M0 0 C0.33 0.99 0.66 1.98 1 3 C-1.141 5.355 -2.958 6.986 -6 8 C-12.042 7.479 -12.042 7.479 -15 6 C-15 5.34 -15 4.68 -15 4 C-14.169 4.046 -13.337 4.093 -12.48 4.141 C-11.394 4.177 -10.307 4.213 -9.188 4.25 C-8.109 4.296 -7.03 4.343 -5.918 4.391 C-3 4 -3 4 -1.113 1.984 C-0.746 1.33 -0.379 0.675 0 0 Z " fill="#C0D8EE" transform="translate(263,218)"/>
<path d="M0 0 C2.716 2.716 3.201 5.76 4.125 9.375 C4.307 10.048 4.489 10.721 4.676 11.414 C5.551 14.758 6 17.516 6 21 C5.34 21 4.68 21 4 21 C1.255 13.759 -0.518 7.768 0 0 Z " fill="#ABA0AC" transform="translate(288,171)"/>
<path d="M0 0 C0.33 0 0.66 0 1 0 C1.222 1.936 1.427 3.874 1.625 5.812 C1.741 6.891 1.857 7.97 1.977 9.082 C2.01 13.274 0.244 14.75 -2.625 17.688 C-3.409 18.451 -4.192 19.214 -5 20 C-4.807 19.478 -4.613 18.956 -4.414 18.418 C-2.271 12.361 -1.007 6.339 0 0 Z " fill="#A09298" transform="translate(382,133)"/>
<path d="M0 0 C1.03 0.969 2.036 1.965 3 3 C2.192 2.988 1.384 2.977 0.551 2.965 C0.016 2.96 0.016 2.96 -2.688 2.938 C-3.743 2.926 -4.799 2.914 -5.887 2.902 C-8.724 2.991 -11.244 3.351 -14 4 C-14.33 4.99 -14.66 5.98 -15 7 C-15.33 6.01 -15.66 5.02 -16 4 C-5.345 -2.086 -5.345 -2.086 0 0 Z " fill="#E2DEE1" transform="translate(202,104)"/>
<path d="M0 0 C6 7.714 6 7.714 6 11 C8.64 11.33 11.28 11.66 14 12 C14 12.33 14 12.66 14 13 C10.37 13.33 6.74 13.66 3 14 C0 4.5 0 4.5 0 0 Z " fill="#ABA3AF" transform="translate(295,171)"/>
<path d="M0 0 C3.995 1.506 5.555 3.829 7.812 7.375 C8.438 8.331 9.063 9.288 9.707 10.273 C11 13 11 13 10.699 15.352 C10.468 15.896 10.238 16.44 10 17 C8.847 15.254 7.703 13.503 6.562 11.75 C6.243 11.263 6.243 11.263 4.629 8.797 C3.242 6.416 2.453 4.682 2 2 C1.34 2 0.68 2 0 2 C0 1.34 0 0.68 0 0 Z " fill="#ECE4E9" transform="translate(223,129)"/>
<path d="M0 0 C0.33 0 0.66 0 1 0 C1.73 4.674 -0.133 7.439 -2.621 11.195 C-4.181 13.237 -5.787 14.689 -8 16 C-8.66 15.67 -9.32 15.34 -10 15 C-9.613 14.588 -9.227 14.175 -8.828 13.75 C-4.943 9.441 -2.407 5.277 0 0 Z " fill="#B79DAA" transform="translate(337,219)"/>
<path d="M0 0 C0.33 0 0.66 0 1 0 C1.062 1.196 1.124 2.393 1.188 3.625 C1.793 8.304 3.474 10.781 7 14 C9.365 15.018 11.449 15.5 14 16 C14 16.33 14 16.66 14 17 C9.364 16.84 6.119 16.633 2.562 13.5 C-0.695 9.862 -1.231 5.78 -1 1 C-0.67 0.67 -0.34 0.34 0 0 Z " fill="#7F8091" transform="translate(242,212)"/>
<path d="M0 0 C0.33 0 0.66 0 1 0 C1 2.97 1 5.94 1 9 C0.34 9.33 0.34 9.33 -3 11 C-3.66 9.68 -4.32 8.36 -5 7 C-4.192 5.831 -3.378 4.664 -2.562 3.5 C-2.11 2.85 -1.658 2.201 -1.191 1.531 C-0.798 1.026 -0.405 0.521 0 0 Z " fill="#13142D" transform="translate(323,211)"/>
<path d="M0 0 C5.61 0 11.22 0 17 0 C16.67 0.66 16.34 1.32 16 2 C10.65 3.159 5.334 3.263 0 2 C0 1.34 0 0.68 0 0 Z " fill="#D2CBD2" transform="translate(267,154)"/>
<path d="M0 0 C0.66 0 1.32 0 2 0 C1.485 5.281 -0.255 8.572 -3 13 C-3.99 13 -4.98 13 -6 13 C-5.711 12.299 -5.423 11.597 -5.125 10.875 C-3.979 7.945 -2.974 4.991 -2 2 C-1.34 2 -0.68 2 0 2 C0 1.34 0 0.68 0 0 Z " fill="#B3ADB3" transform="translate(369,182)"/>
<path d="M0 0 C0.469 0.481 0.938 0.962 1.422 1.457 C5.235 3.739 8.88 3.568 13.25 3.688 C13.67 3.705 13.67 3.705 15.797 3.791 C17.864 3.873 19.932 3.938 22 4 C22 4.33 22 4.66 22 5 C21.59 5.03 21.59 5.03 19.516 5.184 C18.977 5.225 18.977 5.225 16.25 5.438 C15.183 5.519 14.115 5.6 13.016 5.684 C10 6 10 6 7.742 6.574 C6 7 6 7 3.875 6.375 C1.438 4.588 0.896 2.837 0 0 Z " fill="#BCC3CB" transform="translate(193,151)"/>
<path d="M0 0 C0.351 0.33 0.351 0.33 2.125 2 C5.435 4.302 7.062 4.366 11 4 C10.67 5.32 10.34 6.64 10 8 C8.312 8.75 8.312 8.75 6 9 C2.782 7.055 1.265 5.898 0.188 2.25 C0.126 1.507 0.064 0.765 0 0 Z " fill="#3A3336" transform="translate(216,174)"/>
<path d="M0 0 C0 0.66 0 1.32 0 2 C-0.866 2.248 -1.733 2.495 -2.625 2.75 C-6.183 4.068 -8.923 5.802 -12 8 C-12.66 7.34 -13.32 6.68 -14 6 C-5.923 -0.888 -5.923 -0.888 0 0 Z " fill="#BEAFB4" transform="translate(382,121)"/>
<path d="M0 0 C1.011 0.495 2.021 0.99 3.062 1.5 C8.012 3.624 12.866 3.643 18 2 C15.084 5.193 13.005 5.926 8.625 6.25 C4.788 5.985 2.958 5.42 0 3 C0 2.01 0 1.02 0 0 Z " fill="#68697D" transform="translate(309,226)"/>
<path d="M0 0 C-1.021 3.676 -1.914 4.934 -5 7.312 C-8 9 -8 9 -10 9 C-8.512 4.984 -4.568 0 0 0 Z " fill="#5C535B" transform="translate(315,276)"/>
<path d="M0 0 C3.59 1.333 6.796 2.894 10 5 C10 5.33 10 5.66 10 6 C4.627 6.44 4.627 6.44 2 6 C0 3.5 0 3.5 -1 1 C-0.67 0.67 -0.34 0.34 0 0 Z " fill="#B8B1B8" transform="translate(303,161)"/>
<path d="M0 0 C0.598 0.763 1.196 1.526 1.812 2.312 C2.534 3.199 3.256 4.086 4 5 C4.412 5.526 4.825 6.052 5.25 6.594 C7.75 8.603 10.039 8.747 13.188 9.188 C14.274 9.346 15.361 9.505 16.48 9.668 C17.312 9.778 18.143 9.887 19 10 C19 10.33 19 10.66 19 11 C7.073 11.564 7.073 11.564 3 8 C0.18 4.985 0 4.333 0 0 Z " fill="#AD99A7" transform="translate(241,219)"/>
<path d="M0 0 C2.763 2.763 3.178 5.208 4 9 C3.625 12.438 3.625 12.438 3 15 C0.337 12.337 0.056 10.347 -0.098 6.641 C-0.086 5.852 -0.074 5.063 -0.062 4.25 C-0.053 3.451 -0.044 2.652 -0.035 1.828 C-0.024 1.225 -0.012 0.622 0 0 Z " fill="#ACA0AC" transform="translate(284,174)"/>
<path d="M0 0 C3.323 1.168 5.834 2.149 8 5 C8 5.99 8 6.98 8 8 C8.66 8 9.32 8 10 8 C9.67 8.66 9.34 9.32 9 10 C5.833 8.416 4.267 7.547 2.688 4.312 C2.461 3.549 2.234 2.786 2 2 C1.34 2 0.68 2 0 2 C0 1.34 0 0.68 0 0 Z " fill="#8D7E86" transform="translate(241,262)"/>
<path d="M0 0 C0 0.99 0 1.98 0 3 C-0.866 2.959 -1.732 2.917 -2.625 2.875 C-6.124 3.005 -8.746 3.76 -12 5 C-9.281 -1.021 -6.1 -0.098 0 0 Z " fill="#1C1C2E" transform="translate(255,207)"/>
<path d="M0 0 C0.33 0 0.66 0 1 0 C1.66 5.28 2.32 10.56 3 16 C-0.223 12.777 -0.42 12.26 -0.75 8 C-0.827 7.134 -0.905 6.268 -0.984 5.375 C-1 3 -1 3 0 0 Z " fill="#DED4DA" transform="translate(184,174)"/>
<path d="M0 0 C-4.75 4.875 -4.75 4.875 -7 6 C-7.33 5.34 -7.66 4.68 -8 4 C-9.32 4.33 -10.64 4.66 -12 5 C-5.792 -1.372 -5.792 -1.372 0 0 Z " fill="#C2AEB7" transform="translate(351,145)"/>
<path d="M0 0 C1.493 2.987 0.406 4.952 -0.438 8.125 C-0.725 9.221 -1.012 10.316 -1.309 11.445 C-1.537 12.288 -1.765 13.131 -2 14 C-4 13 -4 13 -4.777 11.234 C-5.078 8.213 -4.115 6.825 -2.562 4.25 C-2.089 3.451 -1.616 2.652 -1.129 1.828 C-0.756 1.225 -0.384 0.622 0 0 Z " fill="#868187" transform="translate(373,168)"/>
<path d="M0 0 C2.875 -0.188 2.875 -0.188 6 0 C6.66 0.99 7.32 1.98 8 3 C1.25 4.125 1.25 4.125 -1 3 C-0.67 2.01 -0.34 1.02 0 0 Z " fill="#C6AEAF" transform="translate(293,255)"/>
<path d="M0 0 C0.66 0.99 1.32 1.98 2 3 C1.32 5.262 1.32 5.262 0.125 7.688 C-0.264 8.496 -0.654 9.304 -1.055 10.137 C-1.211 10.444 -1.211 10.444 -2 12 C-2.99 12 -3.98 12 -5 12 C-3.35 8.04 -1.7 4.08 0 0 Z " fill="#B8A6AF" transform="translate(319,262)"/>
<path d="M0 0 C0.33 0.99 0.66 1.98 1 3 C-2.068 5.976 -3.462 6.965 -7.812 7.25 C-8.864 7.167 -9.916 7.085 -11 7 C-8.81 5.54 -6.664 4.219 -4.375 2.938 C-1 1 -1 1 0 0 Z " fill="#C1DAEF" transform="translate(329,220)"/>
<path d="M0 0 C2.062 0.438 2.062 0.438 4 1 C3.01 1.598 2.02 2.196 1 2.812 C0.01 3.534 -0.98 4.256 -2 5 C-2 5.99 -2 6.98 -2 8 C-2.66 8 -3.32 8 -4 8 C-4 7.01 -4 6.02 -4 5 C-4.66 5 -5.32 5 -6 5 C-6.33 5.66 -6.66 6.32 -7 7 C-7 6.01 -7 5.02 -7 4 C-6.031 3.526 -5.061 3.051 -4.062 2.562 C-1 1 -1 1 0 0 Z " fill="#A9BEC6" transform="translate(246,174)"/>
<path d="M0 0 C-1.072 1.012 -2.158 2.009 -3.25 3 C-3.552 3.278 -3.552 3.278 -5.078 4.688 C-7 6 -7 6 -11 6 C-11 5.34 -11 4.68 -11 4 C-9.355 2.676 -9.355 2.676 -7.188 1.312 C-6.48 0.855 -5.772 0.397 -5.043 -0.074 C-3 -1 -3 -1 0 0 Z " fill="#BCAEB4" transform="translate(329,156)"/>
<path d="M0 0 C2.779 3.473 4.985 7.041 7 11 C6.67 11.99 6.34 12.98 6 14 C4.8 12.238 3.615 10.465 2.438 8.688 C1.776 7.701 1.115 6.715 0.434 5.699 C-0.039 4.808 -0.513 3.918 -1 3 C-0.67 2.01 -0.34 1.02 0 0 Z " fill="#F4EFF2" transform="translate(189,192)"/>
<path d="M0 0 C-1.454 1.006 -2.914 2.004 -4.375 3 C-4.781 3.278 -4.781 3.278 -6.836 4.688 C-9 6 -9 6 -11 6 C-9.892 2.676 -9.516 2.384 -6.625 0.75 C-6.019 0.394 -5.413 0.038 -4.789 -0.328 C-3 -1 -3 -1 0 0 Z " fill="#A4A3AF" transform="translate(254,175)"/>
<path d="M0 0 C0 3.3 0 6.6 0 10 C-0.33 10.165 -0.33 10.165 -2 11 C-2 8.36 -2 5.72 -2 3 C-3.32 3.33 -4.64 3.66 -6 4 C-2.25 0 -2.25 0 0 0 Z " fill="#A6A9B2" transform="translate(372,162)"/>
<path d="M0 0 C0.825 0.33 0.825 0.33 5 2 C5 3.32 5 4.64 5 6 C3.68 5.67 2.36 5.34 1 5 C1 4.34 1 3.68 1 3 C0.34 3 -0.32 3 -1 3 C-0.67 2.01 -0.34 1.02 0 0 Z " fill="#AD99A4" transform="translate(250,267)"/>
<path d="M0 0 C0.66 0.33 1.32 0.66 2 1 C1.794 1.907 1.587 2.815 1.375 3.75 C0.987 7.11 1.196 8.241 3 11 C-0.875 9.125 -0.875 9.125 -2 8 C-1.28 1.28 -1.28 1.28 0 0 Z " fill="#1E1E36" transform="translate(311,218)"/>
<path d="M0 0 C-0.33 1.65 -0.66 3.3 -1 5 C-1.66 4.01 -2.32 3.02 -3 2 C-6 3 -6 3 -8 5 C-8 3.68 -8 2.36 -8 1 C-4.933 -0.862 -3.403 -1.215 0 0 Z " fill="#ACC7DC" transform="translate(251,211)"/>
<path d="M0 0 C0.66 0.66 1.32 1.32 2 2 C4.125 1.625 4.125 1.625 6 1 C5.67 1.99 5.34 2.98 5 4 C2.438 5.188 2.438 5.188 0 6 C-0.66 4.35 -1.32 2.7 -2 1 C-1.34 0.67 -0.68 0.34 0 0 Z " fill="#3A3B3F" transform="translate(332,188)"/>
<path d="M0 0 C3.3 0 6.6 0 10 0 C10 0.33 10 0.66 10 1 C9.392 1.041 9.392 1.041 6.312 1.25 C2.215 1.738 -0.001 3.095 -3 6 C-3 5.01 -3 4.02 -3 3 C-2.34 3 -1.68 3 -1 3 C-0.67 2.01 -0.34 1.02 0 0 Z " fill="#C3C2B9" transform="translate(273,188)"/>
<path d="M0 0 C3.333 2 6.667 4 10 6 C9.34 6.33 9.34 6.33 6 8 C5.34 6.68 4.68 5.36 4 4 C3.34 4 2.68 4 2 4 C2 3.34 2 2.68 2 2 C1.34 2 0.68 2 0 2 C0 1.34 0 0.68 0 0 Z " fill="#E4DFE3" transform="translate(244,151)"/>
<path d="M0 0 C0.825 0.33 0.825 0.33 5 2 C5 4.64 5 7.28 5 10 C4.34 9.67 3.68 9.34 3 9 C2.856 8.031 2.711 7.061 2.562 6.062 C2.377 5.052 2.191 4.041 2 3 C1.01 2.34 0.02 1.68 -1 1 C-0.67 0.67 -0.34 0.34 0 0 Z " fill="#70788E" transform="translate(328,210)"/>
<path d="M0 0 C3.171 1.094 4.008 2.013 5.812 4.938 C7 8 7 8 6 11 C4.994 9.546 3.996 8.086 3 6.625 C2.722 6.219 2.722 6.219 1.312 4.164 C0 2 0 2 0 0 Z " fill="#D2C4CC" transform="translate(226,137)"/>
<path d="M0 0 C3.21 1.382 5.049 2.924 7.25 5.625 C7.51 5.941 7.51 5.941 8.828 7.539 C9.021 7.78 9.021 7.78 10 9 C9.67 9.66 9.34 10.32 9 11 C8.67 10.01 8.34 9.02 8 8 C7.01 7.67 6.02 7.34 5 7 C3.613 5.371 3.613 5.371 2.312 3.438 C1.876 2.797 1.439 2.156 0.988 1.496 C0.662 1.002 0.336 0.509 0 0 Z " fill="#F1ECEF" transform="translate(205,108)"/>
<path d="M0 0 C3 1 3 1 6 3 C-0.4 4.231 -0.4 4.231 -3.438 3.062 C-3.953 2.712 -4.469 2.361 -5 2 C-3.35 2 -1.7 2 0 2 C0 1.34 0 0.68 0 0 Z " fill="#7C93AD" transform="translate(257,225)"/>
<path d="M0 0 C0.99 0.33 1.98 0.66 3 1 C0.538 4.815 0.538 4.815 -2.188 5.75 C-2.786 5.833 -3.384 5.915 -4 6 C-3.688 4.125 -3.688 4.125 -3 2 C-2.01 1.34 -1.02 0.68 0 0 Z " fill="#D1C1C8" transform="translate(352,140)"/>
<path d="M0 0 C0.99 0 1.98 0 3 0 C3.688 1.812 3.688 1.812 4 4 C2.562 5.75 2.562 5.75 1 7 C0.01 6.67 -0.98 6.34 -2 6 C-1.01 4.68 -0.02 3.36 1 2 C0.67 1.34 0.34 0.68 0 0 Z M-5 8 C-3 9 -3 9 -3 9 Z " fill="#B49FA7" transform="translate(353,139)"/>
<path d="M0 0 C0.66 0.33 1.32 0.66 2 1 C0.715 2.339 -0.579 3.671 -1.875 5 C-2.594 5.743 -3.314 6.485 -4.055 7.25 C-6 9 -6 9 -8 9 C-6.417 4.726 -3.494 2.735 0 0 Z " fill="#A6969C" transform="translate(368,130)"/>
<path d="M0 0 C3.821 0.531 6.062 1.497 9 4 C8.67 4.66 8.34 5.32 8 6 C7.175 5.67 7.175 5.67 3 4 C3 3.34 3 2.68 3 2 C2.01 1.67 1.02 1.34 0 1 C0 0.67 0 0.34 0 0 Z " fill="#60575B" transform="translate(263,282)"/>
<path d="M0 0 C1 3 1 3 0.312 5.562 C-1.161 8.299 -2.135 8.95 -5 10 C-3.665 6.406 -2.04 3.245 0 0 Z " fill="#665A61" transform="translate(341,226)"/>
<path d="M0 0 C0.557 0.227 1.114 0.454 1.688 0.688 C0.037 2.007 -1.613 3.327 -3.312 4.688 C-4.632 4.028 -5.952 3.368 -7.312 2.688 C-2.882 -0.389 -2.882 -0.389 0 0 Z " fill="#ABC1C8" transform="translate(255.3125,175.3125)"/>
<path d="M0 0 C-0.99 0.33 -1.98 0.66 -3 1 C-3 3.31 -3 5.62 -3 8 C-3.33 8 -3.66 8 -4 8 C-4.33 6.02 -4.66 4.04 -5 2 C-5.33 2.165 -5.33 2.165 -7 3 C-7.66 2.34 -8.32 1.68 -9 1 C-6.043 -0.478 -3.258 -0.06 0 0 Z " fill="#33344A" transform="translate(328,210)"/>
<path d="M0 0 C0 0.99 0 1.98 0 3 C-5.349 8 -5.349 8 -8 8 C-8 7.34 -8 6.68 -8 6 C-6.25 4.492 -6.25 4.492 -4 2.875 C-3.257 2.336 -2.515 1.797 -1.75 1.242 C-1.173 0.832 -0.595 0.422 0 0 Z " fill="#A5A7B1" transform="translate(346,181)"/>
<path d="M0 0 C1.98 0 3.96 0 6 0 C5.886 1.48 5.759 2.959 5.625 4.438 C5.555 5.261 5.486 6.085 5.414 6.934 C5.277 7.616 5.141 8.297 5 9 C4.67 9.165 4.67 9.165 3 10 C3 7.03 3 4.06 3 1 C2.01 0.67 1.02 0.34 0 0 Z " fill="#BEC0C9" transform="translate(204,159)"/>
<path d="M0 0 C0.66 0 1.32 0 2 0 C2 0.66 2 1.32 2 2 C2.99 1.67 3.98 1.34 5 1 C5 1.99 5 2.98 5 4 C4.01 4.66 3.02 5.32 2 6 C1.876 5.361 1.752 4.721 1.625 4.062 C1.522 3.722 1.522 3.722 1 2 C0.34 1.67 -0.32 1.34 -1 1 C-0.67 0.67 -0.34 0.34 0 0 Z " fill="#938289" transform="translate(355,137)"/>
<path d="M0 0 C1.75 0.125 1.75 0.125 4 1 C6.25 4.062 6.25 4.062 8 7 C7.67 7.66 7.34 8.32 7 9 C6.587 8.257 6.175 7.515 5.75 6.75 C4.063 4.098 2.291 2.133 0 0 Z " fill="#393B4F" transform="translate(259,210)"/>
<path d="M0 0 C0.99 0 1.98 0 3 0 C3 0.66 3 1.32 3 2 C1.041 3.714 -0.959 5.384 -3 7 C-2.25 2.25 -2.25 2.25 0 0 Z " fill="#A895A6" transform="translate(244,206)"/>
<path d="M0 0 C-0.312 1.938 -0.312 1.938 -1 4 C-1.99 4.33 -2.98 4.66 -4 5 C-4.66 4.34 -5.32 3.68 -6 3 C-4.607 0.214 -3.011 0 0 0 Z " fill="#B5A3AA" transform="translate(338,150)"/>
<path d="M0 0 C0.464 0.031 0.464 0.031 2.812 0.188 C2.812 0.847 2.812 1.507 2.812 2.188 C1.327 2.353 1.327 2.353 -6.188 3.188 C-3.188 0.188 -3.188 0.188 0 0 Z " fill="#DED1D5" transform="translate(379.1875,120.8125)"/>
<path d="M0 0 C0.33 0 0.66 0 1 0 C1 1.98 1 3.96 1 6 C-0.32 6.33 -1.64 6.66 -3 7 C-1.125 1.125 -1.125 1.125 0 0 Z " fill="#757582" transform="translate(267,220)"/>
<path d="M0 0 C0.33 0.99 0.66 1.98 1 3 C-0.65 3.33 -2.3 3.66 -4 4 C-4.66 3.01 -5.32 2.02 -6 1 C-5.598 1.01 -5.598 1.01 -3.562 1.062 C-1 1 -1 1 0 0 Z " fill="#BAABB2" transform="translate(349,215)"/>
<path d="M0 0 C4.219 0.479 6.797 1.166 10 4 C3.477 3.385 3.477 3.385 1.062 1.438 C0.712 0.963 0.361 0.489 0 0 Z " fill="#EBE5E8" transform="translate(196,206)"/>
<path d="M0 0 C0.99 0 1.98 0 3 0 C3 0.66 3 1.32 3 2 C1.469 3.289 1.469 3.289 -0.5 4.625 C-1.15 5.071 -1.799 5.517 -2.469 5.977 C-2.974 6.314 -3.479 6.652 -4 7 C-2.926 4.085 -2.222 2.222 0 0 Z " fill="#D0C3C7" transform="translate(367,128)"/>
<path d="M0 0 C0.66 0 1.32 0 2 0 C1.67 2.97 1.34 5.94 1 9 C-1.09 4.821 -1.166 4.196 0 0 Z " fill="#DAD3D7" transform="translate(181,117)"/>
<path d="M0 0 C0 0.99 0 1.98 0 3 C-2.5 5.188 -2.5 5.188 -5 7 C-5 6.01 -5 5.02 -5 4 C-2.5 1.812 -2.5 1.812 0 0 Z " fill="#D0B9C7" transform="translate(305,265)"/>
<path d="M0 0 C1.32 1.65 2.64 3.3 4 5 C3.67 5.165 3.67 5.165 2 6 C1.01 5.34 0.02 4.68 -1 4 C-0.67 2.68 -0.34 1.36 0 0 Z " fill="#B39FAA" transform="translate(240,257)"/>
<path d="M0 0 C0.66 0.33 1.32 0.66 2 1 C1.34 3.64 0.68 6.28 0 9 C-0.33 9 -0.66 9 -1 9 C-1.125 2.25 -1.125 2.25 0 0 Z " fill="#BAAAB0" transform="translate(381,147)"/>
<path d="M0 0 C0 0.99 0 1.98 0 3 C-2.375 4.75 -2.375 4.75 -5 6 C-5.66 5.67 -6.32 5.34 -7 5 C-4.69 3.35 -2.38 1.7 0 0 Z " fill="#5F595C" transform="translate(346,144)"/>
<path d="M0 0 C1.32 0.33 2.64 0.66 4 1 C2 3 2 3 -1.625 3.125 C-2.739 3.084 -3.853 3.043 -5 3 C-5 2.67 -5 2.34 -5 2 C-3.35 2 -1.7 2 0 2 C0 1.34 0 0.68 0 0 Z " fill="#6B6667" transform="translate(291,291)"/>
<path d="M0 0 C0.66 0 1.32 0 2 0 C1.67 1.98 1.34 3.96 1 6 C0.01 5.67 -0.98 5.34 -2 5 C-2 4.01 -2 3.02 -2 2 C-1.34 2 -0.68 2 0 2 C0 1.34 0 0.68 0 0 Z " fill="#A0989D" transform="translate(369,182)"/>
<path d="M0 0 C1 3 1 3 0.062 5.188 C-0.113 5.487 -0.113 5.487 -1 7 C-1.66 7 -2.32 7 -3 7 C-2.25 2.25 -2.25 2.25 0 0 Z " fill="#BAA9B2" transform="translate(378,157)"/>
<path d="M0 0 C1.32 0.99 2.64 1.98 4 3 C3.67 4.32 3.34 5.64 3 7 C0 3.375 0 3.375 0 0 Z " fill="#E9E5E8" transform="translate(216,119)"/>
<path d="M0 0 C0.66 0.99 1.32 1.98 2 3 C0.35 3.33 -1.3 3.66 -3 4 C-3 3.01 -3 2.02 -3 1 C-2.01 0.67 -1.02 0.34 0 0 Z " fill="#B3A6AE" transform="translate(304,283)"/>
<path d="M0 0 C1.32 0 2.64 0 4 0 C4 0.99 4 1.98 4 3 C2.35 2.67 0.7 2.34 -1 2 C-0.67 1.34 -0.34 0.68 0 0 Z " fill="#7B4642" transform="translate(283,260)"/>
<path d="M0 0 C0.99 0.33 1.98 0.66 3 1 C3 2.32 3 3.64 3 5 C2.01 4.67 1.02 4.34 0 4 C0 2.68 0 1.36 0 0 Z " fill="#DADBDD" transform="translate(252,210)"/>
<path d="M0 0 C0.99 0.33 1.98 0.66 3 1 C2.67 2.65 2.34 4.3 2 6 C1.01 5.34 0.02 4.68 -1 4 C-0.67 2.68 -0.34 1.36 0 0 Z " fill="#656063" transform="translate(367,178)"/>
<path d="M0 0 C0.66 0 1.32 0 2 0 C1.67 1.98 1.34 3.96 1 6 C0.34 6 -0.32 6 -1 6 C-0.67 4.02 -0.34 2.04 0 0 Z " fill="#353033" transform="translate(209,172)"/>
<path d="M0 0 C0.33 1.32 0.66 2.64 1 4 C-0.32 4.33 -1.64 4.66 -3 5 C-1.125 1.125 -1.125 1.125 0 0 Z " fill="#685E65" transform="translate(308,280)"/>
<path d="M0 0 C1.98 0 3.96 0 6 0 C5.67 0.99 5.34 1.98 5 3 C4.175 2.67 4.175 2.67 0 1 C0 0.67 0 0.34 0 0 Z " fill="#BFABB5" transform="translate(213,188)"/>
<path d="M0 0 C0.66 0.66 1.32 1.32 2 2 C1.67 2.66 1.34 3.32 1 4 C-1.062 4.625 -1.062 4.625 -3 5 C-1.125 1.125 -1.125 1.125 0 0 Z " fill="#D7C9D0" transform="translate(317,161)"/>
<path d="M0 0 C0.66 0.33 1.32 0.66 2 1 C1.505 1.495 1.505 1.495 -1 4 C-1.99 3.34 -2.98 2.68 -4 2 C-2.125 0.938 -2.125 0.938 0 0 Z " fill="#97868F" transform="translate(331,152)"/>
<path d="M0 0 C1.32 0.33 2.64 0.66 4 1 C4 1.66 4 2.32 4 3 C3.34 3 2.68 3 2 3 C1.67 3.66 1.34 4.32 1 5 C0.67 3.35 0.34 1.7 0 0 Z " fill="#584F51" transform="translate(297,284)"/>
<path d="M0 0 C0.66 0.66 1.32 1.32 2 2 C0.188 2.625 0.188 2.625 -2 3 C-2.99 2.34 -3.98 1.68 -5 1 C-2.625 0.375 -2.625 0.375 0 0 Z " fill="#675F63" transform="translate(282,282)"/>
<path d="M0 0 C1.32 1.32 2.64 2.64 4 4 C3.01 4.33 2.02 4.66 1 5 C0.67 3.35 0.34 1.7 0 0 Z " fill="#6A8BAC" transform="translate(311,221)"/>
<path d="M0 0 C3 3.75 3 3.75 3 6 C2.01 5.67 1.02 5.34 0 5 C-0.33 4.01 -0.66 3.02 -1 2 C-0.67 1.34 -0.34 0.68 0 0 Z " fill="#EEE4EC" transform="translate(189,192)"/>
<path d="M0 0 C0.33 1.32 0.66 2.64 1 4 C0.01 4.33 -0.98 4.66 -2 5 C-1.34 3.35 -0.68 1.7 0 0 Z " fill="#D3D9DE" transform="translate(319,213)"/>
<path d="M0 0 C0.66 0 1.32 0 2 0 C1.34 1.32 0.68 2.64 0 4 C-0.66 4 -1.32 4 -2 4 C-1.34 2.68 -0.68 1.36 0 0 Z " fill="#B09AA3" transform="translate(362,135)"/>
</svg>
