<svg width="104" height="68" viewBox="0 0 104 68" fill="none" xmlns="http://www.w3.org/2000/svg">
<g clip-path="url(#clip0_127_142)">
<path d="M5.20004 0.811243C5.92625 0.207972 7.3895 1.07572 7.80062 1.363C7.80062 1.363 8.86736 0.695111 9.92269 1.363C10.9732 2.02796 10.6995 3.17807 10.6971 3.1882C14.528 5.86501 21.3721 11.1581 25.1873 13.8562C25.1558 10.7454 25.6678 3.30166 28.4422 1.57394C28.6888 1.55163 28.936 1.53631 29.1834 1.52804C32.7089 1.43663 39.2498 5.86572 41.8641 8.14523C43.2122 9.3207 44.7183 10.899 46.0311 12.1657C48.1334 11.6313 50.0682 11.4025 51.9998 11.4157V56.1491C43.9259 56.133 37.2827 52.0147 37.2586 51.9997C36.775 53.0328 31.6311 65.6282 30.9139 66.1208C30.1985 66.6086 28.834 65.5491 28.3377 65.5485C27.8419 65.5485 27.7563 67.1812 26.5721 66.8845C25.3877 66.5876 15.1707 60.062 15.1707 59.3464C15.171 58.6309 15.8387 57.82 15.8387 57.82C15.8387 57.82 15.1703 57.4863 14.4071 56.3415C13.6438 55.1966 22.4686 40.456 21.7059 38.6901C20.9426 36.9251 12.2468 32.2979 11.8309 30.3894C11.4161 28.4813 15.0241 23.1864 14.5975 22.3747C14.1703 21.5637 1.00284 12.309 0.333825 11.6403C-0.333991 10.9725 1.48403 8.34325 2.0516 7.23409C2.61903 6.12508 1.66955 6.20146 2.24203 5.10421C2.81467 4.00677 4.47392 1.41457 5.20004 0.811243ZM17.2703 24.5212C15.8128 24.8923 13.4055 29.1483 14.1209 30.198C14.8364 31.2474 20.3535 35.5128 22.0477 34.9226C23.4785 34.4231 23.5243 32.9663 23.7821 31.7653C24.0723 31.1253 24.5491 30.7787 24.95 30.198L23.5194 29.196C21.9956 30.6234 20.5139 31.4101 19.6551 31.4382C18.7965 31.466 17.3175 31.3909 17.2703 30.8308C17.2237 30.2704 21.6702 29.6927 21.0858 27.2878L17.2703 24.5212Z" fill="#0F0B20" style="fill:#0F0B20;fill:color(display-p3 0.0590 0.0450 0.1274);fill-opacity:1;"/>
<path d="M29.3397 4.02295C33.472 4.0261 40.8923 10.0447 43.2987 13.1733C42.7977 13.443 41.9856 13.8483 41.5506 14.1704C40.2738 14.9266 38.0566 16.9987 38.0223 17.0308C38.0681 17.0112 41.1638 15.6914 41.8387 15.4565C42.5186 15.22 43.5281 14.9489 43.9774 14.8325C45.4799 14.4412 47.0097 14.1613 48.5535 13.9956C48.8628 13.9316 50.4646 13.8501 50.867 13.8237C51.3116 13.7886 51.6568 13.7769 51.9998 13.7808V53.8638C50.7438 53.8627 49.4485 53.6702 47.8748 53.2573C41.8477 51.6744 36.1428 48.8518 31.5907 44.5591C31.1708 44.1574 30.7702 43.7364 30.3885 43.2983C30.2566 43.1666 29.6732 42.3001 29.5301 42.0942C25.7666 42.8078 26.3467 41.3156 27.6405 38.603C28.0397 37.766 28.5329 36.8994 28.8739 36.0435L28.9227 35.9185L28.8153 35.8589C27.9054 35.3483 26.0677 34.0312 25.703 32.9917C25.3667 32.0337 27.42 31.2219 28.0428 30.689C29.2998 29.6135 30.0406 28.0326 30.8592 26.6187C31.9011 24.5448 34.1002 21.0491 35.5858 19.3149C34.4809 19.4992 32.618 21.8751 31.8709 22.3882C31.2488 22.8795 30.2193 24.2364 29.5877 24.9028C29.5295 24.8082 29.4731 24.7119 29.4178 24.6157C27.0459 20.4828 26.8527 10.4855 28.1756 5.88525C28.404 5.09108 28.6003 4.43313 29.3397 4.02295Z" fill="#FFECCD" style="fill:#FFECCD;fill:color(display-p3 1.0000 0.9255 0.8039);fill-opacity:1;"/>
<path d="M30.824 26.6958C30.824 27.9562 31.1044 34.6764 31.7723 35.2554C32.4404 35.8345 34.6827 37.4496 35.6844 36.4956C36.6861 35.5415 38.0028 34.0403 40.7791 33.6938C43.5555 33.3474 43.8895 34.1401 45.1775 33.6938C46.4656 33.2475 47.5922 31.2191 50.3807 30.6646C50.9691 30.5475 51.5423 30.5072 52.0945 30.52V54.1938C52.0631 54.1939 52.0315 54.1948 51.9998 54.1948C40.4353 54.1948 31.5983 44.6824 31.5555 44.6362L30.3533 43.3755C30.3723 43.3519 31.5044 41.937 29.4949 42.1724C27.4681 42.4099 26.7588 40.4551 27.6053 38.6802C28.4518 36.9054 28.4977 36.9764 28.8387 36.1206C29.1797 35.2646 28.9056 36.0392 28.8875 35.9946C28.881 35.9578 29.6834 36.4429 28.7801 35.936C27.8702 35.4255 26.0183 34.0676 25.6678 33.0688C25.3174 32.0701 27.0676 31.5703 28.0076 30.7661C28.9476 29.9616 30.3537 27.7652 30.824 26.6958Z" fill="white" style="fill:white;fill-opacity:1;"/>
<path d="M52.0955 48.6841C49.038 48.6761 46.7513 44.3645 45.8933 41.8384C45.0344 39.3101 41.8865 36.9008 42.4675 36.3198C43.0484 35.7394 43.2705 37.1155 45.1785 37.9741C47.0868 38.8326 51.6255 38.0232 51.6257 36.3022C51.6257 34.5811 50.7117 34.8736 49.7576 33.9194C48.8631 33.0249 49.1508 31.882 51.5808 31.7007L52.0955 31.6772V48.6841Z" fill="#0F0B20" style="fill:#0F0B20;fill:color(display-p3 0.0590 0.0450 0.1274);fill-opacity:1;"/>
<path d="M25.6185 33.0131C25.9047 34.1103 27.9784 35.4849 28.8883 35.9955C28.5473 36.8515 28.0053 37.8429 27.606 38.68C26.3121 41.3928 25.7314 42.8856 29.4951 42.172C29.6382 42.3779 30.2221 43.2445 30.3538 43.3759C31.7172 41.8681 34.1579 37.8791 35.6702 36.5068C35.6702 36.5068 32.5836 35.2665 31.6772 33.3947C30.7707 31.523 30.8242 26.6958 30.8242 26.6958C30.8242 26.6958 28.9438 29.4419 28.0038 30.2461C27.0638 31.0503 25.3322 31.9158 25.6185 33.0131Z" fill="#FFAF9D" style="fill:#FFAF9D;fill:color(display-p3 1.0000 0.6863 0.6157);fill-opacity:1;"/>
<path d="M46.3018 39.5127C46.753 39.542 47.543 39.4921 48.0193 39.4766C48.0204 40.1108 48.0089 40.6192 47.9662 41.2509C47.1883 41.2889 46.5863 40.1335 46.3018 39.5127Z" fill="white" style="fill:white;fill-opacity:1;"/>
<path d="M29.5528 24.9793C26.1428 18.8917 26.7153 5.24769 29.2914 4.00732C31.421 6.22539 35.8644 12.9368 36.953 15.8101C35.5047 15.4551 33.8082 15.2149 33.5058 15.5506C33.2033 15.8862 34.2052 18.5101 35.7041 19.2762C34.6822 19.5596 29.5528 24.9793 29.5528 24.9793Z" fill="#FFAF9D" style="fill:#FFAF9D;fill:color(display-p3 1.0000 0.6863 0.6157);fill-opacity:1;"/>
<path d="M40.3593 26.5724C43.8419 26.2862 46.7043 30.3889 46.2272 30.866C45.7502 31.343 43.7646 28.9191 40.9318 28.8623C38.099 28.8055 35.5887 31.5816 35.0525 31.1374C34.5163 30.6933 36.8768 26.8586 40.3593 26.5724Z" fill="#0F0B20" style="fill:#0F0B20;fill:color(display-p3 0.0590 0.0450 0.1274);fill-opacity:1;"/>
<path d="M42.8975 23.7373C43.454 22.8948 45.7646 24.7643 46.0305 25.4948C46.2964 26.2253 46.0305 26.3268 45.7986 26.5766L42.8975 23.7373Z" fill="#FFAF9D" style="fill:#FFAF9D;fill:color(display-p3 1.0000 0.6863 0.6157);fill-opacity:1;"/>
<path d="M5.58181 2.83107C5.765 2.50562 6.01087 2.38521 6.24941 2.05127C7.20353 2.43292 21.9334 13.8581 24.2362 15.0169C24.9372 15.3697 25.2488 15.7306 25.2708 16.5076C25.2025 17.9191 25.8865 21.29 26.2374 22.6943C23.343 20.6256 19.6704 17.9165 16.8838 15.7239C15.6746 14.7249 14.0798 13.6297 12.7832 12.6863L8.00224 9.13586C6.58698 8.09853 4.96429 6.96656 3.60352 5.88314C3.95196 5.21354 5.1285 3.49057 5.58181 2.83107Z" fill="#E0D8F6" style="fill:#E0D8F6;fill:color(display-p3 0.8784 0.8471 0.9647);fill-opacity:1;"/>
<path d="M26.4255 43.9824C27.1926 44.3194 27.5742 44.3671 28.3375 44.224C30.2935 46.7524 30.7229 47.2295 33.1473 49.2427C31.5549 52.9762 29.2193 59.95 28.6592 60.2925C28.099 60.635 21.2293 56.2937 21.0754 55.5218C20.9215 54.75 25.1505 47.3935 26.4255 43.9824Z" fill="#B1A7D0" style="fill:#B1A7D0;fill:color(display-p3 0.6941 0.6549 0.8157);fill-opacity:1;"/>
<path d="M26.7314 54.3355C26.9699 54.2546 27.2256 54.2382 27.4725 54.2879C27.7194 54.3377 27.9488 54.4519 28.1373 54.6189C28.3257 54.7862 28.4664 55.0004 28.5451 55.2397C28.6239 55.479 28.6379 55.7349 28.5858 55.9814C28.5334 56.2278 28.4167 56.456 28.2475 56.6427C28.0783 56.8294 27.8627 56.9679 27.6226 57.0443C26.8775 57.2809 26.0808 56.8735 25.8365 56.1312C25.5921 55.3888 25.9913 54.5874 26.7314 54.3355Z" fill="#FFECCD" style="fill:#FFECCD;fill:color(display-p3 1.0000 0.9255 0.8039);fill-opacity:1;"/>
<path d="M10.5911 13.3101L26.4296 24.9504C26.7828 25.2328 27.4766 27.006 27.6562 27.5398C27.4117 27.8808 27.0513 28.49 26.7158 28.6238C26.7158 28.6238 9.87546 16.6972 9.06445 15.7908C9.30518 15.2255 10.2271 13.8365 10.5911 13.3101Z" fill="#B1A7D0" style="fill:#B1A7D0;fill:color(display-p3 0.6941 0.6549 0.8157);fill-opacity:1;"/>
<path d="M3.37126 8.23828L9.49352 12.5944C9.0301 13.3768 7.87151 15.1228 7.87151 15.1228L1.9082 10.8292C1.97595 10.0395 2.88981 8.97983 3.37126 8.23828Z" fill="#B1A7D0" style="fill:#B1A7D0;fill:color(display-p3 0.6941 0.6549 0.8157);fill-opacity:1;"/>
<path d="M23.8535 46.1798L19.4168 55.64C19.417 56.7058 28.5765 62.3701 29.1931 62.0606C29.8097 61.751 34.2058 50.1394 34.2058 50.1394C34.4463 50.2405 35.5693 50.9304 35.8278 51.0935C35.8278 51.0935 31.0572 63.6403 30.1031 64.2605C29.1489 64.8807 16.9361 57.2476 16.793 55.9119C16.793 55.1486 22.3738 44.3672 22.3738 44.3672L23.8535 46.1798Z" fill="#E0D8F6" style="fill:#E0D8F6;fill:color(display-p3 0.8784 0.8471 0.9647);fill-opacity:1;"/>
<path d="M24.6488 35.1909C25.0461 35.6307 26.0623 36.2235 26.429 36.6692C25.6441 39.19 24.2822 40.1686 24.982 43.2117C24.6745 44.0437 24.2471 45.347 23.8528 46.1796L22.373 44.3671C24.2345 39.3576 24.6488 38.7851 23.2412 36.6692C23.6926 36.2388 24.3122 35.6948 24.6488 35.1909Z" fill="#B1A7D0" style="fill:#B1A7D0;fill:color(display-p3 0.6941 0.6549 0.8157);fill-opacity:1;"/>
<path d="M52.0479 41.7426C52.0638 41.7431 52.0799 41.7439 52.0957 41.7445V47.5131C52.0799 47.5131 52.0639 47.515 52.0479 47.515C49.3286 47.5149 45.2261 41.499 52.0479 41.7426Z" fill="#FFAF9D" style="fill:#FFAF9D;fill:color(display-p3 1.0000 0.6863 0.6157);fill-opacity:1;"/>
<path d="M5.58203 2.83142C5.76522 2.50596 5.9634 2.24244 6.24964 2.00391C10.2356 4.65104 23.5208 14.2318 24.4258 14.8369C25.3308 15.4421 25.3322 15.5048 25.2845 16.7929C24.1376 15.967 5.58203 2.83142 5.58203 2.83142Z" fill="white" style="fill:white;fill-opacity:1;"/>
</g>
<g clip-path="url(#clip1_127_142)">
<path d="M98.8001 0.811088C98.0739 0.208211 96.6108 1.07549 96.1995 1.36285C96.1883 1.35589 95.1271 0.69856 94.0774 1.36285C93.0341 2.02312 93.2969 3.16215 93.303 3.18804C89.4722 5.86477 82.6281 11.1579 78.8128 13.856C78.8443 10.7449 78.3323 3.30124 75.5579 1.57378C75.3113 1.55147 75.0641 1.53616 74.8167 1.52788C71.2912 1.43648 64.7503 5.86555 62.136 8.14507C60.7878 9.32056 59.2819 10.8988 57.969 12.1656C55.8668 11.6311 53.9319 11.4023 52.0003 11.4156V56.15C60.0565 56.1339 66.6884 52.0334 66.7415 52.0005C67.2256 53.035 72.37 65.632 73.0862 66.1216C73.8016 66.6094 75.1661 65.549 75.6624 65.5484C76.1582 65.5484 76.2438 67.1811 77.428 66.8843C78.6127 66.5871 88.8273 60.0639 88.8294 59.3472C88.8294 58.6343 88.1663 57.8268 88.1614 57.8209C88.1614 57.8209 88.8297 57.4863 89.593 56.3414C90.3558 55.1958 81.5309 40.4551 82.2942 38.69C83.0581 36.9247 91.7544 32.2974 92.1692 30.3892C92.584 28.481 88.9753 23.1856 89.4026 22.3746C89.8312 21.5627 102.998 12.3081 103.666 11.6402C104.334 10.9721 102.516 8.34289 101.948 7.23394C101.381 6.12504 102.33 6.20215 101.758 5.10503C101.186 4.00779 99.5262 1.41447 98.8001 0.811088ZM86.7297 24.521C88.1874 24.892 90.5947 29.1492 89.8792 30.1988C89.1627 31.2488 83.6463 35.5128 81.9524 34.9224C80.5215 34.4229 80.4758 32.9662 80.218 31.7652C79.9278 31.1253 79.4509 30.7794 79.0501 30.1988L80.4807 29.1968C82.0045 30.6243 83.4862 31.411 84.345 31.439C85.2037 31.4668 86.6831 31.391 86.7297 30.8306C86.7758 30.2703 82.3303 29.6931 82.9143 27.2886L86.7297 24.521Z" fill="#0F0B20" style="fill:#0F0B20;fill:color(display-p3 0.0590 0.0450 0.1274);fill-opacity:1;"/>
<path d="M74.6603 4.02295C70.528 4.0261 63.1077 10.0447 60.7013 13.1733C61.2023 13.443 62.0143 13.8483 62.4494 14.1704C63.7362 14.9325 65.9787 17.0308 65.9787 17.0308C65.9787 17.0308 62.8413 15.6931 62.1613 15.4565C61.4814 15.22 60.4719 14.9489 60.0226 14.8325C58.5201 14.4412 56.9902 14.1613 55.4465 13.9956C55.1371 13.9316 53.5354 13.8501 53.133 13.8237C52.6884 13.7886 52.3432 13.7769 52.0002 13.7808V53.8638C53.2562 53.8627 54.5515 53.6702 56.1252 53.2573C62.1523 51.6744 67.8572 48.8518 72.4093 44.5591C72.8292 44.1574 73.2298 43.7364 73.6115 43.2983C73.7433 43.1666 74.3268 42.3001 74.4699 42.0942C78.2334 42.8078 77.6534 41.3156 76.3595 38.603C75.9603 37.766 75.4671 36.8994 75.1261 36.0435L75.0773 35.9185L75.1847 35.8589C76.0946 35.3483 77.9323 34.0312 78.297 32.9917C78.6333 32.0337 76.58 31.2219 75.9572 30.689C74.7002 29.6135 73.9594 28.0326 73.1408 26.6187C72.0989 24.5448 69.8998 21.049 68.4142 19.3149C69.5191 19.4992 71.382 21.8751 72.1291 22.3882C72.7512 22.8795 73.7807 24.2364 74.4123 24.9028C74.4705 24.8082 74.5269 24.7119 74.5822 24.6157C76.9541 20.4828 77.1473 10.4855 75.8244 5.88525C75.596 5.09107 75.3997 4.43313 74.6603 4.02295Z" fill="#FFECCD" style="fill:#FFECCD;fill:color(display-p3 1.0000 0.9255 0.8039);fill-opacity:1;"/>
<path d="M73.176 26.6958C73.176 27.9562 72.8956 34.6764 72.2278 35.2554C71.5596 35.8345 69.3174 37.4497 68.3156 36.4956C67.3139 35.5415 65.9972 34.0403 63.2209 33.6938C60.4445 33.3474 60.1105 34.1401 58.8225 33.6938C57.5344 33.2475 56.4078 31.2191 53.6194 30.6646C53.0309 30.5475 52.4577 30.5072 51.9055 30.52V54.1938C51.9369 54.1939 51.9685 54.1948 52.0002 54.1948C63.5667 54.1948 72.4047 44.6792 72.4445 44.6362L73.6467 43.3755C73.6285 43.3528 72.4949 41.9369 74.5051 42.1724C76.5319 42.4099 77.2412 40.4551 76.3947 38.6802C75.5482 36.9054 75.5023 36.9764 75.1613 36.1206C74.8203 35.2646 75.0944 36.0392 75.1125 35.9946C75.1189 35.9579 74.3166 36.4429 75.2199 35.936C76.1298 35.4255 77.9817 34.0676 78.3322 33.0688C78.6826 32.0701 76.9324 31.5703 75.9924 30.7661C75.0524 29.9616 73.6463 27.7652 73.176 26.6958Z" fill="white" style="fill:white;fill-opacity:1;"/>
<path d="M51.9045 48.6841C54.962 48.6761 57.2487 44.3645 58.1067 41.8384C58.9656 39.3101 62.1135 36.9008 61.5325 36.3198C60.9516 35.7394 60.7295 37.1155 58.8215 37.9741C56.9132 38.8326 52.3745 38.0232 52.3743 36.3022C52.3743 34.5811 53.2883 34.8736 54.2424 33.9194C55.1369 33.0249 54.8492 31.882 52.4192 31.7007L51.9045 31.6772V48.6841Z" fill="#0F0B20" style="fill:#0F0B20;fill:color(display-p3 0.0590 0.0450 0.1274);fill-opacity:1;"/>
<path d="M78.3815 33.0131C78.0953 34.1103 76.0216 35.4849 75.1117 35.9955C75.4527 36.8515 75.9947 37.8429 76.394 38.68C77.6879 41.3928 78.2686 42.8856 74.5049 42.172C74.3618 42.3779 73.7779 43.2445 73.6462 43.3759C72.2828 41.8681 69.8421 37.8791 68.3298 36.5068C68.3298 36.5068 71.4164 35.2665 72.3228 33.3947C73.2293 31.523 73.1758 26.6958 73.1758 26.6958C73.1758 26.6958 75.0562 29.4419 75.9962 30.2461C76.9362 31.0503 78.6678 31.9158 78.3815 33.0131Z" fill="#FFAF9D" style="fill:#FFAF9D;fill:color(display-p3 1.0000 0.6863 0.6157);fill-opacity:1;"/>
<path d="M57.6982 39.5127C57.247 39.542 56.457 39.4921 55.9807 39.4766C55.9796 40.1108 55.9911 40.6192 56.0338 41.2509C56.8117 41.2889 57.4137 40.1335 57.6982 39.5127Z" fill="white" style="fill:white;fill-opacity:1;"/>
<path d="M74.4472 24.9793C77.8572 18.8917 77.2847 5.24769 74.7086 4.00732C72.579 6.22539 68.1356 12.9368 67.047 15.8101C68.4953 15.4551 70.1918 15.2149 70.4942 15.5506C70.7967 15.8862 69.7948 18.5101 68.2959 19.2762C69.3178 19.5596 74.4472 24.9793 74.4472 24.9793Z" fill="#FFAF9D" style="fill:#FFAF9D;fill:color(display-p3 1.0000 0.6863 0.6157);fill-opacity:1;"/>
<path d="M63.6407 26.5724C60.1581 26.2862 57.2957 30.3889 57.7728 30.866C58.2498 31.343 60.2354 28.9191 63.0682 28.8623C65.901 28.8055 68.4113 31.5816 68.9475 31.1374C69.4837 30.6933 67.1232 26.8586 63.6407 26.5724Z" fill="#0F0B20" style="fill:#0F0B20;fill:color(display-p3 0.0590 0.0450 0.1274);fill-opacity:1;"/>
<path d="M61.1025 23.7373C60.546 22.8948 58.2354 24.7643 57.9695 25.4948C57.7036 26.2253 57.9695 26.3268 58.2014 26.5766L61.1025 23.7373Z" fill="#FFAF9D" style="fill:#FFAF9D;fill:color(display-p3 1.0000 0.6863 0.6157);fill-opacity:1;"/>
<path d="M98.4182 2.83107C98.235 2.50562 97.9891 2.38521 97.7506 2.05127C96.7965 2.43292 82.0666 13.8581 79.7638 15.0169C79.0628 15.3697 78.7512 15.7306 78.7292 16.5076C78.7975 17.9191 78.1135 21.29 77.7626 22.6943C80.657 20.6256 84.3296 17.9165 87.1162 15.7239C88.3254 14.7249 89.9202 13.6297 91.2168 12.6863L95.9978 9.13586C97.413 8.09853 99.0357 6.96656 100.396 5.88314C100.048 5.21354 98.8715 3.49057 98.4182 2.83107Z" fill="#E0D8F6" style="fill:#E0D8F6;fill:color(display-p3 0.8784 0.8471 0.9647);fill-opacity:1;"/>
<path d="M77.5745 43.9824C76.8074 44.3194 76.4258 44.3671 75.6625 44.224C73.7065 46.7524 73.2771 47.2295 70.8527 49.2427C72.4451 52.9762 74.7807 59.95 75.3408 60.2925C75.901 60.635 82.7707 56.2937 82.9246 55.5218C83.0785 54.75 78.8495 47.3935 77.5745 43.9824Z" fill="#B1A7D0" style="fill:#B1A7D0;fill:color(display-p3 0.6941 0.6549 0.8157);fill-opacity:1;"/>
<path d="M77.2686 54.3355C77.0301 54.2546 76.7744 54.2382 76.5275 54.2879C76.2806 54.3377 76.0512 54.4519 75.8627 54.6189C75.6743 54.7862 75.5336 55.0004 75.4549 55.2397C75.3761 55.479 75.3621 55.7349 75.4142 55.9814C75.4666 56.2278 75.5833 56.456 75.7525 56.6427C75.9217 56.8294 76.1373 56.9679 76.3774 57.0443C77.1225 57.2809 77.9192 56.8735 78.1635 56.1312C78.4079 55.3888 78.0087 54.5874 77.2686 54.3355Z" fill="#FFECCD" style="fill:#FFECCD;fill:color(display-p3 1.0000 0.9255 0.8039);fill-opacity:1;"/>
<path d="M93.4089 13.3101L77.5704 24.9504C77.2172 25.2328 76.5234 27.006 76.3438 27.5398C76.5883 27.8808 76.9487 28.49 77.2842 28.6238C77.2842 28.6238 94.1245 16.6972 94.9355 15.7908C94.6948 15.2255 93.7729 13.8365 93.4089 13.3101Z" fill="#B1A7D0" style="fill:#B1A7D0;fill:color(display-p3 0.6941 0.6549 0.8157);fill-opacity:1;"/>
<path d="M100.629 8.23828L94.5065 12.5944C94.9699 13.3768 96.1285 15.1228 96.1285 15.1228L102.092 10.8292C102.024 10.0395 101.11 8.97983 100.629 8.23828Z" fill="#B1A7D0" style="fill:#B1A7D0;fill:color(display-p3 0.6941 0.6549 0.8157);fill-opacity:1;"/>
<path d="M80.1465 46.1798L84.5832 55.64C84.583 56.7058 75.4235 62.3701 74.8069 62.0606C74.1903 61.751 69.7942 50.1394 69.7942 50.1394C69.5537 50.2405 68.4307 50.9304 68.1722 51.0935C68.1722 51.0935 72.9428 63.6403 73.8969 64.2605C74.8511 64.8807 87.0639 57.2476 87.207 55.9119C87.207 55.1486 81.6262 44.3672 81.6262 44.3672L80.1465 46.1798Z" fill="#E0D8F6" style="fill:#E0D8F6;fill:color(display-p3 0.8784 0.8471 0.9647);fill-opacity:1;"/>
<path d="M79.3512 35.1909C78.9539 35.6307 77.9377 36.2235 77.571 36.6692C78.3559 39.19 79.7178 40.1686 79.018 43.2117C79.3255 44.0437 79.7529 45.347 80.1472 46.1796L81.627 44.3671C79.7655 39.3576 79.3512 38.7851 80.7588 36.6692C80.3074 36.2388 79.6878 35.6948 79.3512 35.1909Z" fill="#B1A7D0" style="fill:#B1A7D0;fill:color(display-p3 0.6941 0.6549 0.8157);fill-opacity:1;"/>
<path d="M51.9522 41.7425C51.9362 41.7431 51.9202 41.7439 51.9043 41.7445V47.5131C51.9201 47.5131 51.9362 47.515 51.9522 47.515C54.6714 47.5148 58.7739 41.499 51.9522 41.7425Z" fill="#FFAF9D" style="fill:#FFAF9D;fill:color(display-p3 1.0000 0.6863 0.6157);fill-opacity:1;"/>
<path d="M98.418 2.83142C98.2348 2.50596 98.0366 2.24244 97.7504 2.00391C93.7644 4.65104 80.4792 14.2318 79.5742 14.8369C78.6692 15.4421 78.6678 15.5048 78.7155 16.7929C79.8624 15.967 98.418 2.83142 98.418 2.83142Z" fill="white" style="fill:white;fill-opacity:1;"/>
</g>
<defs>
<clipPath id="clip0_127_142">
<rect width="52" height="67.3615" fill="white" style="fill:white;fill-opacity:1;"/>
</clipPath>
<clipPath id="clip1_127_142">
<rect width="52" height="67.3615" fill="white" style="fill:white;fill-opacity:1;" transform="matrix(-1 0 0 1 104 0)"/>
</clipPath>
</defs>
</svg>
