<svg width="104" height="68" viewBox="0 0 104 68" fill="none" xmlns="http://www.w3.org/2000/svg">
<mask id="mask0_175_2398" style="mask-type:luminance" maskUnits="userSpaceOnUse" x="0" y="0" width="52" height="68">
<path d="M52 0H0V67.3615H52V0Z" fill="white" style="fill:white;fill-opacity:1;"/>
</mask>
<g mask="url(#mask0_175_2398)">
<path d="M5.20004 0.811243C5.92625 0.207972 7.3895 1.07572 7.80062 1.363C7.80062 1.363 8.86736 0.695111 9.92269 1.363C10.9732 2.02796 10.6995 3.17807 10.6971 3.1882C14.528 5.86501 21.3721 11.1581 25.1873 13.8562C25.1558 10.7454 25.6678 3.30166 28.4422 1.57394C28.6888 1.55163 28.936 1.53631 29.1834 1.52804C32.7089 1.43663 39.2498 5.86572 41.8641 8.14523C43.2122 9.3207 44.7183 10.899 46.0311 12.1657C48.1334 11.6313 50.0682 11.4025 51.9998 11.4157V56.1491C43.9259 56.133 37.2827 52.0147 37.2586 51.9997C36.775 53.0328 31.6311 65.6282 30.9139 66.1208C30.1985 66.6086 28.834 65.5491 28.3377 65.5485C27.8419 65.5485 27.7563 67.1812 26.5721 66.8845C25.3877 66.5876 15.1707 60.062 15.1707 59.3464C15.171 58.6309 15.8387 57.82 15.8387 57.82C15.8387 57.82 15.1703 57.4863 14.4071 56.3415C13.6438 55.1966 22.4686 40.456 21.7059 38.6901C20.9426 36.9251 12.2468 32.2979 11.8309 30.3894C11.4161 28.4813 15.0241 23.1864 14.5975 22.3747C14.1703 21.5637 1.00284 12.309 0.333824 11.6403C-0.333992 10.9725 1.48403 8.34325 2.0516 7.23409C2.61903 6.12508 1.66955 6.20146 2.24203 5.10421C2.81467 4.00677 4.47392 1.41457 5.20004 0.811243ZM17.2703 24.5212C15.8128 24.8923 13.4055 29.1483 14.1209 30.198C14.8364 31.2474 20.3535 35.5128 22.0477 34.9226C23.4785 34.4231 23.5243 32.9663 23.7821 31.7653C24.0723 31.1253 24.5491 30.7787 24.95 30.198L23.5194 29.196C21.9956 30.6234 20.5139 31.4101 19.6551 31.4382C18.7965 31.466 17.3175 31.3909 17.2703 30.8308C17.2237 30.2704 21.6702 29.6927 21.0858 27.2878L17.2703 24.5212Z" fill="#0F0B20" style="fill:#0F0B20;fill:color(display-p3 0.0590 0.0450 0.1274);fill-opacity:1;"/>
<path d="M29.3397 4.02295C33.472 4.0261 40.8923 10.0447 43.2987 13.1733C42.7977 13.443 41.9856 13.8483 41.5506 14.1704C40.2738 14.9266 38.0566 16.9987 38.0223 17.0308C38.0681 17.0112 41.1638 15.6914 41.8387 15.4565C42.5186 15.22 43.5281 14.9489 43.9774 14.8325C45.4799 14.4412 47.0097 14.1613 48.5535 13.9956C48.8628 13.9316 50.4646 13.8501 50.867 13.8237C51.3116 13.7886 51.6568 13.7769 51.9998 13.7808V53.8638C50.7438 53.8627 49.4485 53.6702 47.8748 53.2573C41.8477 51.6744 36.1428 48.8518 31.5907 44.5591C31.1708 44.1574 30.7702 43.7364 30.3885 43.2983C30.2566 43.1666 29.6732 42.3001 29.5301 42.0942C25.7666 42.8078 26.3467 41.3156 27.6405 38.603C28.0397 37.766 28.5329 36.8994 28.8739 36.0435L28.9227 35.9185L28.8153 35.8589C27.9054 35.3483 26.0677 34.0312 25.703 32.9917C25.3667 32.0337 27.42 31.2219 28.0428 30.689C29.2998 29.6135 30.0406 28.0326 30.8592 26.6187C31.9011 24.5448 34.1002 21.0491 35.5858 19.3149C34.4809 19.4992 32.618 21.8751 31.8709 22.3882C31.2488 22.8795 30.2193 24.2364 29.5877 24.9028C29.5295 24.8082 29.4731 24.7119 29.4178 24.6157C27.0459 20.4828 26.8527 10.4855 28.1756 5.88525C28.404 5.09108 28.6003 4.43313 29.3397 4.02295Z" fill="#FFECCD" style="fill:#FFECCD;fill:color(display-p3 1.0000 0.9255 0.8039);fill-opacity:1;"/>
<path d="M30.824 26.6958C30.824 27.9562 31.1044 34.6764 31.7723 35.2554C32.4404 35.8345 34.6827 37.4496 35.6844 36.4956C36.6861 35.5415 38.0028 34.0403 40.7791 33.6938C43.5555 33.3474 43.8895 34.1401 45.1775 33.6938C46.4656 33.2475 47.5922 31.2191 50.3807 30.6646C50.9691 30.5475 51.5423 30.5072 52.0945 30.52V54.1938C52.0631 54.1939 52.0315 54.1948 51.9998 54.1948C40.4353 54.1948 31.5983 44.6824 31.5555 44.6362L30.3533 43.3755C30.3723 43.3519 31.5044 41.937 29.4949 42.1724C27.4681 42.4099 26.7588 40.4551 27.6053 38.6802C28.4518 36.9054 28.4977 36.9764 28.8387 36.1206C29.1797 35.2646 28.9056 36.0392 28.8875 35.9946C28.881 35.9578 29.6834 36.4429 28.7801 35.936C27.8702 35.4255 26.0183 34.0676 25.6678 33.0688C25.3174 32.0701 27.0676 31.5703 28.0076 30.7661C28.9476 29.9616 30.3537 27.7652 30.824 26.6958Z" fill="white" style="fill:white;fill-opacity:1;"/>
<path d="M52.0955 48.6841C49.038 48.6761 46.7513 44.3645 45.8933 41.8384C45.0344 39.3101 41.8865 36.9008 42.4675 36.3198C43.0484 35.7394 43.2705 37.1155 45.1785 37.9741C47.0868 38.8326 51.6255 38.0232 51.6257 36.3022C51.6257 34.5811 50.7117 34.8736 49.7576 33.9194C48.8631 33.0249 49.1508 31.882 51.5808 31.7007L52.0955 31.6772V48.6841Z" fill="#0F0B20" style="fill:#0F0B20;fill:color(display-p3 0.0590 0.0450 0.1274);fill-opacity:1;"/>
<path d="M25.6185 33.0131C25.9047 34.1103 27.9784 35.4849 28.8883 35.9955C28.5473 36.8515 28.0053 37.8429 27.606 38.68C26.3121 41.3928 25.7314 42.8856 29.4951 42.172C29.6382 42.3779 30.2221 43.2445 30.3538 43.3759C31.7172 41.8681 34.1579 37.8791 35.6702 36.5068C35.6702 36.5068 32.5836 35.2665 31.6772 33.3947C30.7707 31.523 30.8242 26.6958 30.8242 26.6958C30.8242 26.6958 28.9438 29.4419 28.0038 30.2461C27.0638 31.0503 25.3322 31.9158 25.6185 33.0131Z" fill="#FFAF9D" style="fill:#FFAF9D;fill:color(display-p3 1.0000 0.6863 0.6157);fill-opacity:1;"/>
<path d="M46.3018 39.5127C46.753 39.542 47.543 39.4921 48.0193 39.4766C48.0204 40.1108 48.0089 40.6192 47.9662 41.2509C47.1883 41.2889 46.5863 40.1335 46.3018 39.5127Z" fill="white" style="fill:white;fill-opacity:1;"/>
<path d="M29.5528 24.9793C26.1428 18.8917 26.7153 5.24769 29.2914 4.00732C31.421 6.22539 35.8644 12.9368 36.953 15.8101C35.5047 15.4551 33.8082 15.2149 33.5058 15.5506C33.2033 15.8862 34.2052 18.5101 35.7041 19.2762C34.6822 19.5596 29.5528 24.9793 29.5528 24.9793Z" fill="#FFAF9D" style="fill:#FFAF9D;fill:color(display-p3 1.0000 0.6863 0.6157);fill-opacity:1;"/>
<path d="M40.3593 26.5724C43.8419 26.2862 46.7043 30.3889 46.2272 30.866C45.7502 31.343 43.7646 28.9191 40.9318 28.8623C38.099 28.8055 35.5887 31.5816 35.0525 31.1374C34.5163 30.6933 36.8768 26.8586 40.3593 26.5724Z" fill="#0F0B20" style="fill:#0F0B20;fill:color(display-p3 0.0590 0.0450 0.1274);fill-opacity:1;"/>
<path d="M42.8975 23.7373C43.454 22.8948 45.7646 24.7643 46.0305 25.4948C46.2964 26.2253 46.0305 26.3268 45.7986 26.5766L42.8975 23.7373Z" fill="#FFAF9D" style="fill:#FFAF9D;fill:color(display-p3 1.0000 0.6863 0.6157);fill-opacity:1;"/>
<path d="M5.58181 2.83107C5.765 2.50562 6.01087 2.38521 6.24941 2.05127C7.20353 2.43292 21.9334 13.8581 24.2362 15.0169C24.9372 15.3697 25.2488 15.7306 25.2708 16.5076C25.2025 17.9191 25.8865 21.29 26.2374 22.6943C23.343 20.6256 19.6704 17.9165 16.8838 15.7239C15.6746 14.7249 14.0798 13.6297 12.7832 12.6863L8.00224 9.13586C6.58698 8.09853 4.96429 6.96656 3.60352 5.88314C3.95196 5.21354 5.1285 3.49057 5.58181 2.83107Z" fill="#E0D8F6" style="fill:#E0D8F6;fill:color(display-p3 0.8784 0.8471 0.9647);fill-opacity:1;"/>
<path d="M26.4255 43.9824C27.1926 44.3194 27.5742 44.3671 28.3375 44.224C30.2935 46.7524 30.7229 47.2295 33.1473 49.2427C31.5549 52.9762 29.2193 59.95 28.6592 60.2925C28.099 60.635 21.2293 56.2937 21.0754 55.5218C20.9215 54.75 25.1505 47.3935 26.4255 43.9824Z" fill="#B1A7D0" style="fill:#B1A7D0;fill:color(display-p3 0.6941 0.6549 0.8157);fill-opacity:1;"/>
<path d="M26.7314 54.3355C26.9699 54.2546 27.2256 54.2382 27.4725 54.2879C27.7194 54.3377 27.9488 54.4519 28.1373 54.6189C28.3257 54.7862 28.4664 55.0004 28.5451 55.2397C28.6239 55.479 28.6379 55.7349 28.5858 55.9814C28.5334 56.2278 28.4167 56.456 28.2475 56.6427C28.0783 56.8294 27.8627 56.9679 27.6226 57.0443C26.8775 57.2809 26.0808 56.8735 25.8365 56.1312C25.5921 55.3888 25.9913 54.5874 26.7314 54.3355Z" fill="#FFECCD" style="fill:#FFECCD;fill:color(display-p3 1.0000 0.9255 0.8039);fill-opacity:1;"/>
<path d="M10.5911 13.3101L26.4296 24.9504C26.7828 25.2328 27.4766 27.006 27.6562 27.5398C27.4117 27.8808 27.0513 28.49 26.7158 28.6238C26.7158 28.6238 9.87546 16.6972 9.06445 15.7908C9.30518 15.2255 10.2271 13.8365 10.5911 13.3101Z" fill="#B1A7D0" style="fill:#B1A7D0;fill:color(display-p3 0.6941 0.6549 0.8157);fill-opacity:1;"/>
<path d="M3.37126 8.23828L9.49352 12.5944C9.0301 13.3768 7.87151 15.1228 7.87151 15.1228L1.9082 10.8292C1.97595 10.0395 2.88981 8.97983 3.37126 8.23828Z" fill="#B1A7D0" style="fill:#B1A7D0;fill:color(display-p3 0.6941 0.6549 0.8157);fill-opacity:1;"/>
<path d="M23.8535 46.1798L19.4168 55.64C19.417 56.7058 28.5765 62.3701 29.1931 62.0606C29.8097 61.751 34.2058 50.1394 34.2058 50.1394C34.4463 50.2405 35.5693 50.9304 35.8278 51.0935C35.8278 51.0935 31.0572 63.6403 30.1031 64.2605C29.1489 64.8807 16.9361 57.2476 16.793 55.9119C16.793 55.1486 22.3738 44.3672 22.3738 44.3672L23.8535 46.1798Z" fill="#E0D8F6" style="fill:#E0D8F6;fill:color(display-p3 0.8784 0.8471 0.9647);fill-opacity:1;"/>
<path d="M24.6488 35.1909C25.0461 35.6307 26.0623 36.2235 26.429 36.6692C25.6441 39.19 24.2822 40.1686 24.982 43.2117C24.6745 44.0437 24.2471 45.347 23.8528 46.1796L22.373 44.3671C24.2345 39.3576 24.6488 38.7851 23.2412 36.6692C23.6926 36.2388 24.3122 35.6948 24.6488 35.1909Z" fill="#B1A7D0" style="fill:#B1A7D0;fill:color(display-p3 0.6941 0.6549 0.8157);fill-opacity:1;"/>
<path d="M52.0479 41.7426C52.0638 41.7431 52.0799 41.7439 52.0957 41.7445V47.5131C52.0799 47.5131 52.0639 47.515 52.0479 47.515C49.3286 47.5149 45.2261 41.499 52.0479 41.7426Z" fill="#FFAF9D" style="fill:#FFAF9D;fill:color(display-p3 1.0000 0.6863 0.6157);fill-opacity:1;"/>
<path d="M5.58203 2.83142C5.76522 2.50596 5.9634 2.24244 6.24964 2.00391C10.2356 4.65104 23.5208 14.2318 24.4258 14.8369C25.3308 15.4421 25.3322 15.5048 25.2845 16.7929C24.1376 15.967 5.58203 2.83142 5.58203 2.83142Z" fill="white" style="fill:white;fill-opacity:1;"/>
</g>
<mask id="mask1_175_2398" style="mask-type:luminance" maskUnits="userSpaceOnUse" x="52" y="0" width="52" height="68">
<path d="M52 0H104V67.3615H52V0Z" fill="white" style="fill:white;fill-opacity:1;"/>
</mask>
<g mask="url(#mask1_175_2398)">
<path d="M98.7998 0.811088C98.0736 0.208211 96.6105 1.07549 96.1992 1.36285C96.188 1.35589 95.1268 0.69856 94.0771 1.36285C93.0338 2.02312 93.2966 3.16215 93.3027 3.18804C89.4719 5.86477 82.6278 11.1579 78.8125 13.856C78.844 10.7449 78.332 3.30124 75.5576 1.57378C75.311 1.55147 75.0638 1.53616 74.8164 1.52788C71.2909 1.43648 64.75 5.86555 62.1357 8.14507C60.7875 9.32056 59.2816 10.8988 57.9687 12.1656C55.8665 11.6311 53.9316 11.4023 52 11.4156V56.15C60.0562 56.1339 66.6881 52.0334 66.7412 52.0005C67.2253 53.035 72.3697 65.632 73.0859 66.1216C73.8013 66.6094 75.1658 65.549 75.6621 65.5484C76.1579 65.5484 76.2435 67.1811 77.4277 66.8843C78.6124 66.5871 88.827 60.0639 88.8291 59.3472C88.8291 58.6343 88.166 57.8268 88.1611 57.8209C88.1611 57.8209 88.8294 57.4863 89.5927 56.3414C90.3555 55.1958 81.5306 40.4551 82.2939 38.69C83.0578 36.9247 91.7541 32.2974 92.1689 30.3892C92.5837 28.481 88.975 23.1856 89.4023 22.3746C89.8309 21.5627 102.998 12.3081 103.666 11.6402C104.334 10.9721 102.516 8.34289 101.948 7.23394C101.381 6.12504 102.33 6.20215 101.758 5.10503C101.186 4.00779 99.5259 1.41447 98.7998 0.811088ZM86.7294 24.521C88.1871 24.892 90.5944 29.1492 89.8789 30.1988C89.1624 31.2488 83.646 35.5128 81.9521 34.9224C80.5212 34.4229 80.4755 32.9662 80.2177 31.7652C79.9275 31.1253 79.4506 30.7794 79.0498 30.1988L80.4804 29.1968C82.0042 30.6243 83.4859 31.411 84.3447 31.439C85.2034 31.4668 86.6828 31.391 86.7294 30.8306C86.7755 30.2703 82.33 29.6931 82.914 27.2886L86.7294 24.521Z" fill="#0F0B20" style="fill:#0F0B20;fill:color(display-p3 0.0590 0.0450 0.1274);fill-opacity:1;"/>
<path d="M74.6601 4.02295C70.5278 4.0261 63.1075 10.0447 60.7011 13.1733C61.2021 13.443 62.0141 13.8483 62.4492 14.1704C63.736 14.9325 65.9785 17.0308 65.9785 17.0308C65.9785 17.0308 62.8411 15.6931 62.1611 15.4565C61.4812 15.22 60.4717 14.9489 60.0224 14.8325C58.5199 14.4412 56.99 14.1613 55.4463 13.9956C55.1369 13.9316 53.5352 13.8501 53.1328 13.8237C52.6882 13.7886 52.343 13.7769 52 13.7808V53.8638C53.256 53.8627 54.5513 53.6702 56.125 53.2573C62.1521 51.6744 67.857 48.8518 72.4091 44.5591C72.829 44.1574 73.2296 43.7364 73.6113 43.2983C73.7431 43.1666 74.3266 42.3001 74.4697 42.0942C78.2332 42.8078 77.6532 41.3156 76.3593 38.603C75.9601 37.766 75.4669 36.8994 75.1259 36.0435L75.0771 35.9185L75.1845 35.8589C76.0944 35.3483 77.9321 34.0312 78.2968 32.9917C78.6331 32.0337 76.5798 31.2219 75.957 30.689C74.7 29.6135 73.9592 28.0326 73.1406 26.6187C72.0987 24.5448 69.8996 21.049 68.414 19.3149C69.5189 19.4992 71.3818 21.8751 72.1289 22.3882C72.751 22.8795 73.7805 24.2364 74.4121 24.9028C74.4703 24.8082 74.5267 24.7119 74.582 24.6157C76.9539 20.4828 77.1471 10.4855 75.8242 5.88525C75.5958 5.09107 75.3995 4.43313 74.6601 4.02295Z" fill="#FFECCD" style="fill:#FFECCD;fill:color(display-p3 1.0000 0.9255 0.8039);fill-opacity:1;"/>
<path d="M73.1758 26.6958C73.1758 27.9562 72.8954 34.6764 72.2276 35.2554C71.5594 35.8345 69.3172 37.4497 68.3154 36.4956C67.3137 35.5415 65.997 34.0403 63.2207 33.6938C60.4443 33.3474 60.1103 34.1401 58.8223 33.6938C57.5342 33.2475 56.4076 31.2191 53.6192 30.6646C53.0307 30.5475 52.4575 30.5072 51.9053 30.52V54.1938C51.9367 54.1939 51.9683 54.1948 52 54.1948C63.5665 54.1948 72.4045 44.6792 72.4443 44.6362L73.6465 43.3755C73.6283 43.3528 72.4947 41.9369 74.5049 42.1724C76.5317 42.4099 77.241 40.4551 76.3945 38.6802C75.548 36.9054 75.5021 36.9764 75.1611 36.1206C74.8201 35.2646 75.0942 36.0392 75.1123 35.9946C75.1187 35.9579 74.3164 36.4429 75.2197 35.936C76.1296 35.4255 77.9815 34.0676 78.332 33.0688C78.6824 32.0701 76.9322 31.5703 75.9922 30.7661C75.0522 29.9616 73.6461 27.7652 73.1758 26.6958Z" fill="white" style="fill:white;fill-opacity:1;"/>
<path d="M51.9043 48.6841C54.9618 48.6761 57.2485 44.3645 58.1065 41.8384C58.9654 39.3101 62.1133 36.9008 61.5323 36.3198C60.9514 35.7394 60.7293 37.1155 58.8213 37.9741C56.913 38.8326 52.3743 38.0232 52.3741 36.3022C52.3741 34.5811 53.2881 34.8736 54.2422 33.9194C55.1367 33.0249 54.849 31.882 52.419 31.7007L51.9043 31.6772V48.6841Z" fill="#0F0B20" style="fill:#0F0B20;fill:color(display-p3 0.0590 0.0450 0.1274);fill-opacity:1;"/>
<path d="M78.3818 33.0131C78.0956 34.1103 76.0219 35.4849 75.112 35.9955C75.453 36.8515 75.995 37.8429 76.3943 38.68C77.6882 41.3928 78.2689 42.8856 74.5052 42.172C74.3621 42.3779 73.7782 43.2445 73.6465 43.3759C72.2831 41.8681 69.8424 37.8791 68.3301 36.5068C68.3301 36.5068 71.4167 35.2665 72.3231 33.3947C73.2296 31.523 73.1761 26.6958 73.1761 26.6958C73.1761 26.6958 75.0565 29.4419 75.9965 30.2461C76.9365 31.0503 78.6681 31.9158 78.3818 33.0131Z" fill="#FFAF9D" style="fill:#FFAF9D;fill:color(display-p3 1.0000 0.6863 0.6157);fill-opacity:1;"/>
<path d="M57.698 39.5127C57.2468 39.542 56.4568 39.4921 55.9805 39.4766C55.9794 40.1108 55.9909 40.6192 56.0336 41.2509C56.8115 41.2889 57.4135 40.1335 57.698 39.5127Z" fill="white" style="fill:white;fill-opacity:1;"/>
<path d="M74.4471 24.9793C77.8571 18.8917 77.2846 5.24769 74.7085 4.00732C72.5789 6.22539 68.1355 12.9368 67.0469 15.8101C68.4952 15.4551 70.1917 15.2149 70.4941 15.5506C70.7966 15.8862 69.7947 18.5101 68.2958 19.2762C69.3177 19.5596 74.4471 24.9793 74.4471 24.9793Z" fill="#FFAF9D" style="fill:#FFAF9D;fill:color(display-p3 1.0000 0.6863 0.6157);fill-opacity:1;"/>
<path d="M63.6408 26.5724C60.1582 26.2862 57.2958 30.3889 57.7729 30.866C58.2499 31.343 60.2355 28.9191 63.0683 28.8623C65.9011 28.8055 68.4114 31.5816 68.9476 31.1374C69.4838 30.6933 67.1233 26.8586 63.6408 26.5724Z" fill="#0F0B20" style="fill:#0F0B20;fill:color(display-p3 0.0590 0.0450 0.1274);fill-opacity:1;"/>
<path d="M61.1024 23.7373C60.5459 22.8948 58.2353 24.7643 57.9694 25.4948C57.7035 26.2253 57.9694 26.3268 58.2013 26.5766L61.1024 23.7373Z" fill="#FFAF9D" style="fill:#FFAF9D;fill:color(display-p3 1.0000 0.6863 0.6157);fill-opacity:1;"/>
<path d="M98.4183 2.83107C98.2351 2.50562 97.9892 2.38521 97.7507 2.05127C96.7966 2.43292 82.0667 13.8581 79.7639 15.0169C79.0629 15.3697 78.7513 15.7306 78.7293 16.5076C78.7976 17.9191 78.1136 21.29 77.7627 22.6943C80.6571 20.6256 84.3297 17.9165 87.1163 15.7239C88.3255 14.7249 89.9203 13.6297 91.2169 12.6863L95.9979 9.13586C97.4131 8.09853 99.0358 6.96656 100.396 5.88314C100.048 5.21354 98.8716 3.49057 98.4183 2.83107Z" fill="#E0D8F6" style="fill:#E0D8F6;fill:color(display-p3 0.8784 0.8471 0.9647);fill-opacity:1;"/>
<path d="M77.5743 43.9824C76.8072 44.3194 76.4256 44.3671 75.6623 44.224C73.7063 46.7524 73.2769 47.2295 70.8525 49.2427C72.4449 52.9762 74.7805 59.95 75.3406 60.2925C75.9008 60.635 82.7705 56.2937 82.9244 55.5218C83.0783 54.75 78.8493 47.3935 77.5743 43.9824Z" fill="#B1A7D0" style="fill:#B1A7D0;fill:color(display-p3 0.6941 0.6549 0.8157);fill-opacity:1;"/>
<path d="M77.2691 54.3355C77.0306 54.2546 76.7749 54.2382 76.528 54.2879C76.2811 54.3377 76.0517 54.4519 75.8632 54.6189C75.6748 54.7862 75.5341 55.0004 75.4554 55.2397C75.3766 55.479 75.3626 55.7349 75.4147 55.9814C75.4671 56.2278 75.5838 56.456 75.753 56.6427C75.9222 56.8294 76.1378 56.9679 76.3779 57.0443C77.123 57.2809 77.9197 56.8735 78.164 56.1312C78.4084 55.3888 78.0092 54.5874 77.2691 54.3355Z" fill="#FFECCD" style="fill:#FFECCD;fill:color(display-p3 1.0000 0.9255 0.8039);fill-opacity:1;"/>
<path d="M93.4088 13.3101L77.5703 24.9504C77.2171 25.2328 76.5234 27.006 76.3438 27.5398C76.5882 27.8808 76.9486 28.49 77.2841 28.6238C77.2841 28.6238 94.1244 16.6972 94.9354 15.7908C94.6947 15.2255 93.7728 13.8365 93.4088 13.3101Z" fill="#B1A7D0" style="fill:#B1A7D0;fill:color(display-p3 0.6941 0.6549 0.8157);fill-opacity:1;"/>
<path d="M100.629 8.23828L94.5068 12.5944C94.9702 13.3768 96.1288 15.1228 96.1288 15.1228L102.092 10.8292C102.024 10.0395 101.11 8.97983 100.629 8.23828Z" fill="#B1A7D0" style="fill:#B1A7D0;fill:color(display-p3 0.6941 0.6549 0.8157);fill-opacity:1;"/>
<path d="M80.1462 46.1798L84.5829 55.64C84.5827 56.7058 75.4232 62.3701 74.8066 62.0606C74.19 61.751 69.7939 50.1394 69.7939 50.1394C69.5534 50.2405 68.4304 50.9304 68.1719 51.0935C68.1719 51.0935 72.9425 63.6403 73.8966 64.2605C74.8508 64.8807 87.0636 57.2476 87.2067 55.9119C87.2067 55.1486 81.6259 44.3672 81.6259 44.3672L80.1462 46.1798Z" fill="#E0D8F6" style="fill:#E0D8F6;fill:color(display-p3 0.8784 0.8471 0.9647);fill-opacity:1;"/>
<path d="M79.3515 35.1909C78.9542 35.6307 77.938 36.2235 77.5713 36.6692C78.3562 39.19 79.7181 40.1686 79.0183 43.2117C79.3258 44.0437 79.7532 45.347 80.1475 46.1796L81.6273 44.3671C79.7658 39.3576 79.3515 38.7851 80.7591 36.6692C80.3077 36.2388 79.6881 35.6948 79.3515 35.1909Z" fill="#B1A7D0" style="fill:#B1A7D0;fill:color(display-p3 0.6941 0.6549 0.8157);fill-opacity:1;"/>
<path d="M51.9522 41.7425C51.9362 41.7431 51.9202 41.7439 51.9043 41.7445V47.5131C51.9201 47.5131 51.9362 47.515 51.9522 47.515C54.6714 47.5148 58.7739 41.499 51.9522 41.7425Z" fill="#FFAF9D" style="fill:#FFAF9D;fill:color(display-p3 1.0000 0.6863 0.6157);fill-opacity:1;"/>
<path d="M98.4177 2.83142C98.2345 2.50596 98.0363 2.24244 97.7501 2.00391C93.7641 4.65104 80.4789 14.2318 79.5739 14.8369C78.6689 15.4421 78.6675 15.5048 78.7152 16.7929C79.8621 15.967 98.4177 2.83142 98.4177 2.83142Z" fill="white" style="fill:white;fill-opacity:1;"/>
</g>
</svg>
