<svg width="245" height="68" viewBox="0 0 245 68" fill="none" xmlns="http://www.w3.org/2000/svg">

<!-- ===== LEFT BALDOMERO CAT (Siamese: dark seal mask, ice-blue eyes, cream muzzle) ===== -->
<g clip-path="url(#clip0_127_142)">
  <!-- Subtle blue aura behind head -->
  <circle cx="26" cy="27" r="23" fill="#1A6FCC" opacity="0.10"/>

  <!-- Tail -->
  <path d="M 37,66 Q 51,57 48,44" stroke="#3A1408" stroke-width="4.5" fill="none" stroke-linecap="round"/>

  <!-- Body (dark seal-point) -->
  <ellipse cx="26" cy="57" rx="14" ry="11" fill="#3A1408"/>

  <!-- Left arm -->
  <ellipse cx="10" cy="52" rx="8" ry="5" fill="#3A1408" transform="rotate(-25, 10, 52)"/>
  <!-- Left paw (cream) -->
  <ellipse cx="3" cy="57" rx="5" ry="3.5" fill="#F0DCB8"/>
  <!-- Gun pointing left -->
  <rect x="-5" y="53.5" width="11" height="3.5" rx="1.5" fill="#5C5C6C"/>
  <rect x="-1" y="57" width="5" height="5" rx="1" fill="#4A4A5A"/>

  <!-- Right arm -->
  <ellipse cx="42" cy="52" rx="8" ry="5" fill="#3A1408" transform="rotate(25, 42, 52)"/>
  <!-- Right paw (cream) -->
  <ellipse cx="49" cy="57" rx="5" ry="3.5" fill="#F0DCB8"/>

  <!-- HEAD BASE — cream circle, completely different shape from original cat -->
  <circle cx="26" cy="27" r="19" fill="#F0DCB8"/>

  <!-- LEFT EAR outer (cream) -->
  <polygon points="12,12 7,0 22,16" fill="#F0DCB8"/>
  <!-- LEFT EAR inner (pink) -->
  <polygon points="12,12 10,4 20,15" fill="#E898A8"/>

  <!-- RIGHT EAR outer (cream) -->
  <polygon points="40,12 45,0 30,16" fill="#F0DCB8"/>
  <!-- RIGHT EAR inner (pink) -->
  <polygon points="40,12 42,4 32,15" fill="#E898A8"/>

  <!-- SIAMESE SEAL MASK — dark chocolate covers upper 2/3 of face, key Siamese feature -->
  <path d="M 7,15 Q 7,31 13,39 Q 19,47 26,48 Q 33,47 39,39 Q 45,31 45,15 Q 38,5 26,4 Q 14,5 7,15 Z" fill="#2E0C06"/>

  <!-- Ear tips (Siamese seal-point dark coloring) -->
  <polygon points="12,12 10,3 21,15" fill="#2E0C06"/>
  <polygon points="40,12 42,3 31,15" fill="#2E0C06"/>

  <!-- CREAM MUZZLE — bright oval below mask, classic Siamese look -->
  <ellipse cx="26" cy="39" rx="12" ry="10" fill="#F0DCB8"/>

  <!-- LEFT EYE — large ice-blue iris, vertical-slit pupil -->
  <circle cx="18" cy="24" r="7.5" fill="#0AD0F8"/>
  <ellipse cx="18" cy="24" rx="2.8" ry="6" fill="#020810"/>
  <circle cx="15" cy="21" r="2.2" fill="white"/>

  <!-- RIGHT EYE — large ice-blue iris, vertical-slit pupil -->
  <circle cx="34" cy="24" r="7.5" fill="#0AD0F8"/>
  <ellipse cx="34" cy="24" rx="2.8" ry="6" fill="#020810"/>
  <circle cx="31" cy="21" r="2.2" fill="white"/>

  <!-- NOSE (inverted pink triangle) -->
  <polygon points="26,35 23,38.5 29,38.5" fill="#CC4868"/>

  <!-- MOUTH (cute smile) -->
  <path d="M 21,40 Q 26,44.5 31,40" stroke="#8B2840" stroke-width="1.1" fill="none" stroke-linecap="round"/>

  <!-- WHISKERS LEFT -->
  <line x1="15" y1="37.5" x2="0" y2="33" stroke="#C8B888" stroke-width="0.9" opacity="0.85"/>
  <line x1="15" y1="40" x2="0" y2="40" stroke="#C8B888" stroke-width="0.9" opacity="0.85"/>
  <line x1="15" y1="42.5" x2="0" y2="46.5" stroke="#C8B888" stroke-width="0.9" opacity="0.85"/>

  <!-- WHISKERS RIGHT -->
  <line x1="37" y1="37.5" x2="52" y2="33" stroke="#C8B888" stroke-width="0.9" opacity="0.85"/>
  <line x1="37" y1="40" x2="52" y2="40" stroke="#C8B888" stroke-width="0.9" opacity="0.85"/>
  <line x1="37" y1="42.5" x2="52" y2="46.5" stroke="#C8B888" stroke-width="0.9" opacity="0.85"/>
</g>

<!-- ===== RIGHT BALDOMERO CAT (mirror of left) ===== -->
<g clip-path="url(#clip1_127_142)">
  <g transform="translate(104, 0) scale(-1, 1)">
    <circle cx="26" cy="27" r="23" fill="#1A6FCC" opacity="0.10"/>
    <path d="M 37,66 Q 51,57 48,44" stroke="#3A1408" stroke-width="4.5" fill="none" stroke-linecap="round"/>
    <ellipse cx="26" cy="57" rx="14" ry="11" fill="#3A1408"/>
    <ellipse cx="10" cy="52" rx="8" ry="5" fill="#3A1408" transform="rotate(-25, 10, 52)"/>
    <ellipse cx="3" cy="57" rx="5" ry="3.5" fill="#F0DCB8"/>
    <rect x="-5" y="53.5" width="11" height="3.5" rx="1.5" fill="#5C5C6C"/>
    <rect x="-1" y="57" width="5" height="5" rx="1" fill="#4A4A5A"/>
    <ellipse cx="42" cy="52" rx="8" ry="5" fill="#3A1408" transform="rotate(25, 42, 52)"/>
    <ellipse cx="49" cy="57" rx="5" ry="3.5" fill="#F0DCB8"/>
    <circle cx="26" cy="27" r="19" fill="#F0DCB8"/>
    <polygon points="12,12 7,0 22,16" fill="#F0DCB8"/>
    <polygon points="12,12 10,4 20,15" fill="#E898A8"/>
    <polygon points="40,12 45,0 30,16" fill="#F0DCB8"/>
    <polygon points="40,12 42,4 32,15" fill="#E898A8"/>
    <path d="M 7,15 Q 7,31 13,39 Q 19,47 26,48 Q 33,47 39,39 Q 45,31 45,15 Q 38,5 26,4 Q 14,5 7,15 Z" fill="#2E0C06"/>
    <polygon points="12,12 10,3 21,15" fill="#2E0C06"/>
    <polygon points="40,12 42,3 31,15" fill="#2E0C06"/>
    <ellipse cx="26" cy="39" rx="12" ry="10" fill="#F0DCB8"/>
    <circle cx="18" cy="24" r="7.5" fill="#0AD0F8"/>
    <ellipse cx="18" cy="24" rx="2.8" ry="6" fill="#020810"/>
    <circle cx="15" cy="21" r="2.2" fill="white"/>
    <circle cx="34" cy="24" r="7.5" fill="#0AD0F8"/>
    <ellipse cx="34" cy="24" rx="2.8" ry="6" fill="#020810"/>
    <circle cx="31" cy="21" r="2.2" fill="white"/>
    <polygon points="26,35 23,38.5 29,38.5" fill="#CC4868"/>
    <path d="M 21,40 Q 26,44.5 31,40" stroke="#8B2840" stroke-width="1.1" fill="none" stroke-linecap="round"/>
    <line x1="15" y1="37.5" x2="0" y2="33" stroke="#C8B888" stroke-width="0.9" opacity="0.85"/>
    <line x1="15" y1="40" x2="0" y2="40" stroke="#C8B888" stroke-width="0.9" opacity="0.85"/>
    <line x1="15" y1="42.5" x2="0" y2="46.5" stroke="#C8B888" stroke-width="0.9" opacity="0.85"/>
    <line x1="37" y1="37.5" x2="52" y2="33" stroke="#C8B888" stroke-width="0.9" opacity="0.85"/>
    <line x1="37" y1="40" x2="52" y2="40" stroke="#C8B888" stroke-width="0.9" opacity="0.85"/>
    <line x1="37" y1="42.5" x2="52" y2="46.5" stroke="#C8B888" stroke-width="0.9" opacity="0.85"/>
  </g>
</g>

<!-- ===== TEXT (original, unchanged) ===== -->
<path d="M241.914 25.5915C241.914 27.0585 241.658 28.3792 241.146 29.5536C240.645 30.7158 239.952 31.7228 239.068 32.5746C238.193 33.4249 237.165 34.1148 235.981 34.6443C234.809 35.1723 233.545 35.5309 232.191 35.7201C231.669 35.7932 231.093 35.804 230.464 35.7528C229.846 35.7 229.217 35.6166 228.577 35.5026C227.938 35.3778 227.319 35.2394 226.722 35.0873C226.136 34.923 225.614 34.7658 225.155 34.6157L225.859 27.9C226.765 28.3195 227.767 28.597 228.865 28.7326C229.974 28.856 231.061 28.8432 232.127 28.6942C232.33 28.6659 232.575 28.6262 232.863 28.5753C233.151 28.5136 233.423 28.4275 233.679 28.3167C233.945 28.1938 234.169 28.0394 234.35 27.8534C234.531 27.6675 234.622 27.4246 234.622 27.1248C234.622 26.9214 234.558 26.759 234.43 26.6377C234.302 26.5056 234.137 26.4109 233.934 26.3536C233.732 26.2855 233.503 26.248 233.247 26.2409C232.991 26.2231 232.74 26.2207 232.495 26.2336C232.25 26.2464 232.021 26.2677 231.808 26.2975C231.594 26.3274 231.424 26.3512 231.296 26.3691C230.379 26.4972 229.542 26.4536 228.785 26.2382C228.039 26.0213 227.394 25.6671 226.85 25.1756C226.317 24.6719 225.902 24.05 225.603 23.3101C225.305 22.5595 225.155 21.7237 225.155 20.8029C225.155 19.5394 225.406 18.3747 225.907 17.3088C226.419 16.2308 227.096 15.2849 227.938 14.4712C228.791 13.6453 229.766 12.9682 230.864 12.4399C231.962 11.9117 233.098 11.5656 234.27 11.4016C234.793 11.3286 235.331 11.2748 235.885 11.2401C236.44 11.1948 236.989 11.1823 237.532 11.2026C238.087 11.2215 238.625 11.2694 239.148 11.3463C239.67 11.4232 240.166 11.5412 240.635 11.7005L240.027 18.3064C239.302 18.1615 238.54 18.0646 237.74 18.0157C236.951 17.9547 236.179 17.9771 235.422 18.0829C235.283 18.1023 235.102 18.1329 234.878 18.1749C234.665 18.2047 234.436 18.2528 234.19 18.3192C233.956 18.3734 233.716 18.4444 233.471 18.5323C233.226 18.6201 233.007 18.7256 232.815 18.8488C232.623 18.9613 232.469 19.1006 232.351 19.2669C232.234 19.4332 232.181 19.6174 232.191 19.8193C232.202 20.0534 232.287 20.2342 232.447 20.3618C232.618 20.4771 232.831 20.5598 233.087 20.6097C233.353 20.6473 233.641 20.6606 233.95 20.6496C234.27 20.637 234.585 20.6144 234.894 20.5819C235.203 20.5387 235.491 20.4985 235.757 20.4612C236.024 20.4132 236.243 20.3881 236.413 20.3856C237.266 20.3199 238.034 20.3947 238.716 20.6098C239.398 20.825 239.974 21.1567 240.443 21.6051C240.923 22.0521 241.285 22.6171 241.53 23.3002C241.786 23.9711 241.914 24.7349 241.914 25.5915Z" fill="#FFECCD" style="fill:#FFECCD;fill:color(display-p3 1.0000 0.9255 0.8039);fill-opacity:1;"/>
<path d="M222.918 13.7591L220.457 36.534L213.387 37.6416L208.909 26.6069L208.206 38.5907L201.01 39.5966L201.585 16.741L209.581 15.2379L215.114 26.0287L215.37 15.0712L222.918 13.7591Z" fill="#FFECCD" style="fill:#FFECCD;fill:color(display-p3 1.0000 0.9255 0.8039);fill-opacity:1;"/>
<path d="M199.3 16.932C199.236 17.9474 199.177 18.9514 199.124 19.944C199.07 20.9365 199.001 21.942 198.916 22.9605L192.135 24.2616L191.976 26.3077L196.741 25.6416L196.389 30.6698L191.592 31.501L191.432 33.8683L195.398 33.3139L198.212 32.9205C198.148 34.1073 198.079 35.2895 198.004 36.467C197.94 37.6324 197.882 38.8024 197.828 39.977L184.044 42.225L184.556 18.9929L199.3 16.932Z" fill="#FFECCD" style="fill:#FFECCD;fill:color(display-p3 1.0000 0.9255 0.8039);fill-opacity:1;"/>
<path d="M181.967 19.5481L181.807 26.468L177.042 27.3379L175.826 42.9311L169.078 44.2443L169.078 28.1893L164.331 29.0605L164.537 22.0484L181.967 19.5481Z" fill="#FFECCD" style="fill:#FFECCD;fill:color(display-p3 1.0000 0.9255 0.8039);fill-opacity:1;"/>
<path d="M167.435 21.6052L167.275 28.5251L162.51 29.395L161.294 44.9882L154.546 46.3014L154.578 30.8757L149.812 31.8107L150.004 24.1055L167.435 21.6052Z" fill="#FFECCD" style="fill:#FFECCD;fill:color(display-p3 1.0000 0.9255 0.8039);fill-opacity:1;"/>
<path d="M147.689 24.0627L145.849 47.1943L138.793 48.5501L138.793 25.7764L147.689 24.0627Z" fill="#FFECCD" style="fill:#FFECCD;fill:color(display-p3 1.0000 0.9255 0.8039);fill-opacity:1;"/>
<path d="M137.663 25.694L130.134 37.1951L136.476 47.4162L129.228 49.7158L124.479 43.602L124.229 50.7283L117.731 51.8876L118.231 27.7827L125.51 27.1731L124.948 34.343L129.79 26.1669L137.663 25.694Z" fill="#FFECCD" style="fill:#FFECCD;fill:color(display-p3 1.0000 0.9255 0.8039);fill-opacity:1;"/>
<path d="M125.898 14.2882C125.898 14.7267 125.833 15.1246 125.704 15.4818C125.574 15.8391 125.395 16.1602 125.166 16.4453C124.942 16.7298 124.678 16.9815 124.374 17.2004C124.069 17.4192 123.742 17.6096 123.393 17.7714C123.048 17.9281 122.69 18.0596 122.319 18.1658C121.947 18.2675 121.582 18.3456 121.224 18.4002L121.224 21.5604L118.094 21.9979C118.094 20.9625 118.096 19.9314 118.101 18.9046C118.105 17.8777 118.112 16.8414 118.121 15.7958C118.13 15.243 118.132 14.6911 118.128 14.1402C118.123 13.5892 118.134 13.0316 118.161 12.4672C118.734 12.2153 119.308 12.0064 119.881 11.8404C120.454 11.6743 121.045 11.5488 121.654 11.4637C121.998 11.4155 122.343 11.3967 122.688 11.4072C123.033 11.4133 123.362 11.4555 123.675 11.5337C123.993 11.6113 124.286 11.7241 124.555 11.8719C124.828 12.0145 125.063 12.1987 125.26 12.4243C125.457 12.6499 125.612 12.9177 125.724 13.2276C125.84 13.5323 125.898 13.8858 125.898 14.2882ZM122.916 14.9356C122.916 14.6417 122.827 14.4259 122.648 14.2882C122.473 14.1454 122.245 14.0936 121.963 14.1331C121.869 14.1462 121.77 14.169 121.667 14.2015C121.569 14.2288 121.475 14.2601 121.385 14.2952L121.304 16.2867C121.367 16.2869 121.428 16.283 121.486 16.2749C121.544 16.2667 121.604 16.2583 121.667 16.2495C121.828 16.227 121.983 16.1783 122.131 16.1034C122.283 16.0278 122.417 15.9322 122.534 15.8165C122.65 15.6962 122.742 15.5636 122.809 15.4186C122.881 15.2684 122.916 15.1074 122.916 14.9356ZM133.041 10.0347C133.014 10.4634 132.989 10.8873 132.967 11.3064C132.944 11.7254 132.915 12.15 132.879 12.5799L130.032 13.1272L129.965 13.9911L131.966 13.7113L131.818 15.8342L129.803 16.1837L129.736 17.1832L131.402 16.9503L132.584 16.7851C132.557 17.2862 132.528 17.7853 132.497 18.2825C132.47 18.7745 132.445 19.2685 132.423 19.7644L126.633 20.7093L126.848 10.9003L133.041 10.0347ZM145.804 8.61673L144.233 18.2356L140.418 18.8502L139.599 14.0956L138.779 18.7266L134.964 19.3955L133.379 10.3535L136.711 9.5895L137.382 15.1243L138.282 9.36982L140.902 9.00368L141.949 14.5537L142.487 8.78212L145.804 8.61673ZM157.517 9.86846C157.517 10.307 157.452 10.7049 157.322 11.0621C157.192 11.4193 157.013 11.7405 156.785 12.0256C156.561 12.3101 156.297 12.5617 155.992 12.7806C155.688 12.9995 155.361 13.1899 155.012 13.3517C154.667 13.5084 154.309 13.6398 153.937 13.746C153.565 13.8477 153.2 13.9259 152.842 13.9804L152.842 17.1406L149.712 17.5781C149.712 16.5428 149.715 15.5117 149.719 14.4848C149.724 13.4579 149.73 12.4217 149.739 11.3761C149.748 10.8233 149.75 10.2714 149.746 9.72044C149.742 9.1695 149.753 8.61185 149.78 8.04749C150.353 7.79558 150.926 7.58662 151.499 7.42061C152.072 7.2546 152.663 7.12903 153.272 7.04391C153.617 6.99572 153.962 6.97691 154.306 6.9875C154.651 6.99355 154.98 7.03571 155.294 7.11397C155.611 7.1916 155.905 7.30432 156.173 7.45212C156.447 7.59479 156.682 7.77894 156.879 8.00457C157.076 8.23021 157.23 8.49796 157.342 8.80783C157.458 9.11255 157.517 9.46609 157.517 9.86846ZM154.535 10.5159C154.535 10.222 154.445 10.0062 154.266 9.86849C154.091 9.72562 153.863 9.6739 153.581 9.71333C153.487 9.72647 153.388 9.74929 153.285 9.78176C153.187 9.8091 153.093 9.84032 153.003 9.87545L152.923 11.8669C152.985 11.8672 153.046 11.8633 153.104 11.8551C153.162 11.847 153.223 11.8385 153.285 11.8298C153.447 11.8072 153.601 11.7585 153.749 11.6836C153.901 11.6081 154.035 11.5125 154.152 11.3967C154.268 11.2765 154.36 11.1438 154.427 10.9988C154.499 10.8486 154.535 10.6877 154.535 10.5159ZM164.659 5.61496C164.632 6.04369 164.607 6.46758 164.585 6.88664C164.563 7.30571 164.534 7.73023 164.498 8.16021L161.65 8.70746L161.583 9.57132L163.584 9.29155L163.437 11.4145L161.422 11.7639L161.355 12.7634L163.02 12.5306L164.202 12.3654C164.175 12.8664 164.146 13.3655 164.115 13.8627C164.088 14.3547 164.063 14.8487 164.041 15.3446L158.252 16.2895L158.467 6.48055L164.659 5.61496ZM177.423 4.19699L175.851 13.8158L172.036 14.4305L171.217 9.67588L170.398 14.3069L166.583 14.9758L164.998 5.9338L168.329 5.16976L169.001 10.7045L169.901 4.95008L172.52 4.58394L173.568 10.1339L174.105 4.36238L177.423 4.19699Z" fill="#FFAF9D" style="fill:#FFAF9D;fill:color(display-p3 1.0000 0.6863 0.6157);fill-opacity:1;"/>
<path d="M162.93 51.7296L161.378 61.225L157.612 61.8318L156.803 57.1382L155.995 61.7098L152.229 62.3701L150.664 53.4441L153.953 52.6899L154.616 58.1536L155.504 52.473L158.09 52.1116L159.124 57.5904L159.654 51.8928L162.93 51.7296ZM167.56 50.9484L166.831 60.1683L164.033 60.7067L164.033 51.6289L167.56 50.9484ZM175.711 49.6618L175.645 52.5095L173.669 52.866L173.165 59.2828L170.367 59.8212L170.38 53.473L168.405 53.8563L168.484 50.6853L175.711 49.6618ZM184.624 57.989L181.309 58.613L181.283 55.5239L179.758 55.737L179.665 58.6822L176.695 59.0974L176.947 49.6497L180.103 49.3558L179.904 54.1903L181.376 53.9845L181.389 48.8145L184.412 48.4722L184.624 57.989ZM197.267 54.8561C197.059 55.1485 196.803 55.4141 196.498 55.6531C196.193 55.8921 195.865 56.1008 195.516 56.279C195.167 56.4572 194.809 56.6032 194.442 56.717C194.075 56.8352 193.726 56.9175 193.395 56.9638C192.754 57.0534 192.164 57.0199 191.624 56.8632C191.085 56.7065 190.619 56.4526 190.226 56.1014C189.837 55.7452 189.532 55.3058 189.311 54.7833C189.09 54.2608 188.979 53.6804 188.979 53.0422C188.979 52.5557 189.034 52.0727 189.145 51.5931C189.255 51.109 189.412 50.6475 189.616 50.2085C189.823 49.7644 190.075 49.3498 190.371 48.9648C190.668 48.5753 191.003 48.2293 191.379 47.9268C191.755 47.6244 192.166 47.3728 192.612 47.172C193.059 46.9713 193.536 46.8354 194.044 46.7643C194.234 46.7377 194.438 46.7182 194.654 46.7058C194.871 46.6889 195.085 46.6858 195.298 46.6963C195.514 46.7017 195.724 46.7237 195.927 46.7622C196.131 46.8007 196.316 46.8573 196.484 46.932L196.299 49.5153C196.051 49.4562 195.795 49.4295 195.53 49.4354C195.269 49.4361 195.012 49.4541 194.76 49.4893C194.407 49.5387 194.075 49.6409 193.766 49.7957C193.461 49.9454 193.194 50.139 192.964 50.3764C192.738 50.6132 192.559 50.8882 192.427 51.2013C192.294 51.5144 192.228 51.8561 192.228 52.2266C192.228 52.4587 192.259 52.6797 192.321 52.8897C192.383 53.0953 192.475 53.2743 192.599 53.4266C192.727 53.5738 192.884 53.6857 193.07 53.7624C193.26 53.8385 193.479 53.8592 193.726 53.8246C193.894 53.8012 194.067 53.7548 194.243 53.6854C194.425 53.6154 194.579 53.518 194.707 53.3929L194.734 52.867L193.143 53.0627L193.222 51.0432C193.881 50.9288 194.539 50.8189 195.198 50.7135C195.857 50.6036 196.52 50.4886 197.187 50.3685L197.267 54.8561ZM206.386 47.5028C206.386 47.8331 206.37 48.1989 206.339 48.6005C206.308 49.002 206.257 49.4197 206.187 49.8536C206.116 50.2875 206.023 50.7311 205.908 51.1846C205.798 51.6329 205.659 52.0697 205.491 52.4948C205.323 52.92 205.126 53.3246 204.9 53.7087C204.679 54.0877 204.423 54.4292 204.131 54.7333C203.844 55.0323 203.521 55.2805 203.163 55.4778C202.805 55.6796 202.408 55.8111 201.97 55.8723C201.457 55.9439 201.011 55.9215 200.631 55.8051C200.255 55.6925 199.932 55.5144 199.663 55.2709C199.393 55.023 199.172 54.7236 199 54.3728C198.827 54.0176 198.693 53.637 198.595 53.231C198.498 52.8207 198.43 52.3996 198.39 51.9677C198.354 51.5308 198.337 51.1093 198.337 50.7032C198.337 50.0784 198.368 49.4515 198.43 48.8224C198.491 48.189 198.58 47.554 198.695 46.9176L201.798 46.6044C201.678 47.3218 201.574 48.0414 201.486 48.7634C201.402 49.4803 201.36 50.1958 201.36 50.9099C201.36 50.9857 201.362 51.0992 201.367 51.2504C201.376 51.3964 201.389 51.5619 201.406 51.7469C201.424 51.9274 201.448 52.1137 201.479 52.3057C201.515 52.4927 201.561 52.6625 201.619 52.8151C201.676 52.9678 201.745 53.0899 201.824 53.1814C201.908 53.2723 202.005 53.31 202.116 53.2946C202.244 53.2767 202.359 53.2003 202.461 53.0656C202.562 52.9265 202.651 52.749 202.726 52.5332C202.805 52.3167 202.874 52.0706 202.931 51.7948C202.989 51.519 203.037 51.2333 203.077 50.9376C203.117 50.642 203.148 50.3475 203.17 50.0544C203.197 49.7605 203.216 49.4878 203.23 49.236C203.247 48.9836 203.258 48.7611 203.263 48.5686C203.267 48.3761 203.269 48.2329 203.269 48.1392C203.269 47.7911 203.263 47.4461 203.25 47.1043C203.241 46.7575 203.225 46.4137 203.203 46.0732L206.306 45.6394C206.359 46.2479 206.386 46.869 206.386 47.5028ZM216.612 43.9177L216.134 53.0622L212.66 53.8691L210.804 49.2684L210.512 54.2631L207.529 54.6802L207.767 45.154L211.082 44.53L213.376 49.0293L213.482 44.4622L216.612 43.9177ZM224.624 48.8362C224.624 49.4477 224.517 49.998 224.305 50.4874C224.098 50.9717 223.81 51.3912 223.443 51.7459C223.081 52.1001 222.654 52.3873 222.164 52.6077C221.678 52.8274 221.154 52.9764 220.592 53.0549C220.376 53.0852 220.137 53.0895 219.876 53.068C219.62 53.0458 219.359 53.0108 219.094 52.9631C218.829 52.9109 218.573 52.853 218.325 52.7894C218.082 52.7208 217.865 52.6551 217.675 52.5924L217.967 49.7935C218.343 49.9686 218.758 50.0846 219.213 50.1414C219.673 50.1932 220.124 50.1882 220.566 50.1264C220.65 50.1147 220.752 50.0982 220.871 50.0771C220.99 50.0515 221.103 50.0156 221.209 49.9696C221.32 49.9184 221.412 49.8541 221.488 49.7767C221.563 49.6992 221.6 49.598 221.6 49.4731C221.6 49.3883 221.574 49.3206 221.521 49.27C221.468 49.2149 221.399 49.1754 221.315 49.1514C221.231 49.123 221.136 49.1073 221.03 49.1042C220.924 49.0967 220.82 49.0956 220.718 49.1009C220.617 49.1062 220.522 49.115 220.433 49.1274C220.345 49.1397 220.274 49.1496 220.221 49.157C219.841 49.2102 219.494 49.1917 219.18 49.1017C218.871 49.0111 218.603 48.8632 218.378 48.6582C218.157 48.4481 217.985 48.1888 217.861 47.8803C217.737 47.5673 217.675 47.2189 217.675 46.8351C217.675 46.3085 217.779 45.8231 217.987 45.379C218.199 44.9298 218.48 44.5358 218.829 44.1969C219.182 43.8529 219.587 43.571 220.042 43.3512C220.497 43.1313 220.968 42.9874 221.454 42.9194C221.671 42.8892 221.894 42.8669 222.124 42.8526C222.354 42.8339 222.582 42.8288 222.807 42.8375C223.037 42.8455 223.26 42.8657 223.477 42.8979C223.693 42.9301 223.899 42.9794 224.093 43.046L223.841 45.7992C223.541 45.7385 223.225 45.6979 222.893 45.6773C222.566 45.6516 222.246 45.6607 221.932 45.7046C221.874 45.7126 221.799 45.7253 221.706 45.7428C221.618 45.7551 221.523 45.7751 221.421 45.8027C221.324 45.8252 221.225 45.8548 221.123 45.8913C221.021 45.9278 220.931 45.9717 220.851 46.023C220.771 46.0698 220.707 46.1279 220.659 46.1972C220.61 46.2664 220.588 46.3432 220.592 46.4273C220.597 46.5249 220.632 46.6003 220.699 46.6535C220.769 46.7017 220.858 46.7362 220.964 46.757C221.074 46.7728 221.194 46.7785 221.322 46.7739C221.454 46.7688 221.585 46.7595 221.713 46.746C221.841 46.7281 221.96 46.7114 222.071 46.696C222.181 46.6761 222.272 46.6656 222.343 46.6647C222.696 46.6376 223.015 46.669 223.298 46.7588C223.58 46.8487 223.819 46.9872 224.014 47.1742C224.212 47.3606 224.363 47.5963 224.464 47.8811C224.571 48.1608 224.624 48.4792 224.624 48.8362Z" fill="#40C7BE" style="fill:#40C7BE;fill:color(display-p3 0.2510 0.7804 0.7451);fill-opacity:1;"/>
<path d="M232.907 39.8267L229.314 39.9744C229.21 39.9787 229.118 40.0401 229.074 40.1338L227.2 44.1442C227.11 44.336 227.261 44.5538 227.473 44.5388L228.533 44.4638C228.727 44.4501 228.875 44.6342 228.82 44.82L228.201 46.9068C228.122 47.1752 228.446 47.3798 228.655 47.1927L233.059 43.2375C233.227 43.0873 233.154 42.8109 232.934 42.7606L231.957 42.5374C231.762 42.4927 231.676 42.2631 231.794 42.1023L233.144 40.2685C233.282 40.0811 233.141 39.8171 232.907 39.8267Z" fill="#FFAF9D" style="fill:#FFAF9D;fill:color(display-p3 1.0000 0.6863 0.6157);fill-opacity:1;"/>

<defs>
<clipPath id="clip0_127_142">
<rect width="52" height="67.3615" fill="white" style="fill:white;fill-opacity:1;"/>
</clipPath>
<clipPath id="clip1_127_142">
<rect width="52" height="67.3615" fill="white" style="fill:white;fill-opacity:1;" transform="matrix(-1 0 0 1 104 0)"/>
</clipPath>
</defs>
</svg>
