<svg width="237" height="64" viewBox="0 0 237 64" fill="none" xmlns="http://www.w3.org/2000/svg">
<path fill-rule="evenodd" clip-rule="evenodd" d="M4.76765 0.743571C5.43346 0.190542 6.77541 0.986001 7.15242 1.24943C7.1685 1.23944 8.13828 0.642394 9.09773 1.24943C10.0625 1.85999 9.80919 2.91705 9.80769 2.92326C13.3201 5.3775 19.5958 10.2308 23.0938 12.7045C23.0649 9.8524 23.5335 3.02691 26.0772 1.44279C26.3032 1.42234 26.5301 1.40838 26.7569 1.4008C29.9893 1.31699 35.9869 5.37821 38.3839 7.46818C39.6197 8.54577 40.9997 9.99246 42.2032 11.1537C44.1306 10.6637 45.9049 10.4551 47.6759 10.4672V51.4809C40.26 51.4659 34.1602 47.6762 34.1602 47.6762C33.7167 48.6236 28.9989 60.1761 28.3428 60.6235C27.6867 61.0701 26.4362 60.0983 25.9815 60.0981C25.5269 60.0981 25.4487 61.5952 24.3634 61.3237C23.2777 61.0516 13.911 55.0695 13.9093 54.4125C13.9093 53.7636 14.5084 53.0292 14.5216 53.0131C14.5216 53.0131 13.9089 52.7064 13.2091 51.6567C12.5104 50.6054 20.6012 37.0913 19.9014 35.4731C19.2016 33.8548 11.2293 29.6126 10.8477 27.8627C10.4674 26.1131 13.7756 21.2577 13.3839 20.5141C12.9902 19.7693 0.91802 11.2846 0.305738 10.6723C-0.305491 10.0593 1.3608 7.64882 1.88093 6.63224C2.40113 5.61549 1.53087 5.68609 2.05574 4.68009C2.5807 3.67398 4.10188 1.29676 4.76765 0.743571ZM15.835 22.4828C14.4987 22.8229 12.2916 26.7244 12.9473 27.6869C13.6034 28.6491 18.6618 32.5605 20.2149 32.019C21.5267 31.5611 21.5685 30.2255 21.8048 29.1244C22.0709 28.5376 22.5085 28.2194 22.8761 27.6869L21.5636 26.769C20.1663 28.0778 18.8079 28.7991 18.0206 28.8246C17.2332 28.8501 15.8778 28.7807 15.835 28.267C15.7928 27.7533 19.8689 27.2237 19.3331 25.019L15.835 22.4828Z" fill="#0F0B20" style="fill:#0F0B20;fill:color(display-p3 0.0590 0.0450 0.1274);fill-opacity:1;"/>
<path fill-rule="evenodd" clip-rule="evenodd" d="M26.9001 3.68848C30.6888 3.69136 37.4927 9.20959 39.6989 12.0781C39.2397 12.3253 38.4953 12.6969 38.0964 12.9922C36.9166 13.6908 34.86 15.6152 34.86 15.6152C34.86 15.6152 37.7366 14.3888 38.36 14.1719C38.9835 13.955 39.909 13.7063 40.321 13.5996C41.6986 13.2408 43.1009 12.984 44.5163 12.832C44.7993 12.7733 46.2681 12.6981 46.6374 12.6738C47.0451 12.6416 47.3619 12.6312 47.6765 12.6348V49.3848C46.5248 49.3838 45.3371 49.2077 43.8942 48.8291C38.3682 47.3778 33.1372 44.7894 28.9636 40.8535C28.5788 40.4853 28.2118 40.0997 27.862 39.6982C27.7413 39.5778 27.2064 38.784 27.0749 38.5947C23.6242 39.249 24.1562 37.8798 25.3425 35.3926C25.7085 34.6252 26.1607 33.8306 26.4733 33.0459L26.5183 32.9316L26.4196 32.877C25.5856 32.4089 23.901 31.202 23.5661 30.249C23.2579 29.3708 25.1394 28.6264 25.7106 28.1377C26.8633 27.1517 27.5421 25.7018 28.2927 24.4053C29.2479 22.5039 31.2646 19.2989 32.6267 17.709C31.6137 17.878 29.9065 20.0556 29.2214 20.5264C28.651 20.9767 27.7067 22.221 27.1276 22.832C27.0743 22.7453 27.0231 22.6575 26.9724 22.5693C24.7974 18.7803 24.6197 9.61324 25.8327 5.39551C26.0421 4.66745 26.2223 4.06455 26.9001 3.68848Z" fill="#FFECCD" style="fill:#FFECCD;fill:color(display-p3 1.0000 0.9255 0.8039);fill-opacity:1;"/>
<path fill-rule="evenodd" clip-rule="evenodd" d="M28.2616 24.4761C28.2616 25.6316 28.5185 31.7922 29.1308 32.3237C29.7431 32.8545 31.7991 34.336 32.7177 33.4614C33.6362 32.5867 34.8432 31.2098 37.3886 30.8921C39.9342 30.5745 40.2408 31.3013 41.4218 30.8921C42.6028 30.4829 43.6357 28.6232 46.1923 28.1147C46.7318 28.0075 47.2573 27.9701 47.7636 27.9819V49.688C47.7347 49.688 47.7058 49.689 47.6767 49.689C37.0479 49.689 28.9325 40.9243 28.9325 40.9243L27.83 39.769C27.8391 39.7578 28.8931 38.4487 27.0429 38.6655C25.1846 38.8833 24.5343 37.0908 25.3105 35.4634C26.0865 33.8363 26.1287 33.9015 26.4413 33.1167C26.7538 32.3322 26.5028 33.0423 26.4862 33.0015C26.4842 32.9703 27.2138 33.4114 26.3876 32.9478C25.5535 32.4797 23.8558 31.2355 23.5341 30.3198C23.2127 29.4041 24.8178 28.9459 25.6796 28.2085C26.5414 27.471 27.8304 25.4567 28.2616 24.4761Z" fill="white" style="fill:white;fill-opacity:1;"/>
<path fill-rule="evenodd" clip-rule="evenodd" d="M47.7634 44.6357C44.9602 44.6283 42.8635 40.6754 42.0769 38.3594C41.2894 36.0413 38.4035 33.8325 38.9362 33.2998C39.4689 32.7673 39.6721 34.0291 41.4216 34.8164C43.1713 35.6036 47.3327 34.8612 47.3327 33.2832C47.3327 31.7053 46.4946 31.9734 45.6198 31.0986C44.7453 30.2239 45.1038 29.0897 47.7634 29.043V44.6357Z" fill="#0F0B20" style="fill:#0F0B20;fill:color(display-p3 0.0590 0.0450 0.1274);fill-opacity:1;"/>
<path d="M23.4879 30.2681C23.7503 31.2741 25.6516 32.5344 26.4858 33.0025C26.1732 33.7874 25.6763 34.6963 25.3102 35.4638C24.1239 37.951 23.5915 39.3197 27.0422 38.6654C27.1734 38.8542 27.7088 39.6488 27.8295 39.7692C29.0796 38.3868 31.3173 34.7295 32.7039 33.4713C32.7039 33.4713 29.8739 32.3341 29.0428 30.618C28.2118 28.9019 28.2608 24.4761 28.2608 24.4761C28.2608 24.4761 26.5367 26.9938 25.6749 27.7312C24.813 28.4685 23.2255 29.2621 23.4879 30.2681Z" fill="#FFAF9D" style="fill:#FFAF9D;fill:color(display-p3 1.0000 0.6863 0.6157);fill-opacity:1;"/>
<path d="M42.4512 36.2271C42.8649 36.2539 43.5892 36.2082 44.0259 36.194C44.0269 36.7754 44.0163 37.2415 43.9772 37.8207C43.264 37.8555 42.7121 36.7962 42.4512 36.2271Z" fill="white" style="fill:white;fill-opacity:1;"/>
<path d="M27.0954 22.9025C23.9689 17.3211 24.4938 4.81155 26.8557 3.67432C28.8083 5.70795 32.8822 11.8613 33.8803 14.4957C32.5524 14.1703 30.997 13.95 30.7197 14.2577C30.4424 14.5655 31.3609 16.9712 32.7352 17.6736C31.7983 17.9335 27.0954 22.9025 27.0954 22.9025Z" fill="#FFAF9D" style="fill:#FFAF9D;fill:color(display-p3 1.0000 0.6863 0.6157);fill-opacity:1;"/>
<path d="M37.0036 24.3632C40.1966 24.1008 42.821 27.8624 42.3836 28.2998C41.9462 28.7372 40.1257 26.5148 37.5285 26.4627C34.9312 26.4106 32.6296 28.9559 32.138 28.5486C31.6463 28.1414 33.8106 24.6256 37.0036 24.3632Z" fill="#0F0B20" style="fill:#0F0B20;fill:color(display-p3 0.0590 0.0450 0.1274);fill-opacity:1;"/>
<path d="M39.3311 21.7634C39.8413 20.991 41.9598 22.7051 42.2036 23.3748C42.4474 24.0445 42.2036 24.1376 41.991 24.3667L39.3311 21.7634Z" fill="#FFAF9D" style="fill:#FFAF9D;fill:color(display-p3 1.0000 0.6863 0.6157);fill-opacity:1;"/>
<path d="M5.11751 2.59582C5.28547 2.29743 5.5109 2.18704 5.7296 1.88086C6.60439 2.23078 20.1095 12.706 22.2208 13.7684C22.8635 14.0918 23.1492 14.4228 23.1694 15.1352C23.1068 16.4293 23.7339 19.5199 24.0557 20.8075C21.4019 18.9107 18.0346 16.4269 15.4798 14.4167C14.3711 13.5007 12.9089 12.4966 11.7201 11.6316L7.33668 8.37638C6.0391 7.4253 4.55134 6.38745 3.30371 5.39412C3.62319 4.78019 4.70189 3.20048 5.11751 2.59582Z" fill="#E0D8F6" style="fill:#E0D8F6;fill:color(display-p3 0.8784 0.8471 0.9647);fill-opacity:1;"/>
<path d="M24.2283 40.3252C24.9317 40.6342 25.2816 40.6779 25.9814 40.5467C27.7747 42.8649 28.1684 43.3023 30.3912 45.1481C28.9312 48.5712 26.7899 54.9651 26.2763 55.2791C25.7627 55.5931 19.4642 51.6128 19.3231 50.9051C19.182 50.1974 23.0593 43.4527 24.2283 40.3252Z" fill="#B1A7D0" style="fill:#B1A7D0;fill:color(display-p3 0.6941 0.6549 0.8157);fill-opacity:1;"/>
<path d="M24.5085 49.818C24.7271 49.7438 24.9616 49.7287 25.1879 49.7744C25.4143 49.82 25.6246 49.9247 25.7975 50.0778C25.9702 50.2312 26.0991 50.4276 26.1714 50.647C26.2436 50.8664 26.2564 51.101 26.2086 51.327C26.1606 51.5529 26.0536 51.7621 25.8985 51.9333C25.7434 52.1045 25.5457 52.2315 25.3255 52.3015C24.6424 52.5184 23.9119 52.1449 23.6879 51.4643C23.4639 50.7837 23.8299 50.0489 24.5085 49.818Z" fill="#FFECCD" style="fill:#FFECCD;fill:color(display-p3 1.0000 0.9255 0.8039);fill-opacity:1;"/>
<path d="M9.71022 12.2036L24.2318 22.8761C24.5556 23.135 25.1917 24.7608 25.3564 25.2502C25.1322 25.5629 24.8018 26.1213 24.4942 26.2441C24.4942 26.2441 9.05412 15.3091 8.31055 14.4781C8.53126 13.9598 9.37648 12.6862 9.71022 12.2036Z" fill="#B1A7D0" style="fill:#B1A7D0;fill:color(display-p3 0.6941 0.6549 0.8157);fill-opacity:1;"/>
<path d="M3.09141 7.55322L8.70461 11.5471C8.27972 12.2645 7.21746 13.8653 7.21746 13.8653L1.75 9.92873C1.81211 9.20466 2.64999 8.23311 3.09141 7.55322Z" fill="#B1A7D0" style="fill:#B1A7D0;fill:color(display-p3 0.6941 0.6549 0.8157);fill-opacity:1;"/>
<path d="M21.87 42.3401L17.8022 51.0137C17.8023 51.9909 26.2002 57.1842 26.7656 56.9004C27.3309 56.6166 31.3615 45.9705 31.3615 45.9705C31.5819 46.0632 32.6116 46.6957 32.8486 46.8453C32.8486 46.8453 28.4747 58.3488 27.5999 58.9174C26.7251 59.486 15.5277 52.4877 15.3965 51.263C15.3965 50.5631 20.5133 40.6782 20.5133 40.6782L21.87 42.3401Z" fill="#E0D8F6" style="fill:#E0D8F6;fill:color(display-p3 0.8784 0.8471 0.9647);fill-opacity:1;"/>
<path d="M22.5993 32.2651C22.9635 32.6683 23.8952 33.2118 24.2314 33.6205C23.5118 35.9317 22.2631 36.8289 22.9047 39.619C22.6228 40.3818 22.231 41.5768 21.8694 42.3401L20.5127 40.6783C22.2193 36.0854 22.5993 35.5605 21.3087 33.6205C21.7225 33.2259 22.2906 32.7271 22.5993 32.2651Z" fill="#B1A7D0" style="fill:#B1A7D0;fill:color(display-p3 0.6941 0.6549 0.8157);fill-opacity:1;"/>
<path fill-rule="evenodd" clip-rule="evenodd" d="M47.7197 38.2727C47.7343 38.2732 47.7492 38.2732 47.7637 38.2737V43.5627C47.7493 43.5628 47.7343 43.5647 47.7197 43.5647C45.2267 43.564 41.466 38.0497 47.7197 38.2727Z" fill="#FFAF9D" style="fill:#FFAF9D;fill:color(display-p3 1.0000 0.6863 0.6157);fill-opacity:1;"/>
<path d="M5.11816 2.59562C5.28612 2.29723 5.46783 2.05561 5.73026 1.83691C9.38481 4.26394 21.5653 13.048 22.3951 13.6029C23.2248 14.1577 23.2261 14.2152 23.1824 15.3962C22.1308 14.639 5.11816 2.59562 5.11816 2.59562Z" fill="white" style="fill:white;fill-opacity:1;"/>
<path fill-rule="evenodd" clip-rule="evenodd" d="M90.5849 0.743571C89.9191 0.190542 88.5771 0.986001 88.2001 1.24943C88.184 1.23944 87.2143 0.642394 86.2548 1.24943C85.2901 1.85999 85.5434 2.91705 85.5448 2.92326C82.0325 5.3775 75.7567 10.2308 72.2587 12.7045C72.2877 9.8524 71.8191 3.02691 69.2753 1.44279C69.0493 1.42234 68.8224 1.40838 68.5956 1.4008C65.3633 1.31699 59.3656 5.37821 56.9687 7.46818C55.7328 8.54577 54.3528 9.99246 53.1493 11.1537C51.222 10.6637 49.4476 10.4551 47.6767 10.4672V51.4809C55.0925 51.4659 61.1923 47.6762 61.1923 47.6762C61.6358 48.6236 66.3536 60.1761 67.0097 60.6235C67.6658 61.0701 68.9163 60.0983 69.371 60.0981C69.8256 60.0981 69.9039 61.5952 70.9892 61.3237C72.0748 61.0516 81.4415 55.0695 81.4433 54.4125C81.4433 53.7636 80.8441 53.0292 80.831 53.0131C80.831 53.0131 81.4436 52.7064 82.1435 51.6567C82.8422 50.6054 74.7513 37.0913 75.4511 35.4731C76.1509 33.8548 84.1233 29.6126 84.5048 27.8627C84.8852 26.1131 81.5769 21.2577 81.9687 20.5141C82.3623 19.7693 94.4345 11.2846 95.0468 10.6723C95.658 10.0593 93.9917 7.64882 93.4716 6.63224C92.9514 5.61549 93.8217 5.68609 93.2968 4.68009C92.7718 3.67398 91.2507 1.29676 90.5849 0.743571ZM79.5175 22.4828C80.8539 22.8229 83.061 26.7244 82.4052 27.6869C81.7492 28.6491 76.6908 32.5605 75.1376 32.019C73.8259 31.5611 73.7841 30.2255 73.5478 29.1244C73.2817 28.5376 72.8441 28.2194 72.4765 27.6869L73.789 26.769C75.1863 28.0778 76.5447 28.7991 77.332 28.8246C78.1193 28.8501 79.4747 28.7807 79.5175 28.267C79.5597 27.7533 75.4837 27.2237 76.0195 25.019L79.5175 22.4828Z" fill="#0F0B20" style="fill:#0F0B20;fill:color(display-p3 0.0590 0.0450 0.1274);fill-opacity:1;"/>
<path fill-rule="evenodd" clip-rule="evenodd" d="M68.4525 3.68848C64.6637 3.69136 57.8599 9.20959 55.6536 12.0781C56.1129 12.3253 56.8572 12.6969 57.2562 12.9922C58.4359 13.6908 60.4925 15.6152 60.4925 15.6152C60.4925 15.6152 57.6159 14.3888 56.9925 14.1719C56.3691 13.955 55.4435 13.7063 55.0316 13.5996C53.654 13.2408 52.2517 12.984 50.8362 12.832C50.5533 12.7733 49.0844 12.6981 48.7151 12.6738C48.3074 12.6416 47.9907 12.6312 47.6761 12.6348V49.3848C48.8278 49.3838 50.0154 49.2077 51.4583 48.8291C56.9844 47.3778 62.2153 44.7894 66.389 40.8535C66.7737 40.4853 67.1407 40.0997 67.4905 39.6982C67.6112 39.5778 68.1461 38.784 68.2776 38.5947C71.7284 39.249 71.1964 37.8798 70.0101 35.3926C69.644 34.6252 69.1918 33.8306 68.8792 33.0459L68.8343 32.9316L68.9329 32.877C69.767 32.4089 71.4516 31.202 71.7864 30.249C72.0947 29.3708 70.2132 28.6264 69.6419 28.1377C68.4892 27.1517 67.8104 25.7018 67.0599 24.4053C66.1046 22.5039 64.0879 19.2989 62.7259 17.709C63.7388 17.878 65.4461 20.0556 66.1312 20.5264C66.7015 20.9767 67.6458 22.221 68.2249 22.832C68.2783 22.7453 68.3295 22.6575 68.3802 22.5693C70.5551 18.7803 70.7328 9.61324 69.5198 5.39551C69.3104 4.66745 69.1302 4.06455 68.4525 3.68848Z" fill="#FFECCD" style="fill:#FFECCD;fill:color(display-p3 1.0000 0.9255 0.8039);fill-opacity:1;"/>
<path fill-rule="evenodd" clip-rule="evenodd" d="M67.0909 24.4761C67.0909 25.6316 66.834 31.7922 66.2218 32.3237C65.6094 32.8545 63.5534 34.336 62.6349 33.4614C61.7164 32.5867 60.5094 31.2098 57.964 30.8921C55.4183 30.5745 55.1117 31.3013 53.9307 30.8921C52.7498 30.4829 51.7168 28.6232 49.1602 28.1147C48.6208 28.0075 48.0953 27.9701 47.589 27.9819V49.688C47.6178 49.688 47.6468 49.689 47.6759 49.689C58.3046 49.689 66.42 40.9243 66.42 40.9243L67.5225 39.769C67.5134 39.7578 66.4595 38.4487 68.3097 38.6655C70.168 38.8833 70.8183 37.0908 70.0421 35.4634C69.266 33.8363 69.2239 33.9015 68.9112 33.1167C68.5987 32.3322 68.8497 33.0423 68.8663 33.0015C68.8683 32.9703 68.1387 33.4114 68.9649 32.9478C69.799 32.4797 71.4967 31.2355 71.8184 30.3198C72.1398 29.4041 70.5348 28.9459 69.6729 28.2085C68.8111 27.471 67.5222 25.4567 67.0909 24.4761Z" fill="white" style="fill:white;fill-opacity:1;"/>
<path fill-rule="evenodd" clip-rule="evenodd" d="M47.5891 44.6357C50.3923 44.6283 52.4891 40.6754 53.2757 38.3594C54.0631 36.0413 56.949 33.8325 56.4163 33.2998C55.8836 32.7673 55.6804 34.0291 53.9309 34.8164C52.1812 35.6036 48.0198 34.8612 48.0198 33.2832C48.0198 31.7053 48.8579 31.9734 49.7327 31.0986C50.6072 30.2239 50.2487 29.0897 47.5891 29.043V44.6357Z" fill="#0F0B20" style="fill:#0F0B20;fill:color(display-p3 0.0590 0.0450 0.1274);fill-opacity:1;"/>
<path d="M71.8646 30.2681C71.6022 31.2741 69.7009 32.5344 68.8667 33.0025C69.1794 33.7874 69.6763 34.6963 70.0424 35.4638C71.2287 37.951 71.7611 39.3197 68.3103 38.6654C68.1791 38.8542 67.6438 39.6488 67.523 39.7692C66.273 38.3868 64.0352 34.7295 62.6487 33.4713C62.6487 33.4713 65.4786 32.3341 66.3097 30.618C67.1407 28.9019 67.0918 24.4761 67.0918 24.4761C67.0918 24.4761 68.8158 26.9938 69.6777 27.7312C70.5395 28.4685 72.1271 29.2621 71.8646 30.2681Z" fill="#FFAF9D" style="fill:#FFAF9D;fill:color(display-p3 1.0000 0.6863 0.6157);fill-opacity:1;"/>
<path d="M52.9014 36.2271C52.4876 36.2539 51.7634 36.2082 51.3266 36.194C51.3256 36.7754 51.3362 37.2415 51.3753 37.8207C52.0885 37.8555 52.6405 36.7962 52.9014 36.2271Z" fill="white" style="fill:white;fill-opacity:1;"/>
<path d="M68.2571 22.9025C71.3836 17.3211 70.8588 4.81155 68.4968 3.67432C66.5443 5.70795 62.4704 11.8613 61.4722 14.4957C62.8002 14.1703 64.3556 13.95 64.6329 14.2577C64.9102 14.5655 63.9916 16.9712 62.6173 17.6736C63.5542 17.9335 68.2571 22.9025 68.2571 22.9025Z" fill="#FFAF9D" style="fill:#FFAF9D;fill:color(display-p3 1.0000 0.6863 0.6157);fill-opacity:1;"/>
<path d="M58.349 24.3632C55.156 24.1008 52.5316 27.8624 52.969 28.2998C53.4064 28.7372 55.2268 26.5148 57.8241 26.4627C60.4213 26.4106 62.7229 28.9559 63.2146 28.5486C63.7062 28.1414 61.542 24.6256 58.349 24.3632Z" fill="#0F0B20" style="fill:#0F0B20;fill:color(display-p3 0.0590 0.0450 0.1274);fill-opacity:1;"/>
<path d="M56.0215 21.7634C55.5112 20.991 53.3928 22.7051 53.149 23.3748C52.9052 24.0445 53.149 24.1376 53.3616 24.3667L56.0215 21.7634Z" fill="#FFAF9D" style="fill:#FFAF9D;fill:color(display-p3 1.0000 0.6863 0.6157);fill-opacity:1;"/>
<path d="M90.235 2.59582C90.0671 2.29743 89.8416 2.18704 89.6229 1.88086C88.7481 2.23078 75.2431 12.706 73.1318 13.7684C72.489 14.0918 72.2033 14.4228 72.1831 15.1352C72.2458 16.4293 71.6186 19.5199 71.2969 20.8075C73.9507 18.9107 77.3179 16.4269 79.8727 14.4167C80.9815 13.5007 82.4436 12.4966 83.6324 11.6316L88.0159 8.37638C89.3134 7.4253 90.8012 6.38745 92.0488 5.39412C91.7294 4.78019 90.6506 3.20048 90.235 2.59582Z" fill="#E0D8F6" style="fill:#E0D8F6;fill:color(display-p3 0.8784 0.8471 0.9647);fill-opacity:1;"/>
<path d="M71.1242 40.3252C70.4209 40.6342 70.071 40.6779 69.3711 40.5467C67.5778 42.8649 67.1841 43.3023 64.9613 45.1481C66.4213 48.5712 68.5627 54.9651 69.0762 55.2791C69.5898 55.5931 75.8884 51.6128 76.0295 50.9051C76.1705 50.1974 72.2932 43.4527 71.1242 40.3252Z" fill="#B1A7D0" style="fill:#B1A7D0;fill:color(display-p3 0.6941 0.6549 0.8157);fill-opacity:1;"/>
<path d="M70.8441 49.818C70.6254 49.7438 70.391 49.7287 70.1646 49.7744C69.9382 49.82 69.7279 49.9247 69.5551 50.0778C69.3824 50.2312 69.2534 50.4276 69.1812 50.647C69.109 50.8664 69.0961 51.101 69.1439 51.327C69.1919 51.5529 69.2989 51.7621 69.4541 51.9333C69.6092 52.1045 69.8069 52.2315 70.027 52.3015C70.7101 52.5184 71.4406 52.1449 71.6646 51.4643C71.8887 50.7837 71.5227 50.0489 70.8441 49.818Z" fill="#FFECCD" style="fill:#FFECCD;fill:color(display-p3 1.0000 0.9255 0.8039);fill-opacity:1;"/>
<path d="M85.6423 12.2036L71.1207 22.8761C70.7969 23.135 70.1608 24.7608 69.9961 25.2502C70.2203 25.5629 70.5507 26.1213 70.8583 26.2441C70.8583 26.2441 86.2984 15.3091 87.042 14.4781C86.8213 13.9598 85.9761 12.6862 85.6423 12.2036Z" fill="#B1A7D0" style="fill:#B1A7D0;fill:color(display-p3 0.6941 0.6549 0.8157);fill-opacity:1;"/>
<path d="M92.2611 7.55322L86.6479 11.5471C87.0728 12.2645 88.1351 13.8653 88.1351 13.8653L93.6025 9.92873C93.5404 9.20466 92.7026 8.23311 92.2611 7.55322Z" fill="#B1A7D0" style="fill:#B1A7D0;fill:color(display-p3 0.6941 0.6549 0.8157);fill-opacity:1;"/>
<path d="M73.4826 42.3401L77.5504 51.0137C77.5502 51.9909 69.1523 57.1842 68.587 56.9004C68.0216 56.6166 63.9911 45.9705 63.9911 45.9705C63.7706 46.0632 62.741 46.6957 62.5039 46.8453C62.5039 46.8453 66.8779 58.3488 67.7527 58.9174C68.6275 59.486 79.8248 52.4877 79.9561 51.263C79.9561 50.5631 74.8393 40.6782 74.8393 40.6782L73.4826 42.3401Z" fill="#E0D8F6" style="fill:#E0D8F6;fill:color(display-p3 0.8784 0.8471 0.9647);fill-opacity:1;"/>
<path d="M72.7533 32.2651C72.389 32.6683 71.4574 33.2118 71.1212 33.6205C71.8408 35.9317 73.0895 36.8289 72.4478 39.619C72.7298 40.3818 73.1216 41.5768 73.4831 42.3401L74.8398 40.6783C73.1332 36.0854 72.7533 35.5605 74.0439 33.6205C73.63 33.2259 73.0619 32.7271 72.7533 32.2651Z" fill="#B1A7D0" style="fill:#B1A7D0;fill:color(display-p3 0.6941 0.6549 0.8157);fill-opacity:1;"/>
<path fill-rule="evenodd" clip-rule="evenodd" d="M47.6328 38.2727C47.6183 38.2732 47.6033 38.2732 47.5888 38.2737V43.5627C47.6033 43.5628 47.6182 43.5647 47.6328 43.5647C50.1259 43.564 53.8866 38.0497 47.6328 38.2727Z" fill="#FFAF9D" style="fill:#FFAF9D;fill:color(display-p3 1.0000 0.6863 0.6157);fill-opacity:1;"/>
<path d="M90.2344 2.59562C90.0664 2.29723 89.8847 2.05561 89.6223 1.83691C85.9677 4.26394 73.7872 13.048 72.9575 13.6029C72.1277 14.1577 72.1264 14.2152 72.1701 15.3962C73.2217 14.639 90.2344 2.59562 90.2344 2.59562Z" fill="white" style="fill:white;fill-opacity:1;"/>
<path d="M233.267 25.5915C233.267 27.0585 233.011 28.3792 232.499 29.5536C231.998 30.7158 231.305 31.7228 230.42 32.5746C229.546 33.4249 228.517 34.1148 227.334 34.6443C226.161 35.1723 224.898 35.5309 223.544 35.7201C223.022 35.7932 222.446 35.804 221.817 35.7528C221.199 35.7 220.57 35.6166 219.93 35.5026C219.29 35.3778 218.672 35.2394 218.075 35.0873C217.489 34.923 216.966 34.7658 216.508 34.6157L217.211 27.9C218.118 28.3195 219.12 28.597 220.218 28.7326C221.327 28.856 222.414 28.8432 223.48 28.6942C223.683 28.6659 223.928 28.6262 224.216 28.5753C224.503 28.5136 224.775 28.4275 225.031 28.3167C225.298 28.1938 225.522 28.0394 225.703 27.8534C225.884 27.6675 225.975 27.4246 225.975 27.1248C225.975 26.9214 225.911 26.759 225.783 26.6377C225.655 26.5056 225.49 26.4109 225.287 26.3536C225.084 26.2855 224.855 26.248 224.599 26.2409C224.344 26.2231 224.093 26.2207 223.848 26.2336C223.603 26.2464 223.373 26.2677 223.16 26.2975C222.947 26.3274 222.776 26.3512 222.648 26.3691C221.732 26.4972 220.895 26.4536 220.138 26.2382C219.392 26.0213 218.747 25.6671 218.203 25.1756C217.67 24.6719 217.254 24.05 216.956 23.3101C216.657 22.5595 216.508 21.7237 216.508 20.8029C216.508 19.5394 216.758 18.3747 217.259 17.3088C217.771 16.2308 218.448 15.2849 219.29 14.4712C220.143 13.6453 221.119 12.9682 222.217 12.4399C223.315 11.9117 224.45 11.5656 225.623 11.4016C226.145 11.3286 226.684 11.2748 227.238 11.2401C227.792 11.1948 228.341 11.1823 228.885 11.2026C229.439 11.2215 229.978 11.2694 230.5 11.3463C231.023 11.4232 231.518 11.5412 231.987 11.7005L231.38 18.3064C230.655 18.1615 229.892 18.0646 229.093 18.0157C228.304 17.9547 227.531 17.9771 226.774 18.0829C226.636 18.1023 226.454 18.1329 226.23 18.1749C226.017 18.2047 225.788 18.2528 225.543 18.3192C225.308 18.3734 225.068 18.4444 224.823 18.5323C224.578 18.6201 224.359 18.7256 224.168 18.8488C223.976 18.9613 223.821 19.1006 223.704 19.2669C223.587 19.4332 223.533 19.6174 223.544 19.8193C223.555 20.0534 223.64 20.2342 223.8 20.3618C223.97 20.4771 224.184 20.5598 224.439 20.6097C224.706 20.6473 224.994 20.6606 225.303 20.6496C225.623 20.637 225.937 20.6144 226.246 20.5819C226.556 20.5387 226.843 20.4985 227.11 20.4612C227.377 20.4132 227.595 20.3881 227.766 20.3856C228.618 20.3199 229.386 20.3947 230.068 20.6098C230.751 20.825 231.326 21.1567 231.795 21.6051C232.275 22.0521 232.638 22.6171 232.883 23.3002C233.139 23.9711 233.267 24.7349 233.267 25.5915Z" fill="#FFECCD" style="fill:#FFECCD;fill:color(display-p3 1.0000 0.9255 0.8039);fill-opacity:1;"/>
<path d="M214.27 13.7591L211.809 36.534L204.739 37.6416L200.262 26.6069L199.558 38.5907L192.362 39.5966L192.938 16.741L200.934 15.2379L206.467 26.0287L206.722 15.0712L214.27 13.7591Z" fill="#FFECCD" style="fill:#FFECCD;fill:color(display-p3 1.0000 0.9255 0.8039);fill-opacity:1;"/>
<path d="M190.652 16.932C190.588 17.9474 190.529 18.9514 190.476 19.944C190.423 20.9365 190.354 21.942 190.268 22.9605L183.488 24.2616L183.328 26.3077L188.094 25.6416L187.742 30.6698L182.944 31.501L182.784 33.8683L186.75 33.3139L189.565 32.9205C189.501 34.1073 189.431 35.2895 189.357 36.467C189.293 37.6324 189.234 38.8024 189.181 39.977L175.396 42.225L175.908 18.9929L190.652 16.932Z" fill="#FFECCD" style="fill:#FFECCD;fill:color(display-p3 1.0000 0.9255 0.8039);fill-opacity:1;"/>
<path d="M173.32 19.5481L173.16 26.468L168.394 27.3379L167.179 42.9311L160.431 44.2443L160.431 28.1893L155.684 29.0605L155.889 22.0484L173.32 19.5481Z" fill="#FFECCD" style="fill:#FFECCD;fill:color(display-p3 1.0000 0.9255 0.8039);fill-opacity:1;"/>
<path d="M158.787 21.6052L158.627 28.5251L153.862 29.395L152.647 44.9882L145.898 46.3014L145.93 30.8757L141.165 31.8107L141.357 24.1055L158.787 21.6052Z" fill="#FFECCD" style="fill:#FFECCD;fill:color(display-p3 1.0000 0.9255 0.8039);fill-opacity:1;"/>
<path d="M139.041 24.0627L137.202 47.1943L130.146 48.5501L130.146 25.7764L139.041 24.0627Z" fill="#FFECCD" style="fill:#FFECCD;fill:color(display-p3 1.0000 0.9255 0.8039);fill-opacity:1;"/>
<path d="M129.015 25.694L121.486 37.1951L127.828 47.4162L120.58 49.7158L115.832 43.602L115.582 50.7283L109.084 51.8876L109.584 27.7827L116.863 27.1731L116.3 34.343L121.143 26.1669L129.015 25.694Z" fill="#FFECCD" style="fill:#FFECCD;fill:color(display-p3 1.0000 0.9255 0.8039);fill-opacity:1;"/>
<path d="M117.251 14.2882C117.251 14.7267 117.186 15.1246 117.056 15.4818C116.926 15.8391 116.747 16.1602 116.519 16.4453C116.295 16.7298 116.031 16.9815 115.726 17.2004C115.422 17.4192 115.095 17.6096 114.746 17.7714C114.401 17.9281 114.043 18.0596 113.671 18.1658C113.3 18.2675 112.935 18.3456 112.576 18.4002L112.576 21.5604L109.447 21.9979C109.447 20.9625 109.449 19.9314 109.453 18.9046C109.458 17.8777 109.465 16.8414 109.474 15.7958C109.482 15.243 109.485 14.6911 109.48 14.1402C109.476 13.5892 109.487 13.0316 109.514 12.4672C110.087 12.2153 110.66 12.0064 111.233 11.8404C111.806 11.6743 112.397 11.5488 113.006 11.4637C113.351 11.4155 113.696 11.3967 114.041 11.4072C114.385 11.4133 114.714 11.4555 115.028 11.5337C115.346 11.6113 115.639 11.7241 115.908 11.8719C116.181 12.0145 116.416 12.1987 116.613 12.4243C116.81 12.6499 116.964 12.9177 117.076 13.2276C117.193 13.5323 117.251 13.8858 117.251 14.2882ZM114.269 14.9356C114.269 14.6417 114.179 14.4259 114 14.2882C113.826 14.1454 113.597 14.0936 113.315 14.1331C113.221 14.1462 113.123 14.169 113.02 14.2015C112.921 14.2288 112.827 14.2601 112.738 14.2952L112.657 16.2867C112.72 16.2869 112.78 16.283 112.838 16.2749C112.897 16.2667 112.957 16.2583 113.02 16.2495C113.181 16.227 113.335 16.1783 113.483 16.1034C113.635 16.0278 113.77 15.9322 113.886 15.8165C114.002 15.6962 114.094 15.5636 114.161 15.4186C114.233 15.2684 114.269 15.1074 114.269 14.9356ZM124.393 10.0347C124.366 10.4634 124.342 10.8873 124.319 11.3064C124.297 11.7254 124.268 12.15 124.232 12.5799L121.384 13.1272L121.317 13.9911L123.319 13.7113L123.171 15.8342L121.156 16.1837L121.089 17.1832L122.754 16.9503L123.936 16.7851C123.91 17.2862 123.881 17.7853 123.849 18.2825C123.822 18.7745 123.798 19.2685 123.775 19.7644L117.986 20.7093L118.201 10.9003L124.393 10.0347ZM137.157 8.61673L135.585 18.2356L131.771 18.8502L130.951 14.0956L130.132 18.7266L126.317 19.3955L124.732 10.3535L128.063 9.5895L128.735 15.1243L129.635 9.36982L132.254 9.00368L133.302 14.5537L133.839 8.78212L137.157 8.61673ZM148.869 9.86846C148.869 10.307 148.804 10.7049 148.674 11.0621C148.545 11.4193 148.365 11.7405 148.137 12.0256C147.913 12.3101 147.649 12.5617 147.345 12.7806C147.04 12.9995 146.713 13.1899 146.364 13.3517C146.019 13.5084 145.661 13.6398 145.289 13.746C144.918 13.8477 144.553 13.9259 144.195 13.9804L144.195 17.1406L141.065 17.5781C141.065 16.5428 141.067 15.5117 141.072 14.4848C141.076 13.4579 141.083 12.4217 141.092 11.3761C141.101 10.8233 141.103 10.2714 141.099 9.72044C141.094 9.1695 141.105 8.61185 141.132 8.04749C141.705 7.79558 142.278 7.58662 142.851 7.42061C143.425 7.2546 144.016 7.12903 144.625 7.04391C144.969 6.99572 145.314 6.97691 145.659 6.9875C146.004 6.99355 146.333 7.03571 146.646 7.11397C146.964 7.1916 147.257 7.30432 147.526 7.45212C147.799 7.59479 148.034 7.77894 148.231 8.00457C148.428 8.23021 148.583 8.49796 148.695 8.80783C148.811 9.11255 148.869 9.46609 148.869 9.86846ZM145.887 10.5159C145.887 10.222 145.798 10.0062 145.619 9.86849C145.444 9.72562 145.216 9.6739 144.933 9.71333C144.839 9.72647 144.741 9.74929 144.638 9.78176C144.539 9.8091 144.445 9.84032 144.356 9.87545L144.275 11.8669C144.338 11.8672 144.398 11.8633 144.457 11.8551C144.515 11.847 144.575 11.8385 144.638 11.8298C144.799 11.8072 144.954 11.7585 145.101 11.6836C145.254 11.6081 145.388 11.5125 145.504 11.3967C145.621 11.2765 145.713 11.1438 145.78 10.9988C145.851 10.8486 145.887 10.6877 145.887 10.5159ZM156.011 5.61496C155.985 6.04369 155.96 6.46758 155.938 6.88664C155.915 7.30571 155.886 7.73023 155.85 8.16021L153.003 8.70746L152.935 9.57132L154.937 9.29155L154.789 11.4145L152.774 11.7639L152.707 12.7634L154.373 12.5306L155.555 12.3654C155.528 12.8664 155.499 13.3655 155.467 13.8627C155.441 14.3547 155.416 14.8487 155.394 15.3446L149.604 16.2895L149.819 6.48055L156.011 5.61496ZM168.775 4.19699L167.204 13.8158L163.389 14.4305L162.569 9.67588L161.75 14.3069L157.935 14.9758L156.35 5.9338L159.681 5.16976L160.353 10.7045L161.253 4.95008L163.872 4.58394L164.92 10.1339L165.457 4.36238L168.775 4.19699Z" fill="#FFAF9D" style="fill:#FFAF9D;fill:color(display-p3 1.0000 0.6863 0.6157);fill-opacity:1;"/>
<path d="M154.282 51.7296L152.731 61.225L148.965 61.8318L148.156 57.1382L147.347 61.7098L143.581 62.3701L142.017 53.4441L145.305 52.6899L145.968 58.1536L146.856 52.473L149.442 52.1116L150.476 57.5904L151.007 51.8928L154.282 51.7296ZM158.913 50.9484L158.183 60.1683L155.385 60.7067L155.385 51.6289L158.913 50.9484ZM167.064 49.6618L166.997 52.5095L165.021 52.866L164.518 59.2828L161.72 59.8212L161.733 53.473L159.757 53.8563L159.837 50.6853L167.064 49.6618ZM175.977 57.989L172.662 58.613L172.635 55.5239L171.111 55.737L171.018 58.6822L168.047 59.0974L168.299 49.6497L171.455 49.3558L171.256 54.1903L172.728 53.9845L172.742 48.8145L175.765 48.4722L175.977 57.989ZM188.619 54.8561C188.411 55.1485 188.155 55.4141 187.85 55.6531C187.545 55.8921 187.218 56.1008 186.869 56.279C186.52 56.4572 186.162 56.6032 185.795 56.717C185.428 56.8352 185.079 56.9175 184.747 56.9638C184.106 57.0534 183.516 57.0199 182.977 56.8632C182.438 56.7065 181.971 56.4526 181.578 56.1014C181.189 55.7452 180.884 55.3058 180.663 54.7833C180.442 54.2608 180.332 53.6804 180.332 53.0422C180.332 52.5557 180.387 52.0727 180.497 51.5931C180.608 51.109 180.765 50.6475 180.968 50.2085C181.176 49.7644 181.428 49.3498 181.724 48.9648C182.02 48.5753 182.356 48.2293 182.732 47.9268C183.107 47.6244 183.518 47.3728 183.965 47.172C184.411 46.9713 184.889 46.8354 185.397 46.7643C185.587 46.7377 185.79 46.7182 186.007 46.7058C186.224 46.6889 186.438 46.6858 186.65 46.6963C186.867 46.7017 187.077 46.7237 187.28 46.7622C187.483 46.8007 187.669 46.8573 187.837 46.932L187.651 49.5153C187.404 49.4562 187.147 49.4295 186.882 49.4354C186.621 49.4361 186.365 49.4541 186.113 49.4893C185.759 49.5387 185.428 49.6409 185.119 49.7957C184.814 49.9454 184.546 50.139 184.316 50.3764C184.091 50.6132 183.912 50.8882 183.779 51.2013C183.647 51.5144 183.58 51.8561 183.58 52.2266C183.58 52.4587 183.611 52.6797 183.673 52.8897C183.735 53.0953 183.828 53.2743 183.952 53.4266C184.08 53.5738 184.237 53.6857 184.422 53.7624C184.612 53.8385 184.831 53.8592 185.079 53.8246C185.247 53.8012 185.419 53.7548 185.596 53.6854C185.777 53.6154 185.932 53.518 186.06 53.3929L186.086 52.867L184.495 53.0627L184.575 51.0432C185.233 50.9288 185.892 50.8189 186.551 50.7135C187.209 50.6036 187.872 50.4886 188.54 50.3685L188.619 54.8561ZM197.738 47.5028C197.738 47.8331 197.723 48.1989 197.692 48.6005C197.661 49.002 197.61 49.4197 197.539 49.8536C197.469 50.2875 197.376 50.7311 197.261 51.1846C197.15 51.6329 197.011 52.0697 196.843 52.4948C196.675 52.92 196.478 53.3246 196.253 53.7087C196.032 54.0877 195.776 54.4292 195.484 54.7333C195.197 55.0323 194.874 55.2805 194.516 55.4778C194.158 55.6796 193.76 55.8111 193.323 55.8723C192.81 55.9439 192.363 55.9215 191.983 55.8051C191.608 55.6925 191.285 55.5144 191.015 55.2709C190.746 55.023 190.525 54.7236 190.352 54.3728C190.18 54.0176 190.045 53.637 189.948 53.231C189.851 52.8207 189.782 52.3996 189.742 51.9677C189.707 51.5308 189.689 51.1093 189.689 50.7032C189.689 50.0784 189.72 49.4515 189.782 48.8224C189.844 48.189 189.932 47.554 190.047 46.9176L193.15 46.6044C193.031 47.3218 192.927 48.0414 192.839 48.7634C192.755 49.4803 192.713 50.1958 192.713 50.9099C192.713 50.9857 192.715 51.0992 192.719 51.2504C192.728 51.3964 192.741 51.5619 192.759 51.7469C192.777 51.9274 192.801 52.1137 192.832 52.3057C192.867 52.4927 192.914 52.6625 192.971 52.8151C193.029 52.9678 193.097 53.0899 193.177 53.1814C193.261 53.2723 193.358 53.31 193.468 53.2946C193.597 53.2767 193.712 53.2003 193.813 53.0656C193.915 52.9265 194.003 52.749 194.078 52.5332C194.158 52.3167 194.226 52.0706 194.284 51.7948C194.341 51.519 194.39 51.2333 194.43 50.9376C194.47 50.642 194.5 50.3475 194.523 50.0544C194.549 49.7605 194.569 49.4878 194.582 49.236C194.6 48.9836 194.611 48.7611 194.615 48.5686C194.62 48.3761 194.622 48.2329 194.622 48.1392C194.622 47.7911 194.615 47.4461 194.602 47.1043C194.593 46.7575 194.578 46.4137 194.556 46.0732L197.659 45.6394C197.712 46.2479 197.738 46.869 197.738 47.5028ZM207.964 43.9177L207.487 53.0622L204.013 53.8691L202.156 49.2684L201.865 54.2631L198.881 54.6802L199.12 45.154L202.435 44.53L204.729 49.0293L204.835 44.4622L207.964 43.9177ZM215.976 48.8362C215.976 49.4477 215.87 49.998 215.658 50.4874C215.45 50.9717 215.163 51.3912 214.796 51.7459C214.434 52.1001 214.007 52.3873 213.516 52.6077C213.03 52.8274 212.506 52.9764 211.945 53.0549C211.728 53.0852 211.49 53.0895 211.229 53.068C210.973 53.0458 210.712 53.0108 210.447 52.9631C210.181 52.9109 209.925 52.853 209.678 52.7894C209.434 52.7208 209.218 52.6551 209.028 52.5924L209.32 49.7935C209.695 49.9686 210.111 50.0846 210.566 50.1414C211.026 50.1932 211.477 50.1882 211.919 50.1264C212.002 50.1147 212.104 50.0982 212.223 50.0771C212.343 50.0515 212.456 50.0156 212.562 49.9696C212.672 49.9184 212.765 49.8541 212.84 49.7767C212.915 49.6992 212.953 49.598 212.953 49.4731C212.953 49.3883 212.926 49.3206 212.873 49.27C212.82 49.2149 212.752 49.1754 212.668 49.1514C212.584 49.123 212.489 49.1073 212.383 49.1042C212.277 49.0967 212.173 49.0956 212.071 49.1009C211.969 49.1062 211.874 49.115 211.786 49.1274C211.698 49.1397 211.627 49.1496 211.574 49.157C211.194 49.2102 210.847 49.1917 210.533 49.1017C210.223 49.0111 209.956 48.8632 209.731 48.6582C209.51 48.4481 209.337 48.1888 209.213 47.8803C209.09 47.5673 209.028 47.2189 209.028 46.8351C209.028 46.3085 209.132 45.8231 209.339 45.379C209.552 44.9298 209.832 44.5358 210.181 44.1969C210.535 43.8529 210.939 43.571 211.395 43.3512C211.85 43.1313 212.321 42.9874 212.807 42.9194C213.024 42.8892 213.247 42.8669 213.477 42.8526C213.706 42.8339 213.934 42.8288 214.159 42.8375C214.389 42.8455 214.613 42.8657 214.829 42.8979C215.046 42.9301 215.251 42.9794 215.446 43.046L215.194 45.7992C214.893 45.7385 214.577 45.6979 214.246 45.6773C213.919 45.6516 213.598 45.6607 213.284 45.7046C213.227 45.7126 213.152 45.7253 213.059 45.7428C212.97 45.7551 212.875 45.7751 212.774 45.8027C212.677 45.8252 212.577 45.8548 212.475 45.8913C212.374 45.9278 212.283 45.9717 212.204 46.023C212.124 46.0698 212.06 46.1279 212.011 46.1972C211.963 46.2664 211.941 46.3432 211.945 46.4273C211.949 46.5249 211.985 46.6003 212.051 46.6535C212.122 46.7017 212.21 46.7362 212.316 46.757C212.427 46.7728 212.546 46.7785 212.674 46.7739C212.807 46.7688 212.937 46.7595 213.066 46.746C213.194 46.7281 213.313 46.7114 213.424 46.696C213.534 46.6761 213.625 46.6656 213.695 46.6647C214.049 46.6376 214.367 46.669 214.65 46.7588C214.933 46.8487 215.172 46.9872 215.366 47.1742C215.565 47.3606 215.715 47.5963 215.817 47.8811C215.923 48.1608 215.976 48.4792 215.976 48.8362Z" fill="#40C7BE" style="fill:#40C7BE;fill:color(display-p3 0.2510 0.7804 0.7451);fill-opacity:1;"/>
<path d="M224.26 39.8267L220.666 39.9744C220.563 39.9787 220.47 40.0401 220.426 40.1338L218.553 44.1442C218.463 44.336 218.613 44.5538 218.825 44.5388L219.886 44.4638C220.079 44.4501 220.228 44.6342 220.173 44.82L219.554 46.9068C219.474 47.1752 219.799 47.3798 220.007 47.1927L224.412 43.2375C224.579 43.0873 224.507 42.8109 224.287 42.7606L223.31 42.5374C223.114 42.4927 223.028 42.2631 223.147 42.1023L224.497 40.2685C224.635 40.0811 224.493 39.8171 224.26 39.8267Z" fill="#FFAF9D" style="fill:#FFAF9D;fill:color(display-p3 1.0000 0.6863 0.6157);fill-opacity:1;"/>
</svg>
